<svg width="36" height="36" viewBox="0 0 36 36" fill="none" xmlns="http://www.w3.org/2000/svg">
<path d="M20.145 31.71C19.575 31.77 19.005 31.8 18.42 31.8C16.98 31.8 15.6 31.605 14.28 31.23M33.84 16.2C33.84 22.83 29.76 28.485 24 30.75M24.195 19.035C23.16 21.21 20.955 22.695 18.405 22.695C15.855 22.695 13.665 21.195 12.615 19.035M7.605 20.355H6.97499C4.78499 20.355 3 18.885 3 17.085V14.115C3 12.315 4.76999 10.845 6.97499 10.845H8.145M28.695 10.86H29.865C32.055 10.86 33.84 12.33 33.84 14.13V17.1C33.84 18.9 32.07 20.37 29.865 20.37H29.22M23.88 5.88C27.51 7.86 29.985 11.73 29.985 16.2C29.985 22.665 24.81 27.9 18.42 27.9C12.03 27.9 6.855 22.665 6.855 16.2C6.855 15.48 6.91499 14.775 7.03499 14.1C8.00999 8.64 12.735 4.5 18.42 4.5C20.4 4.5 22.26 4.995 23.88 5.88Z" stroke="#B3B3B3" stroke-width="2" stroke-miterlimit="10" stroke-linecap="round"/>
</svg>
