<svg width="36" height="36" viewBox="0 0 36 36" fill="none" xmlns="http://www.w3.org/2000/svg">
<path d="M27.715 24.36C27.13 24.915 26.485 25.41 25.81 25.83" stroke="#FF4200" stroke-width="3" stroke-miterlimit="10" stroke-linecap="round"/>
<path d="M5.98 22.485C4.72 20.655 4 18.435 4 16.065C4 9.675 9.27999 4.5 15.79 4.5H19.51C26.02 4.5 31.3 9.675 31.3 16.065C31.3 19.32 29.92 22.26 27.715 24.36" stroke="#FF4200" stroke-width="3" stroke-miterlimit="10" stroke-linecap="round"/>
<path d="M20.965 27.54C20.485 27.6 20.005 27.63 19.51 27.63H15.79C11.695 27.63 8.095 25.59 5.98 22.485" stroke="#25258C" stroke-width="3" stroke-miterlimit="10" stroke-linecap="round"/>
<path d="M31.255 31.035C24.295 31.035 18.49 26.985 17.2 21.615" stroke="#00A9EA" stroke-width="3" stroke-miterlimit="10" stroke-linecap="round"/>
</svg>
