<svg width="36" height="36" viewBox="0 0 36 36" fill="none" xmlns="http://www.w3.org/2000/svg">
<path d="M24.375 12.2959H29.415C30.735 12.2959 31.815 13.4141 31.815 14.804V32.8719C31.815 32.9677 31.725 33.0316 31.65 32.9837L27.36 30.7472C27.015 30.5715 26.655 30.4756 26.28 30.4756H13.11C11.79 30.4756 10.71 29.3574 10.71 27.9675V14.804C10.71 13.4141 11.79 12.2959 13.11 12.2959H24.36M6.975 25.2837H6.54C5.415 25.2837 4.5 24.3252 4.5 23.143V6.64067C4.5 5.45851 5.415 4.5 6.54 4.5H22.305C23.43 4.5 24.345 5.45851 24.345 6.64067V8.39794M15.8699 21.3857H16.2899M20.835 21.3857H21.255M25.7999 21.3857H26.2199" stroke="#B3B3B3" stroke-width="2" stroke-miterlimit="10" stroke-linecap="round"/>
</svg>
