<svg width="36" height="36" viewBox="0 0 36 36" fill="none" xmlns="http://www.w3.org/2000/svg">
<path d="M10.71 17.6636V27.9675C10.71 29.3574 11.79 30.4756 13.11 30.4756H26.28C26.655 30.4756 27.015 30.5715 27.36 30.7472L31.65 32.9837C31.725 33.0317 31.815 32.9678 31.815 32.8719V14.804C31.815 13.4142 30.735 12.2959 29.415 12.2959H24.375" stroke="#FF4200" stroke-width="3" stroke-miterlimit="10" stroke-linecap="round"/>
<path d="M24.36 12.2959H13.11C11.79 12.2959 10.71 13.4142 10.71 14.804V17.6636" stroke="#25258C" stroke-width="3" stroke-miterlimit="10" stroke-linecap="round"/>
<path d="M6.975 25.2837H6.54C5.415 25.2837 4.5 24.3252 4.5 23.143V6.64067C4.5 5.45851 5.415 4.5 6.54 4.5H22.305C23.43 4.5 24.345 5.45851 24.345 6.64067V8.39794" stroke="#00A9EA" stroke-width="3" stroke-miterlimit="10" stroke-linecap="round"/>
<path d="M15.8699 21.3857H16.2899" stroke="#FF4200" stroke-width="3" stroke-miterlimit="10" stroke-linecap="round"/>
<path d="M20.835 21.3857H21.255" stroke="#FF4200" stroke-width="3" stroke-miterlimit="10" stroke-linecap="round"/>
<path d="M25.7999 21.3857H26.2199" stroke="#FF4200" stroke-width="3" stroke-miterlimit="10" stroke-linecap="round"/>
</svg>
