<svg width="36" height="36" viewBox="0 0 36 36" fill="none" xmlns="http://www.w3.org/2000/svg">
<path d="M6.48208 18.194L9.1986 20.8111C9.54644 21.159 9.71208 21.6393 9.62926 22.1197L8.28756 29.7723C8.07223 30.9815 9.36423 31.8925 10.4575 31.3293L17.4475 27.7184C17.8782 27.4865 18.4082 27.4865 18.8389 27.7184L21.6714 29.176L25.829 31.3293C26.9222 31.8925 28.2142 30.9815 27.9989 29.7723L26.6572 22.1197C26.5743 21.6393 26.74 21.1424 27.0878 20.8111L32.7528 15.3946C33.6472 14.5333 33.1503 13.0591 31.9245 12.8769L24.1063 11.7671C23.6259 11.6843 23.1953 11.3861 22.9799 10.9555L19.4849 3.98197C18.9383 2.88874 17.3481 2.88874 16.8015 3.98197L13.3065 10.9555C13.0912 11.4027 12.6605 11.7009 12.1802 11.7671L4.36192 12.8769C3.13618 13.0591 2.63925 14.5333 3.53371 15.3947L6.46556 18.2106" stroke="#B3B3B3" stroke-width="2" stroke-miterlimit="10" stroke-linecap="round"/>
</svg>
