<svg width="36" height="36" viewBox="0 0 36 36" fill="none" xmlns="http://www.w3.org/2000/svg">
<path d="M13.3065 10.9555L16.8015 3.98197C17.3481 2.88874 18.9383 2.88874 19.4849 3.98197L22.9799 10.9555C23.1953 11.3861 23.6259 11.6843 24.1063 11.7671L31.9246 12.8769C33.1503 13.0591 33.6472 14.5333 32.7528 15.3946L27.0878 20.8111C26.74 21.1424 26.5743 21.6393 26.6572 22.1197L27.9989 29.7723C28.2142 30.9815 26.9222 31.8925 25.829 31.3293L21.6714 29.176" stroke="#FF4200" stroke-width="3" stroke-miterlimit="10" stroke-linecap="round"/>
<path d="M21.6714 29.176L18.8389 27.7184C18.4082 27.4865 17.8782 27.4865 17.4475 27.7184L10.4575 31.3293C9.36424 31.8925 8.07223 30.9815 8.28757 29.7723L9.62926 22.1197C9.71208 21.6393 9.54645 21.159 9.1986 20.8111L6.48208 18.194" stroke="#00A9EA" stroke-width="3" stroke-miterlimit="10" stroke-linecap="round"/>
<path d="M6.46556 18.2106L3.53371 15.3947C2.63925 14.5334 3.13618 13.0591 4.36192 12.8769L12.1802 11.7671C12.6605 11.7009 13.0912 11.4027 13.3065 10.9555" stroke="#25258C" stroke-width="3" stroke-miterlimit="10" stroke-linecap="round"/>
</svg>
