<svg width="138" height="166" viewBox="0 0 138 166" fill="none" xmlns="http://www.w3.org/2000/svg">
<path d="M61.6025 11.3H80.5225" stroke="#FF4200" stroke-width="10.242" stroke-miterlimit="10" stroke-linecap="round"/>
<path d="M99 160C103.418 160 107 153.956 107 146.5C107 139.044 103.418 133 99 133C94.5817 133 91 139.044 91 146.5C91 153.956 94.5817 160 99 160Z" fill="#FF4200"/>
<path d="M49.2725 31.46V19.65C49.2725 14.87 53.1425 11 57.9225 11H83.2325C88.0125 11 91.8825 14.87 91.8825 19.65V31.46" stroke="#FF4200" stroke-width="5.121" stroke-miterlimit="10" stroke-linecap="round"/>
<path d="M105.992 142.65H33.3625C26.6925 142.65 21.2925 137.24 21.2925 130.58V41.69C21.2925 35.02 26.7025 29.62 33.3625 29.62H105.992C112.662 29.62 118.062 35.03 118.062 41.69V130.58C118.072 137.25 112.662 142.65 105.992 142.65Z" fill="#231F20"/>
<path d="M109.532 38.08V120.09C109.532 126.24 104.542 131.23 98.3925 131.23H31.3925C26.9125 131.23 23.0725 128.59 21.2925 124.78V41.69C21.2925 35.03 26.6925 29.62 33.3625 29.62H105.652C108.012 31.67 109.532 34.69 109.532 38.08Z" fill="black"/>
<path d="M122.498 92.0919C122.498 92.0919 116.111 97.7835 107 88.5C97.8887 79.2165 101 72.5 101 72.5" stroke="#FF4200" stroke-width="10.242" stroke-miterlimit="10" stroke-linecap="round"/>
<path d="M27.0482 79.0751C27.0482 79.0751 17 84.5 17 96C17.5 105.5 24.5 111.5 24.5 111.5" stroke="#FF4200" stroke-width="10.242" stroke-miterlimit="10" stroke-linecap="round"/>
<path d="M79 106.99V119.903C79 120.787 78.6489 121.645 78.0247 122.27L75.1899 125.104V110.813H60.9116L63.7464 107.965C64.3706 107.341 65.2159 106.99 66.1001 106.99H79Z" fill="#7B7979"/>
<path d="M61.0026 112.725C59.8973 112.725 59 113.609 59 114.714V127.029H71.2887C72.394 127.029 73.2913 126.132 73.2913 125.026V112.738H61.0026V112.725ZM72.303 125.013C72.303 125.56 71.8479 126.002 71.2887 126.002H60.0013L72.29 113.713V125.013H72.303Z" fill="#7B7979"/>
<path d="M43.5 160C48.7467 160 53 153.06 53 144.5C53 135.94 48.7467 129 43.5 129C38.2533 129 34 135.94 34 144.5C34 153.06 38.2533 160 43.5 160Z" fill="#FF4200"/>
<rect x="83" y="52" width="6" height="9" rx="3" fill="white"/>
<rect x="50" y="52" width="6" height="9" rx="3" fill="white"/>
<path d="M54 73.0782C54 71.4919 55.8433 70.6184 57.071 71.6229C57.7643 72.1901 58.6324 72.5 59.5282 72.5H69.5H79.4718C80.3676 72.5 81.2357 72.1901 81.929 71.6229C83.1567 70.6184 85 71.4919 85 73.0782V75C85 81.6274 79.6274 87 73 87H69.5H66C59.3726 87 54 81.6274 54 75V73.0782Z" stroke="white" stroke-width="2"/>
</svg>
