<svg width="138" height="166" viewBox="0 0 138 166" fill="none" xmlns="http://www.w3.org/2000/svg">
<path d="M61.6025 11.3H80.5225" stroke="#FF4200" stroke-width="10.242" stroke-miterlimit="10" stroke-linecap="round"/>
<path d="M99.2325 161.87C104.435 161.87 108.652 155.051 108.652 146.64C108.652 138.229 104.435 131.41 99.2325 131.41C94.03 131.41 89.8125 138.229 89.8125 146.64C89.8125 155.051 94.03 161.87 99.2325 161.87Z" fill="#FF4200"/>
<path d="M49.2725 31.46V19.65C49.2725 14.87 53.1425 11 57.9225 11H83.2325C88.0125 11 91.8825 14.87 91.8825 19.65V31.46" stroke="#FF4200" stroke-width="5.121" stroke-miterlimit="10" stroke-linecap="round"/>
<path d="M105.992 142.65H33.3625C26.6925 142.65 21.2925 137.24 21.2925 130.58V41.69C21.2925 35.02 26.7025 29.62 33.3625 29.62H105.992C112.662 29.62 118.062 35.03 118.062 41.69V130.58C118.072 137.25 112.662 142.65 105.992 142.65Z" fill="#231F20"/>
<path d="M109.532 38.08V120.09C109.532 126.24 104.542 131.23 98.3925 131.23H31.3925C26.9125 131.23 23.0725 128.59 21.2925 124.78V41.69C21.2925 35.03 26.6925 29.62 33.3625 29.62H105.652C108.012 31.67 109.532 34.69 109.532 38.08Z" fill="black"/>
<path d="M110.062 83.83C110.062 83.83 123.132 87.34 119.712 99.89C116.292 112.44 103.262 112.02 103.262 112.02" stroke="#FF4200" stroke-width="10.242" stroke-miterlimit="10" stroke-linecap="round"/>
<path d="M17.0825 80.42C17.0825 80.42 15.5125 93.82 26.0725 95.62C36.6425 97.42 40.5325 85.28 40.5325 85.28" stroke="#FF4200" stroke-width="10.242" stroke-miterlimit="10" stroke-linecap="round"/>
<path d="M79 106.99V119.903C79 120.787 78.6489 121.645 78.0247 122.27L75.1899 125.104V110.813H60.9116L63.7464 107.965C64.3706 107.341 65.2159 106.99 66.1001 106.99H79Z" fill="#7B7979"/>
<path d="M61.0026 112.725C59.8973 112.725 59 113.609 59 114.714V127.029H71.2887C72.394 127.029 73.2913 126.132 73.2913 125.026V112.738H61.0026V112.725ZM72.303 125.013C72.303 125.56 71.8479 126.002 71.2887 126.002H60.0013L72.29 113.713V125.013H72.303Z" fill="#7B7979"/>
<path d="M46.5525 161.87C51.755 161.87 55.9725 155.051 55.9725 146.64C55.9725 138.229 51.755 131.41 46.5525 131.41C41.35 131.41 37.1325 138.229 37.1325 146.64C37.1325 155.051 41.35 161.87 46.5525 161.87Z" fill="#FF4200"/>
<rect x="83" y="49" width="6" height="15" rx="3" fill="white"/>
<rect x="50" y="49" width="6" height="15" rx="3" fill="white"/>
<path d="M54 75C54 73.8954 54.8954 73 56 73H83C84.1046 73 85 73.8954 85 75V80C85 86.6274 79.6274 92 73 92H66C59.3726 92 54 86.6274 54 80V75Z" stroke="white" stroke-width="2"/>
</svg>
