<svg width="264" height="128" viewBox="0 0 264 128" fill="none" xmlns="http://www.w3.org/2000/svg">
<ellipse cx="193.5" cy="44.7234" rx="31.5" ry="31" fill="url(#paint0_linear_1859_5665)" fill-opacity="0.6"/>
<ellipse cx="90.5" cy="63.7234" rx="45.5" ry="45" transform="rotate(139.956 90.5 63.7234)" fill="url(#paint1_linear_1859_5665)" fill-opacity="0.6"/>
<ellipse cx="230.77" cy="84.9296" rx="23.376" ry="23.1191" transform="rotate(139.956 230.77 84.9296)" fill="url(#paint2_linear_1859_5665)"/>
<ellipse cx="32.7698" cy="36.4617" rx="23.376" ry="23.1191" transform="rotate(139.956 32.7698 36.4617)" fill="url(#paint3_linear_1859_5665)"/>
<path d="M65.0001 17.2234C42.5001 12.7234 22.0001 46.2234 14.0001 60.2234C9.23186 68.2234 4.50007 94.7234 40.5001 84.7234C76.5001 74.7234 88.0001 137.223 115 124.223C142 111.223 165 103.223 199.5 104.723C234 106.223 249 62.7234 242 37.2234C235 11.7234 216 61.2234 193 72.2234C170 83.2234 135 76.2234 109 60.2234C83.0001 44.2234 87.5001 21.7234 65.0001 17.2234Z" fill="url(#paint4_linear_1859_5665)" fill-opacity="0.5"/>
<defs>
<linearGradient id="paint0_linear_1859_5665" x1="193.5" y1="13.7234" x2="193.5" y2="75.7234" gradientUnits="userSpaceOnUse">
<stop stop-color="#FF4200"/>
<stop offset="1" stop-color="#D9D9D9" stop-opacity="0"/>
</linearGradient>
<linearGradient id="paint1_linear_1859_5665" x1="90.5" y1="18.7234" x2="90.5" y2="108.723" gradientUnits="userSpaceOnUse">
<stop stop-color="#25258C"/>
<stop offset="1" stop-color="#D9D9D9" stop-opacity="0"/>
</linearGradient>
<linearGradient id="paint2_linear_1859_5665" x1="230.77" y1="61.8105" x2="230.77" y2="108.049" gradientUnits="userSpaceOnUse">
<stop stop-color="#B3B3B3"/>
<stop offset="1" stop-color="#D9D9D9" stop-opacity="0"/>
</linearGradient>
<linearGradient id="paint3_linear_1859_5665" x1="32.7698" y1="13.3426" x2="32.7698" y2="59.5809" gradientUnits="userSpaceOnUse">
<stop stop-color="#B3B3B3"/>
<stop offset="1" stop-color="#D9D9D9" stop-opacity="0"/>
</linearGradient>
<linearGradient id="paint4_linear_1859_5665" x1="128.5" y1="54.2234" x2="115.5" y2="115.223" gradientUnits="userSpaceOnUse">
<stop stop-color="#00A9EA"/>
<stop offset="1" stop-color="#D9D9D9" stop-opacity="0"/>
</linearGradient>
</defs>
</svg>
