<svg width="138" height="166" viewBox="0 0 138 166" fill="none" xmlns="http://www.w3.org/2000/svg">
<path d="M40.6586 31.76V19.95C40.6586 15.17 44.5286 11.3 49.3086 11.3H74.6186C79.3986 11.3 83.2686 15.17 83.2686 19.95V31.76" stroke="black" stroke-width="5.121" stroke-miterlimit="10" stroke-linecap="round"/>
<path d="M52.4986 11.3H71.4186" stroke="black" stroke-width="10.242" stroke-miterlimit="10" stroke-linecap="round"/>
<path d="M31.223 162.121C36.3096 163.213 41.8644 157.431 43.6301 149.207C45.3958 140.984 42.7036 133.431 37.617 132.339C32.5304 131.247 26.9756 137.029 25.2099 145.253C23.4442 153.476 26.1363 161.029 31.223 162.121Z" fill="black"/>
<path d="M110.349 41.98V130.87C110.349 137.55 104.949 142.96 98.2785 142.96H25.6385C18.9785 142.96 13.5685 137.56 13.5685 130.87V41.98C13.5685 35.32 18.9685 29.91 25.6385 29.91H98.2785C104.939 29.92 110.349 35.32 110.349 41.98Z" fill="#E82303"/>
<path d="M101.809 38.38V120.39C101.809 126.54 96.8185 131.53 90.6685 131.53H23.6685C19.1885 131.53 15.3485 128.89 13.5685 125.08V41.98C13.5685 35.32 18.9685 29.91 25.6385 29.91H97.9285C100.289 31.97 101.809 34.98 101.809 38.38Z" fill="#FF4200"/>
<path d="M41.7286 63.7C41.7286 63.7 49.4386 60.3 56.1286 62.67C56.1286 62.67 56.3486 51.26 50.4686 49.27C44.5986 47.28 39.6886 54.03 41.7286 63.7Z" fill="black"/>
<path d="M59.5386 76.48C59.5386 76.48 60.8886 81.34 64.8286 82.13C68.7686 82.92 70.2186 80.12 70.2186 80.12" stroke="black" stroke-width="2.5605" stroke-miterlimit="10" stroke-linecap="round"/>
<path d="M72.2786 62.67C72.2786 62.67 81.2986 54.74 88.9186 63.13" stroke="black" stroke-width="2.5605" stroke-miterlimit="10" stroke-linecap="round"/>
<path d="M47.9086 53.8C47.9086 54.41 47.7886 55 47.5586 55.47C47.2686 55.44 46.9386 55.4 46.6186 55.4C45.8786 55.4 45.1486 55.5 44.4386 55.71C44.1186 55.2 43.9386 54.55 43.9386 53.8C43.9386 52.2 44.8186 50.9 45.9086 50.9C47.0286 50.9 47.9086 52.2 47.9086 53.8Z" fill="#D1D3D4"/>
<path d="M22.2586 55.71C22.2586 55.71 24.1586 61.49 21.3586 64.91" stroke="black" stroke-width="5.9153" stroke-miterlimit="10" stroke-linecap="round"/>
<path d="M28.3986 69.96C28.3986 69.96 27.1886 66.33 21.0986 70.77" stroke="black" stroke-width="13.8024" stroke-miterlimit="10" stroke-linecap="round"/>
<path d="M50.0786 112.96V106.98H51.4786V107.72C51.6486 107.44 51.8786 107.23 52.1686 107.08C52.4586 106.93 52.8186 106.86 53.2286 106.86C53.6386 106.86 53.9886 106.94 54.2886 107.11C54.5886 107.28 54.8186 107.52 54.9786 107.82C55.1686 107.5 55.4286 107.26 55.7586 107.09C56.0986 106.93 56.4886 106.85 56.9386 106.85C57.6386 106.85 58.1786 107.05 58.5586 107.44C58.9486 107.83 59.1385 108.43 59.1385 109.25V112.97H57.6786V109.47C57.6786 109.01 57.5886 108.67 57.4086 108.45C57.2286 108.23 56.9686 108.12 56.6186 108.12C56.1986 108.12 55.8886 108.27 55.6686 108.58C55.4486 108.89 55.3386 109.32 55.3386 109.88V112.97H53.8786V109.47C53.8786 109.01 53.7886 108.67 53.6086 108.45C53.4286 108.23 53.1686 108.12 52.8186 108.12C52.3986 108.12 52.0786 108.27 51.8686 108.58C51.6586 108.89 51.5486 109.32 51.5486 109.88V112.97H50.0786V112.96Z" fill="#D1D3D4"/>
<path d="M62.1385 113.08C61.7185 113.08 61.3385 113.01 60.9985 112.88C60.6585 112.74 60.3985 112.54 60.2185 112.28C60.0285 112.01 59.9385 111.68 59.9385 111.29C59.9385 110.89 60.0285 110.57 60.2185 110.32C60.4085 110.07 60.6685 109.87 61.0085 109.73C61.3485 109.59 61.7285 109.49 62.1385 109.44L64.1585 109.19C64.1085 108.8 63.9485 108.52 63.6785 108.34C63.4085 108.16 63.0885 108.07 62.7185 108.07C62.4385 108.07 62.1485 108.12 61.8485 108.23C61.5485 108.34 61.2185 108.51 60.8485 108.75L60.3685 107.67C60.7285 107.41 61.1085 107.21 61.5185 107.07C61.9285 106.93 62.3485 106.86 62.7885 106.86C63.7185 106.86 64.4285 107.07 64.9185 107.48C65.3985 107.89 65.6485 108.51 65.6485 109.33V112.97H64.2485V112.18C64.0185 112.49 63.7285 112.72 63.3885 112.87C63.0285 113.01 62.6185 113.08 62.1385 113.08ZM62.5385 111.91C62.8885 111.91 63.1785 111.84 63.4185 111.71C63.6585 111.57 63.8485 111.39 63.9685 111.16C64.0985 110.93 64.1585 110.69 64.1585 110.43V110.21L62.5785 110.41C62.1785 110.45 61.8785 110.54 61.6785 110.66C61.4785 110.78 61.3785 110.96 61.3785 111.2C61.3785 111.43 61.4785 111.6 61.6785 111.72C61.8985 111.85 62.1785 111.91 62.5385 111.91Z" fill="#D1D3D4"/>
<path d="M68.9086 113.08C68.4586 113.08 68.0286 113.01 67.6086 112.88C67.1886 112.74 66.7986 112.55 66.4286 112.29L66.9586 111.2C67.3386 111.45 67.6986 111.63 68.0286 111.75C68.3586 111.87 68.6686 111.93 68.9486 111.93C69.3286 111.93 69.6186 111.88 69.7986 111.77C69.9886 111.66 70.0786 111.5 70.0786 111.27C70.0786 111.09 70.0186 110.95 69.8986 110.86C69.7786 110.76 69.5686 110.69 69.2686 110.64L68.3486 110.47C67.7686 110.36 67.3386 110.17 67.0486 109.9C66.7586 109.63 66.6186 109.28 66.6186 108.84C66.6186 108.48 66.7086 108.14 66.8786 107.84C67.0486 107.54 67.3186 107.3 67.6786 107.12C68.0386 106.94 68.4986 106.85 69.0586 106.85C69.4886 106.85 69.8986 106.91 70.2886 107.03C70.6786 107.15 71.0286 107.32 71.3486 107.53L70.8386 108.59C70.5586 108.42 70.2686 108.28 69.9786 108.17C69.6886 108.06 69.3986 108 69.1086 108C68.7886 108 68.5386 108.05 68.3486 108.15C68.1686 108.25 68.0786 108.41 68.0786 108.63C68.0786 108.77 68.1386 108.89 68.2586 108.98C68.3786 109.07 68.5686 109.14 68.8286 109.19L69.7486 109.36C70.3386 109.47 70.7786 109.66 71.0886 109.93C71.3986 110.2 71.5486 110.59 71.5486 111.09C71.5486 111.67 71.3286 112.14 70.8886 112.52C70.4386 112.9 69.7786 113.08 68.9086 113.08Z" fill="#D1D3D4"/>
<path d="M74.9785 113.03C74.2885 113.03 73.7885 112.88 73.4785 112.58C73.1685 112.28 73.0185 111.81 73.0185 111.16V108.18H71.7285V106.97H73.0185V105.26H74.4585V106.97H75.9885V108.18H74.4585V111.01C74.4585 111.28 74.5285 111.49 74.6585 111.62C74.7985 111.76 74.9985 111.82 75.2785 111.82C75.3785 111.82 75.4985 111.82 75.6385 111.81C75.7785 111.8 75.8885 111.79 75.9785 111.77V112.92C75.8485 112.95 75.6985 112.98 75.5185 113C75.3385 113.02 75.1585 113.03 74.9785 113.03Z" fill="#D1D3D4"/>
<path d="M79.6385 113.08C79.0285 113.08 78.4785 112.96 77.9885 112.72C77.4985 112.48 77.1085 112.13 76.8185 111.67C76.5285 111.21 76.3885 110.64 76.3885 109.96C76.3885 109.32 76.5185 108.77 76.7885 108.31C77.0585 107.84 77.4185 107.48 77.8885 107.23C78.3585 106.98 78.8785 106.85 79.4585 106.85C80.0485 106.85 80.5685 106.96 81.0085 107.19C81.4485 107.41 81.7885 107.72 82.0285 108.11C82.2685 108.5 82.3885 108.95 82.3885 109.45C82.3885 109.59 82.3686 109.76 82.3286 109.93C82.2886 110.11 82.2385 110.26 82.1785 110.38H77.8385C77.8785 110.7 77.9885 110.98 78.1585 111.2C78.3285 111.42 78.5485 111.59 78.8185 111.71C79.0885 111.82 79.4085 111.88 79.7885 111.88C80.1585 111.88 80.4985 111.82 80.7985 111.71C81.0985 111.6 81.3885 111.44 81.6685 111.25L82.1285 112.29C81.7885 112.55 81.4086 112.75 80.9986 112.89C80.5886 113.02 80.1285 113.08 79.6385 113.08ZM77.8385 109.33H80.8885C80.8985 109.31 80.8985 109.3 80.9085 109.28C80.9085 109.26 80.9185 109.24 80.9185 109.2C80.9185 108.96 80.8586 108.75 80.7486 108.58C80.6386 108.4 80.4785 108.26 80.2685 108.17C80.0585 108.07 79.7986 108.02 79.4686 108.02C79.1986 108.02 78.9485 108.07 78.7285 108.18C78.5085 108.29 78.3185 108.44 78.1585 108.64C78.0185 108.83 77.9085 109.07 77.8385 109.33Z" fill="#D1D3D4"/>
<path d="M83.1786 112.96V106.98H84.5786V107.97C84.7386 107.6 84.9586 107.33 85.2386 107.16C85.5186 106.99 85.8286 106.91 86.1786 106.91C86.2886 106.91 86.3886 106.92 86.4886 106.93C86.5886 106.94 86.6586 106.96 86.7086 106.99V108.38C86.5886 108.35 86.4686 108.33 86.3486 108.32C86.2286 108.3 86.1186 108.29 86.0086 108.29C85.6186 108.29 85.2886 108.44 85.0286 108.75C84.7686 109.06 84.6386 109.5 84.6386 110.08V112.97H83.1786V112.96Z" fill="#D1D3D4"/>
<path d="M53.5086 122.52C53.0286 122.52 52.6086 122.43 52.2786 122.25C51.9386 122.07 51.6786 121.83 51.4886 121.52V122.39H50.0886V113.89H51.5486V117.19C51.7386 116.91 51.9986 116.69 52.3286 116.53C52.6586 116.37 53.0586 116.29 53.5086 116.29C54.0486 116.29 54.5386 116.42 54.9686 116.67C55.3986 116.92 55.7386 117.28 55.9886 117.75C56.2386 118.22 56.3686 118.77 56.3686 119.42C56.3686 120.06 56.2386 120.62 55.9886 121.09C55.7386 121.56 55.3886 121.92 54.9686 122.17C54.5386 122.4 54.0486 122.52 53.5086 122.52ZM53.1786 121.26C53.5186 121.26 53.8186 121.19 54.0686 121.04C54.3186 120.89 54.5186 120.68 54.6586 120.4C54.7986 120.12 54.8686 119.79 54.8686 119.41C54.8686 119.03 54.7986 118.7 54.6486 118.42C54.5086 118.14 54.2986 117.93 54.0486 117.78C53.7886 117.63 53.4986 117.55 53.1786 117.55C52.8486 117.55 52.5486 117.63 52.2986 117.78C52.0386 117.93 51.8386 118.15 51.6986 118.42C51.5586 118.7 51.4886 119.02 51.4886 119.41C51.4886 119.79 51.5586 120.12 51.6986 120.4C51.8386 120.68 52.0386 120.89 52.2986 121.04C52.5486 121.19 52.8386 121.26 53.1786 121.26Z" fill="#D1D3D4"/>
<path d="M59.1086 122.52C58.6886 122.52 58.3086 122.45 57.9686 122.32C57.6286 122.18 57.3686 121.98 57.1886 121.72C56.9986 121.45 56.9086 121.12 56.9086 120.73C56.9086 120.33 56.9986 120.01 57.1886 119.76C57.3786 119.51 57.6386 119.31 57.9786 119.17C58.3186 119.03 58.6986 118.93 59.1086 118.88L61.1286 118.63C61.0786 118.24 60.9186 117.96 60.6486 117.78C60.3786 117.6 60.0586 117.51 59.6886 117.51C59.4086 117.51 59.1186 117.56 58.8186 117.67C58.5186 117.78 58.1886 117.95 57.8186 118.19L57.3386 117.11C57.6986 116.85 58.0786 116.65 58.4886 116.51C58.8986 116.37 59.3186 116.3 59.7586 116.3C60.6886 116.3 61.3986 116.51 61.8886 116.92C62.3686 117.33 62.6186 117.95 62.6186 118.77V122.41H61.2186V121.63C60.9886 121.94 60.6986 122.17 60.3586 122.32C59.9986 122.45 59.5886 122.52 59.1086 122.52ZM59.5086 121.35C59.8586 121.35 60.1486 121.28 60.3886 121.15C60.6286 121.01 60.8186 120.83 60.9386 120.6C61.0686 120.37 61.1286 120.13 61.1286 119.87V119.65L59.5486 119.85C59.1486 119.89 58.8486 119.98 58.6486 120.1C58.4486 120.22 58.3486 120.4 58.3486 120.64C58.3486 120.87 58.4486 121.04 58.6486 121.16C58.8686 121.29 59.1486 121.35 59.5086 121.35Z" fill="#D1D3D4"/>
<path d="M66.4485 124.84C65.9385 124.84 65.4685 124.76 65.0185 124.61C64.5785 124.46 64.1485 124.22 63.7485 123.9L64.2285 122.83C64.6185 123.12 64.9885 123.32 65.3485 123.43C65.7085 123.54 66.0485 123.6 66.3685 123.6C66.9585 123.6 67.4285 123.45 67.7785 123.14C68.1185 122.83 68.2985 122.37 68.2985 121.77V121.29C68.0985 121.54 67.8385 121.75 67.4985 121.91C67.1585 122.07 66.7785 122.15 66.3385 122.15C65.8285 122.15 65.3585 122.04 64.9185 121.81C64.4785 121.58 64.1285 121.25 63.8685 120.81C63.6085 120.37 63.4785 119.84 63.4785 119.23C63.4785 118.6 63.6085 118.07 63.8685 117.64C64.1285 117.21 64.4785 116.88 64.9185 116.65C65.3585 116.42 65.8285 116.31 66.3385 116.31C66.8185 116.31 67.2185 116.4 67.5585 116.58C67.8985 116.76 68.1585 116.99 68.3485 117.27V116.44H69.7385V121.56C69.7385 122.27 69.6085 122.88 69.3485 123.37C69.0885 123.86 68.7085 124.24 68.2185 124.49C67.7285 124.71 67.1385 124.84 66.4485 124.84ZM66.6585 120.93C66.9685 120.93 67.2585 120.86 67.5085 120.73C67.7585 120.59 67.9685 120.4 68.1085 120.15C68.2585 119.9 68.3285 119.59 68.3285 119.21C68.3285 118.84 68.2585 118.52 68.1085 118.27C67.9585 118.02 67.7585 117.83 67.5085 117.69C67.2585 117.55 66.9685 117.49 66.6585 117.49C66.3485 117.49 66.0585 117.56 65.7985 117.69C65.5385 117.83 65.3385 118.02 65.1785 118.27C65.0285 118.52 64.9485 118.83 64.9485 119.21C64.9485 119.58 65.0285 119.9 65.1785 120.15C65.3285 120.4 65.5385 120.59 65.7985 120.73C66.0485 120.86 66.3385 120.93 66.6585 120.93Z" fill="#D1D3D4"/>
<path d="M72.7986 122.52C72.3786 122.52 71.9986 122.45 71.6586 122.32C71.3186 122.18 71.0586 121.98 70.8786 121.72C70.6886 121.45 70.5986 121.12 70.5986 120.73C70.5986 120.33 70.6886 120.01 70.8786 119.76C71.0686 119.51 71.3286 119.31 71.6686 119.17C72.0086 119.03 72.3886 118.93 72.7986 118.88L74.8186 118.63C74.7686 118.24 74.6086 117.96 74.3386 117.78C74.0686 117.6 73.7486 117.51 73.3786 117.51C73.0986 117.51 72.8086 117.56 72.5086 117.67C72.2086 117.78 71.8786 117.95 71.5086 118.19L71.0286 117.11C71.3886 116.85 71.7686 116.65 72.1786 116.51C72.5886 116.37 73.0086 116.3 73.4486 116.3C74.3786 116.3 75.0886 116.51 75.5786 116.92C76.0586 117.33 76.3086 117.95 76.3086 118.77V122.41H74.9086V121.63C74.6786 121.94 74.3886 122.17 74.0486 122.32C73.6986 122.45 73.2886 122.52 72.7986 122.52ZM73.2086 121.35C73.5586 121.35 73.8486 121.28 74.0886 121.15C74.3286 121.01 74.5186 120.83 74.6386 120.6C74.7686 120.37 74.8286 120.13 74.8286 119.87V119.65L73.2486 119.85C72.8486 119.89 72.5486 119.98 72.3486 120.1C72.1486 120.22 72.0486 120.4 72.0486 120.64C72.0486 120.87 72.1486 121.04 72.3486 121.16C72.5586 121.29 72.8486 121.35 73.2086 121.35Z" fill="#D1D3D4"/>
<path d="M79.6485 122.52C79.1985 122.52 78.7685 122.45 78.3485 122.32C77.9285 122.18 77.5385 121.99 77.1685 121.73L77.6985 120.64C78.0785 120.89 78.4385 121.07 78.7685 121.19C79.0985 121.31 79.4086 121.37 79.6886 121.37C80.0686 121.37 80.3585 121.32 80.5385 121.21C80.7285 121.1 80.8185 120.94 80.8185 120.71C80.8185 120.53 80.7585 120.39 80.6385 120.3C80.5185 120.2 80.3085 120.13 80.0085 120.08L79.0885 119.91C78.5085 119.8 78.0785 119.61 77.7885 119.34C77.4985 119.07 77.3586 118.72 77.3586 118.28C77.3586 117.92 77.4485 117.58 77.6185 117.28C77.7885 116.98 78.0585 116.74 78.4185 116.56C78.7785 116.38 79.2385 116.29 79.7985 116.29C80.2285 116.29 80.6385 116.35 81.0285 116.47C81.4185 116.59 81.7685 116.76 82.0885 116.97L81.5786 118.03C81.2986 117.86 81.0086 117.72 80.7186 117.61C80.4286 117.5 80.1385 117.44 79.8485 117.44C79.5285 117.44 79.2685 117.49 79.0885 117.59C78.9085 117.69 78.8185 117.85 78.8185 118.07C78.8185 118.21 78.8786 118.33 78.9986 118.42C79.1186 118.51 79.3085 118.58 79.5685 118.63L80.4885 118.8C81.0785 118.91 81.5186 119.1 81.8286 119.37C82.1386 119.64 82.2885 120.03 82.2885 120.53C82.2885 121.11 82.0685 121.58 81.6285 121.96C81.1785 122.34 80.5285 122.52 79.6485 122.52Z" fill="#D1D3D4"/>
<path d="M83.8786 115.33C83.6186 115.33 83.4086 115.25 83.2586 115.1C83.1086 114.95 83.0286 114.75 83.0286 114.5C83.0286 114.26 83.1086 114.07 83.2586 113.92C83.4086 113.77 83.6186 113.7 83.8786 113.7C84.1286 113.7 84.3386 113.77 84.4986 113.92C84.6586 114.07 84.7386 114.27 84.7386 114.51C84.7386 114.75 84.6586 114.94 84.4986 115.1C84.3386 115.26 84.1286 115.33 83.8786 115.33ZM83.1486 122.4V116.42H84.6086V122.4H83.1486Z" fill="#D1D3D4"/>
<path d="M46.1886 106.99V116.92C46.1886 117.6 45.9186 118.26 45.4386 118.74L43.2586 120.92V109.93H32.2686L34.4486 107.74C34.9286 107.26 35.5786 106.99 36.2586 106.99H46.1886V106.99Z" fill="#D1D3D4"/>
<path d="M32.3386 111.4C31.4886 111.4 30.7986 112.08 30.7986 112.93V122.4H40.2486C41.0986 122.4 41.7886 121.71 41.7886 120.86V111.41H32.3386V111.4ZM41.0286 120.85C41.0286 121.27 40.6786 121.61 40.2486 121.61H31.5686L41.0186 112.16V120.85H41.0286Z" fill="#D1D3D4"/>
<path d="M40.6586 31.76V19.95C40.6586 15.17 44.5286 11.3 49.3086 11.3H74.6186C79.3986 11.3 83.2686 15.17 83.2686 19.95V31.76" stroke="black" stroke-width="5.121" stroke-miterlimit="10" stroke-linecap="round"/>
<path d="M52.4986 11.3H71.4186" stroke="black" stroke-width="10.242" stroke-miterlimit="10" stroke-linecap="round"/>
<path d="M110.349 41.98V130.87C110.349 137.55 104.949 142.96 98.2785 142.96H25.6385C18.9785 142.96 13.5685 137.56 13.5685 130.87V41.98C13.5685 35.32 18.9685 29.91 25.6385 29.91H98.2785C104.939 29.92 110.349 35.32 110.349 41.98Z" fill="#E82303"/>
<path d="M101.809 38.38V120.39C101.809 126.54 96.8185 131.53 90.6685 131.53H23.6685C19.1885 131.53 15.3485 128.89 13.5685 125.08V41.98C13.5685 35.32 18.9685 29.91 25.6385 29.91H97.9285C100.289 31.97 101.809 34.98 101.809 38.38Z" fill="#FF4200"/>
<path d="M93.0908 162.224C98.2127 161.312 101.169 153.859 99.694 145.578C98.219 137.297 92.8712 131.324 87.7492 132.236C82.6273 133.148 79.671 140.601 81.146 148.882C82.621 157.163 87.9689 163.136 93.0908 162.224Z" fill="black"/>
<path d="M18 95C18 95 5 90 7.5 69.5" stroke="black" stroke-width="10.242" stroke-miterlimit="10" stroke-linecap="round"/>
<path d="M42.8573 80.4299C42.8573 80.4299 50.2431 93.132 63.0681 92.5047C75.8931 91.8774 78.5983 82.9473 78.5983 82.9473" stroke="black" stroke-width="2.5605" stroke-miterlimit="10" stroke-linecap="round"/>
<path d="M71 63.392C71 63.392 80.02 55.462 87.64 63.852" stroke="black" stroke-width="2.5605" stroke-miterlimit="10" stroke-linecap="round"/>
<path d="M71 63.392C71 63.392 76.5 49.5 87.5 56" stroke="black" stroke-width="2.5605" stroke-miterlimit="10" stroke-linecap="round"/>
<path d="M4.82615 50.2499C4.82615 50.2499 8.86324 54.8018 7.64975 59.052" stroke="black" stroke-width="5.9153" stroke-miterlimit="10" stroke-linecap="round"/>
<path d="M16.1155 60.8948C16.1155 60.8948 13.5647 58.0426 9.73583 64.5343" stroke="black" stroke-width="13.8024" stroke-miterlimit="10" stroke-linecap="round"/>
<path d="M70 106.99V119.894C70 120.778 69.6491 121.636 69.0253 122.26L66.1923 125.093V110.811H51.9103L54.7433 107.965C55.3671 107.341 56.2118 106.99 57.0955 106.99H70V106.99Z" fill="#FFA573"/>
<path d="M52.0013 112.721C50.8967 112.721 50 113.605 50 114.709V127.016H62.2807C63.3853 127.016 64.282 126.119 64.282 125.015V112.734H52.0013V112.721ZM63.2944 125.002C63.2944 125.547 62.8395 125.989 62.2807 125.989H51.0006L63.2814 113.709V125.002H63.2944Z" fill="#FFA573"/>
<path d="M40.7948 57.1C41.0044 54.2253 43.3978 52 46.2802 52H47.7198C50.6021 52 52.9956 54.2253 53.2052 57.1L54 68L51.3278 67.0402C50.9889 66.9185 50.6388 66.8303 50.2826 66.777L47.8141 66.4075C47.2744 66.3268 46.7256 66.3268 46.1859 66.4075L43.7174 66.777C43.3612 66.8303 43.0111 66.9185 42.6722 67.0402L40 68L40.7948 57.1Z" fill="black"/>
<circle cx="45.5" cy="56.5" r="2.5" fill="white"/>
<path d="M101.779 79.4971C101.779 79.4971 120.728 81.8077 122.662 100.831" stroke="black" stroke-width="10.242" stroke-miterlimit="10" stroke-linecap="round"/>
</svg>
