<svg width="87" height="87" viewBox="0 0 87 87" fill="none" xmlns="http://www.w3.org/2000/svg">
<path d="M32.96 15.97V9.98003C32.96 7.56003 34.92 5.59003 37.35 5.59003H50.19C52.61 5.59003 54.58 7.55003 54.58 9.98003V15.97" stroke="#FF4200" stroke-width="2.5972" stroke-miterlimit="10" stroke-linecap="round"/>
<path d="M38.96 5.59998H48.56" stroke="#FF4200" stroke-width="5.1943" stroke-miterlimit="10" stroke-linecap="round"/>
<path d="M61.72 72.37H24.89C21.51 72.37 18.77 69.63 18.77 66.25V21.16C18.77 17.78 21.51 15.04 24.89 15.04H61.72C65.1 15.04 67.84 17.78 67.84 21.16V66.24C67.85 69.62 65.11 72.37 61.72 72.37Z" fill="#231F20"/>
<path d="M63.52 19.33V60.92C63.52 64.04 60.99 66.57 57.87 66.57H23.89C21.62 66.57 19.67 65.23 18.77 63.3V21.16C18.77 17.78 21.51 15.04 24.89 15.04H61.55C62.75 16.08 63.52 17.61 63.52 19.33Z" fill="black"/>
<path d="M61.88 80.13C58.48 82.7 54.43 83.08 52.84 80.98C51.25 78.87 52.72 75.08 56.12 72.51C59.52 69.94 63.57 69.56 65.16 71.66C66.75 73.76 65.28 77.56 61.88 80.13Z" fill="#FF4200"/>
<path d="M33.13 73.73C35.44 77.32 35.51 81.38 33.29 82.81C31.07 84.24 27.4 82.49 25.09 78.9C22.78 75.31 22.71 71.25 24.93 69.82C27.15 68.39 30.83 70.14 33.13 73.73Z" fill="#FF4200"/>
<path d="M42.23 45.25C43.9863 45.25 45.41 43.8263 45.41 42.07C45.41 40.3137 43.9863 38.89 42.23 38.89C40.4737 38.89 39.05 40.3137 39.05 42.07C39.05 43.8263 40.4737 45.25 42.23 45.25Z" fill="white"/>
<path d="M62.2 20.63L57.25 26.55H62.3699V28.27H54.95V26.62L55.0099 26.55L59.9599 20.63H54.95V18.9H62.3699V20.42L62.2 20.63Z" fill="#A7A9AC"/>
<path d="M54.48 17.28L50.74 21.74H54.6V23.04H49.01V21.79L49.05 21.74L52.79 17.28H49.01V15.97H54.6V17.12L54.48 17.28Z" fill="#A7A9AC"/>
<path d="M47.69 21.3L45.14 24.34H47.77V25.22H43.96V24.38L43.99 24.34L46.54 21.3H43.96V20.41H47.77V21.19L47.69 21.3Z" fill="#A7A9AC"/>
<path d="M32.96 32.67C32.96 32.67 35.19 34.54 37.78 32.67" stroke="white" stroke-width="2" stroke-miterlimit="10" stroke-linecap="round"/>
<path d="M47.35 32.67C47.35 32.67 49.58 34.54 52.17 32.67" stroke="white" stroke-width="2" stroke-miterlimit="10" stroke-linecap="round"/>
<path d="M12 18.22C12 18.22 18.44 27.18 18.44 40.47" stroke="#FF4200" stroke-width="5.1943" stroke-miterlimit="10" stroke-linecap="round"/>
<path d="M72.46 18.22C72.46 18.22 66.02 27.18 66.02 40.47" stroke="#FF4200" stroke-width="5.1943" stroke-miterlimit="10" stroke-linecap="round"/>
<path d="M49.97 52.19V60.79C49.97 61.38 49.74 61.95 49.32 62.37L47.44 64.25V54.73H37.92L39.8 52.83C40.22 52.41 40.78 52.18 41.37 52.18H49.97V52.19Z" fill="#FF4200"/>
<path d="M37.98 56.01C37.25 56.01 36.65 56.6 36.65 57.33V65.53H44.84C45.57 65.53 46.17 64.93 46.17 64.2V56.01H37.98ZM45.5 64.19C45.5 64.56 45.19 64.85 44.83 64.85H37.32L45.51 56.66V64.19H45.5Z" fill="#FF4200"/>
</svg>
