<svg width="87" height="87" viewBox="0 0 87 87" fill="none" xmlns="http://www.w3.org/2000/svg">
<path d="M32.96 15.97V9.98003C32.96 7.56003 34.92 5.59003 37.35 5.59003H50.19C52.61 5.59003 54.58 7.55003 54.58 9.98003V15.97" stroke="#FF4200" stroke-width="2.5972" stroke-miterlimit="10" stroke-linecap="round"/>
<path d="M38.96 5.59998H48.56" stroke="#FF4200" stroke-width="5.1943" stroke-miterlimit="10" stroke-linecap="round"/>
<path d="M61.72 72.37H24.89C21.51 72.37 18.77 69.63 18.77 66.25V21.16C18.77 17.78 21.51 15.04 24.89 15.04H61.72C65.1 15.04 67.84 17.78 67.84 21.16V66.24C67.85 69.62 65.11 72.37 61.72 72.37Z" fill="#231F20"/>
<path d="M63.52 19.33V60.92C63.52 64.04 60.99 66.57 57.87 66.57H23.89C21.62 66.57 19.67 65.23 18.77 63.3V21.16C18.77 17.78 21.51 15.04 24.89 15.04H61.55C62.75 16.08 63.52 17.61 63.52 19.33Z" fill="black"/>
<path d="M61.681 82.8265C58.281 85.3965 54.231 85.7765 52.641 83.6765C51.051 81.5665 52.521 77.7765 55.921 75.2065C59.321 72.6365 63.371 72.2565 64.961 74.3565C66.551 76.4565 65.081 80.2565 61.681 82.8265Z" fill="#FF4200"/>
<path d="M28.8198 74.4087C31.1298 77.9987 31.1998 82.0587 28.9798 83.4887C26.7598 84.9187 23.0898 83.1687 20.7798 79.5787C18.4698 75.9887 18.3998 71.9287 20.6198 70.4987C22.8398 69.0687 26.5198 70.8187 28.8198 74.4087Z" fill="#FF4200"/>
<path d="M42 45C45.866 45 49 43.6569 49 42C49 40.3431 45.866 39 42 39C38.134 39 35 40.3431 35 42C35 43.6569 38.134 45 42 45Z" fill="white"/>
<path d="M62.25 15.73L57.3 21.65H62.42V23.37H55V21.72L55.06 21.65L60.01 15.73H55V14H62.42V15.52L62.25 15.73Z" fill="#A7A9AC"/>
<path d="M54.47 19.31L50.73 23.77H54.59V25.07H49V23.82L49.04 23.77L52.78 19.31H49V18H54.59V19.15L54.47 19.31Z" fill="#A7A9AC"/>
<path d="M47.73 18.89L45.18 21.93H47.81V22.81H44V21.97L44.03 21.93L46.58 18.89H44V18H47.81V18.78L47.73 18.89Z" fill="#A7A9AC"/>
<path d="M32.96 31.6699C32.96 31.6699 35.19 33.5399 37.78 31.6699" stroke="white" stroke-width="2" stroke-miterlimit="10" stroke-linecap="round"/>
<path d="M47.35 31.6699C47.35 31.6699 49.58 33.5399 52.17 31.6699" stroke="white" stroke-width="2" stroke-miterlimit="10" stroke-linecap="round"/>
<path d="M7.49329 24.0583C7.49329 24.0583 15.846 31.2685 18.9468 44.1917" stroke="#FF4200" stroke-width="5.1943" stroke-miterlimit="10" stroke-linecap="round"/>
<path d="M77.2314 23.6838C77.2314 23.6838 69.4013 31.4584 67.2085 44.5662" stroke="#FF4200" stroke-width="5.1943" stroke-miterlimit="10" stroke-linecap="round"/>
<path d="M49.97 52.19V60.79C49.97 61.38 49.74 61.95 49.32 62.37L47.44 64.25V54.73H37.92L39.8 52.83C40.22 52.41 40.78 52.18 41.37 52.18H49.97V52.19Z" fill="#FF4200"/>
<path d="M37.98 56.01C37.25 56.01 36.65 56.6 36.65 57.33V65.53H44.84C45.57 65.53 46.17 64.93 46.17 64.2V56.01H37.98ZM45.5 64.19C45.5 64.56 45.19 64.85 44.83 64.85H37.32L45.51 56.66V64.19H45.5Z" fill="#FF4200"/>
</svg>
