<svg width="87" height="87" viewBox="0 0 87 87" fill="none" xmlns="http://www.w3.org/2000/svg">
<path d="M33.79 15.97V9.98003C33.79 7.56003 35.75 5.59003 38.18 5.59003H51.02C53.44 5.59003 55.41 7.55003 55.41 9.98003V15.97" stroke="black" stroke-width="2.5972" stroke-miterlimit="10" stroke-linecap="round"/>
<path d="M39.79 5.59998H49.39" stroke="black" stroke-width="5.1943" stroke-miterlimit="10" stroke-linecap="round"/>
<path d="M69.13 21.16V66.24C69.13 69.63 66.39 72.37 63.01 72.37H26.17C22.79 72.37 20.05 69.63 20.05 66.24V21.16C20.05 17.78 22.79 15.04 26.17 15.04H63.01C66.39 15.04 69.13 17.78 69.13 21.16Z" fill="#E82303"/>
<path d="M64.8 19.33V60.92C64.8 64.04 62.27 66.57 59.15 66.57H25.17C22.9 66.57 20.95 65.23 20.05 63.3V21.16C20.05 17.78 22.79 15.04 26.17 15.04H62.83C64.03 16.08 64.8 17.61 64.8 19.33Z" fill="#FF4200"/>
<path d="M65.0288 75.7931C65.4968 80.0318 63.7584 83.7115 61.1415 84.0024C58.5246 84.2933 56.0087 81.094 55.5328 76.8616C55.057 72.6292 56.8031 68.9432 59.4201 68.6523C62.0448 68.3552 64.5545 71.5467 65.0288 75.7931Z" fill="black"/>
<path d="M32.8149 76.2901C32.6304 80.5549 30.3391 83.9154 27.7065 83.8029C25.0739 83.6903 23.0789 80.1394 23.2707 75.8813C23.4552 71.6165 25.7465 68.2559 28.3791 68.3685C31.0184 68.4736 32.9993 72.0253 32.8149 76.2901Z" fill="black"/>
<path d="M31.61 32.78C33.24 33.39 34.75 33.93 36.22 33.99C36.95 34.04 37.67 33.95 38.4 33.73C39.14 33.55 39.84 33.16 40.67 32.79L40.7 32.78C40.83 32.72 40.98 32.78 41.04 32.91C41.07 32.99 41.07 33.07 41.03 33.14C40.58 33.95 39.93 34.7 39.05 35.17C38.2 35.68 37.16 35.94 36.15 35.88C35.14 35.84 34.18 35.53 33.35 35.06C32.52 34.58 31.8 33.97 31.29 33.15C31.21 33.03 31.25 32.87 31.37 32.79C31.44 32.75 31.53 32.74 31.6 32.77L31.61 32.78Z" fill="black"/>
<path d="M46.3 32.78C47.93 33.39 49.44 33.93 50.91 33.99C51.64 34.04 52.36 33.95 53.09 33.73C53.83 33.55 54.53 33.16 55.36 32.79L55.39 32.78C55.52 32.72 55.67 32.78 55.73 32.91C55.76 32.99 55.76 33.07 55.72 33.14C55.27 33.95 54.62 34.7 53.74 35.17C52.89 35.68 51.85 35.94 50.84 35.88C49.83 35.84 48.87 35.53 48.04 35.06C47.21 34.58 46.49 33.97 45.98 33.15C45.9 33.03 45.94 32.87 46.06 32.79C46.13 32.75 46.22 32.74 46.29 32.77L46.3 32.78Z" fill="black"/>
<path d="M43.5 43C44.3284 43 45 42.5523 45 42C45 41.4477 44.3284 41 43.5 41C42.6716 41 42 41.4477 42 42C42 42.5523 42.6716 43 43.5 43Z" fill="black"/>
<path d="M64.25 18.73L59.3 24.65H64.42V26.37H57V24.72L57.06 24.65L62.01 18.73H57V17H64.42V18.52L64.25 18.73Z" fill="white"/>
<path d="M55.47 19.31L51.74 23.77H55.6V25.07H50V23.82L50.05 23.77L53.78 19.31H50V18H55.6V19.15L55.47 19.31Z" fill="white"/>
<path d="M48.73 18.89L46.19 21.93H48.82V22.81H45V21.97L45.03 21.93L47.58 18.89H45V18H48.82V18.78L48.73 18.89Z" fill="white"/>
<path d="M49.26 21.19V21.3H49.17L49.26 21.19Z" fill="white"/>
<path d="M45.47 24.34L45.44 24.38V24.34H45.47Z" fill="white"/>
<path d="M10 12C10 12 16.44 20.96 16.44 34.25" stroke="black" stroke-width="5.1943" stroke-miterlimit="10" stroke-linecap="round"/>
<path d="M77.44 13C77.44 13 71 21.96 71 35.25" stroke="black" stroke-width="5.1943" stroke-miterlimit="10" stroke-linecap="round"/>
<path d="M50.38 52.19V60.79C50.38 61.38 50.15 61.95 49.73 62.37L47.85 64.25V54.73H38.33L40.21 52.83C40.63 52.41 41.19 52.18 41.78 52.18H50.38V52.19Z" fill="white"/>
<path d="M38.39 56.01C37.66 56.01 37.06 56.6 37.06 57.33V65.53H45.25C45.98 65.53 46.58 64.93 46.58 64.2V56.01H38.39ZM45.91 64.19C45.91 64.56 45.6 64.85 45.24 64.85H37.73L45.92 56.66V64.19H45.91Z" fill="white"/>
</svg>
