<svg width="87" height="87" viewBox="0 0 87 87" fill="none" xmlns="http://www.w3.org/2000/svg">
<path d="M33.79 15.97V9.98003C33.79 7.56003 35.75 5.59003 38.18 5.59003H51.02C53.44 5.59003 55.41 7.55003 55.41 9.98003V15.97" stroke="black" stroke-width="2.5972" stroke-miterlimit="10" stroke-linecap="round"/>
<path d="M39.79 5.59998H49.39" stroke="black" stroke-width="5.1943" stroke-miterlimit="10" stroke-linecap="round"/>
<path d="M69.13 21.16V66.24C69.13 69.63 66.39 72.37 63.01 72.37H26.17C22.79 72.37 20.05 69.63 20.05 66.24V21.16C20.05 17.78 22.79 15.04 26.17 15.04H63.01C66.39 15.04 69.13 17.78 69.13 21.16Z" fill="#E82303"/>
<path d="M64.8 19.33V60.92C64.8 64.04 62.27 66.57 59.15 66.57H25.17C22.9 66.57 20.95 65.23 20.05 63.3V21.16C20.05 17.78 22.79 15.04 26.17 15.04H62.83C64.03 16.08 64.8 17.61 64.8 19.33Z" fill="#FF4200"/>
<path d="M64.33 78.86C62.06 82.47 58.41 84.27 56.18 82.87C53.95 81.47 53.97 77.4 56.23 73.79C58.49 70.18 62.15 68.38 64.38 69.78C66.62 71.18 66.6 75.24 64.33 78.86Z" fill="black"/>
<path d="M34.38 73.28C37.1 76.57 37.65 80.6 35.62 82.28C33.59 83.96 29.73 82.66 27.02 79.37C24.3 76.08 23.75 72.05 25.78 70.37C27.81 68.68 31.66 69.99 34.38 73.28Z" fill="black"/>
<path d="M31.61 31.78C33.24 32.39 34.75 32.93 36.22 32.99C36.95 33.04 37.67 32.95 38.4 32.73C39.14 32.55 39.84 32.16 40.67 31.79L40.7 31.78C40.83 31.72 40.98 31.78 41.04 31.91C41.07 31.99 41.07 32.07 41.03 32.14C40.58 32.95 39.93 33.7 39.05 34.17C38.2 34.68 37.16 34.94 36.15 34.88C35.14 34.84 34.18 34.53 33.35 34.06C32.52 33.58 31.8 32.97 31.29 32.15C31.21 32.03 31.25 31.87 31.37 31.79C31.44 31.75 31.53 31.74 31.6 31.77L31.61 31.78Z" fill="black"/>
<path d="M46.3 31.78C47.93 32.39 49.44 32.93 50.91 32.99C51.64 33.04 52.36 32.95 53.09 32.73C53.83 32.55 54.53 32.16 55.36 31.79L55.39 31.78C55.52 31.72 55.67 31.78 55.73 31.91C55.76 31.99 55.76 32.07 55.72 32.14C55.27 32.95 54.62 33.7 53.74 34.17C52.89 34.68 51.85 34.94 50.84 34.88C49.83 34.84 48.87 34.53 48.04 34.06C47.21 33.58 46.49 32.97 45.98 32.15C45.9 32.03 45.94 31.87 46.06 31.79C46.13 31.75 46.22 31.74 46.29 31.77L46.3 31.78Z" fill="black"/>
<path d="M43.72 45.25C45.4762 45.25 46.9 43.8263 46.9 42.07C46.9 40.3137 45.4762 38.89 43.72 38.89C41.9637 38.89 40.54 40.3137 40.54 42.07C40.54 43.8263 41.9637 45.25 43.72 45.25Z" fill="black"/>
<path d="M63.68 20.63L58.73 26.55H63.85V28.27H56.43V26.62L56.49 26.55L61.44 20.63H56.43V18.9H63.85V20.42L63.68 20.63Z" fill="white"/>
<path d="M55.96 17.28L52.23 21.74H56.09V23.04H50.49V21.79L50.54 21.74L54.27 17.28H50.49V15.97H56.09V17.12L55.96 17.28Z" fill="white"/>
<path d="M49.17 21.3L46.63 24.34H49.26V25.22H45.44V24.38L45.47 24.34L48.02 21.3H45.44V20.41H49.26V21.19L49.17 21.3Z" fill="white"/>
<path d="M49.26 21.19V21.3H49.17L49.26 21.19Z" fill="white"/>
<path d="M45.47 24.34L45.44 24.38V24.34H45.47Z" fill="white"/>
<path d="M12.6 18.22C12.6 18.22 19.04 27.18 19.04 40.47" stroke="black" stroke-width="5.1943" stroke-miterlimit="10" stroke-linecap="round"/>
<path d="M73.05 18.22C73.05 18.22 66.61 27.18 66.61 40.47" stroke="black" stroke-width="5.1943" stroke-miterlimit="10" stroke-linecap="round"/>
<path d="M50.38 52.19V60.79C50.38 61.38 50.15 61.95 49.73 62.37L47.85 64.25V54.73H38.33L40.21 52.83C40.63 52.41 41.19 52.18 41.78 52.18H50.38V52.19Z" fill="white"/>
<path d="M38.39 56.01C37.66 56.01 37.06 56.6 37.06 57.33V65.53H45.25C45.98 65.53 46.58 64.93 46.58 64.2V56.01H38.39ZM45.91 64.19C45.91 64.56 45.6 64.85 45.24 64.85H37.73L45.92 56.66V64.19H45.91Z" fill="white"/>
</svg>
