<svg width="116" height="33" viewBox="0 0 116 33" fill="none" xmlns="http://www.w3.org/2000/svg">
<path d="M27.8203 15.18V25.8927C27.8203 26.9603 26.9589 27.8218 25.8913 27.8218H1.27365C-0.137453 27.8218 -0.496834 25.8663 0.819136 25.3642L19.8981 18.0392C20.6802 17.738 21.1929 16.9928 21.1929 16.1577V13.251H25.886C26.9589 13.251 27.8203 14.1124 27.8203 15.18Z" fill="#FF4200"/>
<path d="M20.8811 0.498252L0.480937 22.7905L0.470367 22.7958C0.253681 22.9966 0.1057 23.2714 0.0475652 23.5727L0 23.8475V8.91729C0 8.07169 0.517932 7.31593 1.31069 7.01468L19.3326 0.0913058C19.914 -0.130665 20.527 0.0701657 20.8811 0.498252Z" fill="#00A9EA"/>
<path d="M21.193 1.37032V13.325C21.193 14.1706 20.675 14.9264 19.8823 15.2276L0.924899 22.5104C0.755778 22.5738 0.607798 22.669 0.480957 22.7905L20.8811 0.498291C21.0767 0.730832 21.193 1.03208 21.193 1.37032Z" fill="#25258C"/>
<path d="M74.6399 32.583V14.5691H77.6771V16.4497C78.0824 15.7849 78.6516 15.2613 79.3893 14.8742C80.1269 14.4871 81.0194 14.2959 82.0713 14.2959C83.2507 14.2959 84.3026 14.5691 85.236 15.111C86.165 15.6529 86.9072 16.4315 87.4582 17.447C88.0092 18.4624 88.2869 19.6691 88.2869 21.067C88.2869 22.465 88.0092 23.6717 87.4582 24.6871C86.9072 25.698 86.165 26.4767 85.236 27.0231C84.3071 27.565 83.2507 27.8382 82.0713 27.8382C81.0786 27.8382 80.218 27.6652 79.5031 27.3145C78.7836 26.9639 78.2235 26.4858 77.8183 25.8756V32.5876H74.6399V32.583ZM81.3564 25.097C82.0941 25.097 82.7361 24.9376 83.2917 24.6143C83.8426 24.291 84.2707 23.8265 84.5758 23.2209C84.8809 22.6153 85.0311 21.8958 85.0311 21.067C85.0311 20.2383 84.8763 19.5234 84.5621 18.9269C84.2479 18.3304 83.8108 17.8613 83.2507 17.5335C82.6906 17.2011 82.0576 17.0371 81.3564 17.0371C80.6369 17.0371 79.9994 17.2011 79.4348 17.5335C78.8702 17.8659 78.4421 18.3304 78.137 18.9269C77.8319 19.5234 77.6817 20.2383 77.6817 21.067C77.6817 21.8958 77.8319 22.6153 78.137 23.2209C78.4421 23.8311 78.8747 24.2955 79.4348 24.6143C79.9949 24.933 80.6369 25.097 81.3564 25.097Z" fill="black"/>
<path d="M94.0655 27.8336C93.1457 27.8336 92.3215 27.6879 91.5929 27.3919C90.8644 27.0959 90.2997 26.6588 89.8944 26.0805C89.4892 25.5021 89.2888 24.7872 89.2888 23.9403C89.2888 23.0751 89.4892 22.3693 89.8944 21.8274C90.2997 21.2855 90.8689 20.8621 91.6066 20.557C92.3443 20.2519 93.1639 20.047 94.0655 19.9331L98.4597 19.3822C98.3504 18.5352 98.0043 17.9159 97.426 17.5334C96.8477 17.1464 96.151 16.9551 95.3405 16.9551C94.7303 16.9551 94.1019 17.0689 93.4462 17.3012C92.7905 17.5334 92.071 17.9068 91.2787 18.4214L90.2269 16.0717C91.001 15.5025 91.8343 15.0654 92.7268 14.7603C93.6193 14.4552 94.5345 14.3049 95.4771 14.3049C97.5034 14.3049 99.0426 14.7512 100.09 15.6437C101.142 16.5362 101.665 17.8795 101.665 19.6645V27.5649H98.6282V25.8801C98.1318 26.5631 97.508 27.0595 96.7612 27.3737C96.0144 27.6742 95.1128 27.8336 94.0655 27.8336ZM94.9489 25.2881C95.7048 25.2881 96.3423 25.1424 96.8705 24.8464C97.3942 24.5505 97.7949 24.1543 98.0726 23.658C98.3504 23.1616 98.487 22.638 98.487 22.0824V21.6134L95.0627 22.0551C94.1976 22.1462 93.5464 22.3283 93.1138 22.5924C92.6812 22.8611 92.4627 23.2527 92.4627 23.7672C92.4627 24.2636 92.6812 24.6415 93.1138 24.9011C93.5419 25.1606 94.1566 25.2881 94.9489 25.2881Z" fill="black"/>
<path d="M105.171 32.7514C104.584 32.7514 103.992 32.6831 103.405 32.5419C102.817 32.4053 102.307 32.2141 101.884 31.9773L102.767 29.573C103.118 29.7369 103.478 29.8735 103.846 29.9737C104.215 30.0739 104.584 30.124 104.953 30.124C105.34 30.124 105.695 30.0602 106.018 29.9282C106.342 29.7961 106.642 29.5958 106.915 29.3226C107.193 29.0448 107.457 28.6942 107.717 28.2707L102.385 14.5645H105.754L109.179 24.5368L112.63 14.5645H116L110.945 27.5512C110.431 28.8581 109.871 29.8918 109.274 30.6476C108.673 31.4035 108.031 31.9409 107.339 32.2642C106.651 32.5875 105.927 32.7514 105.171 32.7514Z" fill="black"/>
<path d="M56.2026 27.4739V9.01831H65.1823C66.6576 9.01831 67.9007 9.18224 68.9116 9.51465C69.9225 9.84706 70.683 10.3571 71.193 11.0492C71.6984 11.7413 71.9534 12.6475 71.9534 13.7722C71.9534 14.8059 71.7212 15.6756 71.2613 16.3814C70.8014 17.0918 70.0455 17.62 68.9936 17.9706C70.2276 18.2848 71.1201 18.8176 71.6757 19.5735C72.2266 20.3294 72.5044 21.2856 72.5044 22.4468C72.5044 24.1771 71.917 25.4476 70.7376 26.2581C69.5582 27.0686 67.7095 27.4739 65.1823 27.4739H56.2026ZM60.2098 16.4771H64.6859C65.8653 16.4771 66.6941 16.3131 67.1722 15.9807C67.6503 15.6483 67.8916 15.1064 67.8916 14.3505C67.8916 13.6129 67.6549 13.0801 67.1858 12.7477C66.7168 12.4153 65.8835 12.2513 64.6859 12.2513H60.2098V16.4771ZM60.2098 24.2409H64.6859C65.6057 24.2409 66.3389 24.1635 66.8807 24.0041C67.4226 23.8493 67.8188 23.5943 68.0692 23.2436C68.3197 22.893 68.4426 22.4331 68.4426 21.8639C68.4426 21.2947 68.3197 20.8257 68.0692 20.4705C67.8188 20.1108 67.4226 19.8558 66.8807 19.6964C66.3389 19.5416 65.6057 19.4596 64.6859 19.4596H60.2098V24.2409Z" fill="black"/>
<path d="M53.2974 9.01821V27.4738H49.181V14.4278L45.356 25.6934L44.7504 27.4738H42.8106L42.2049 25.6934L38.3845 14.4324V27.4738H34.2681V9L36.5403 9.01366H39.6914L43.7805 21.0487L47.8696 9.01366H49.181V9L53.2974 9.01821Z" fill="black"/>
</svg>
