<svg width="60" height="60" viewBox="0 0 60 60" fill="none" xmlns="http://www.w3.org/2000/svg">
<path d="M59.2278 0H0V59.2278H59.2278V0Z" fill="#E6E7E8"/>
<path d="M59.2278 49.9375V59.228H0V49.9375C0 38.9698 5.95592 29.3981 14.8145 24.2859C16.5621 30.8344 22.5281 35.6453 29.6189 35.6453C33.8473 35.6453 37.674 33.9279 40.4561 31.1558C42.3242 29.2877 43.7203 26.9274 44.4234 24.2959C46.6731 25.5815 48.7321 27.1684 50.55 28.9964C55.9134 34.3497 59.2278 41.762 59.2278 49.9375Z" fill="white"/>
<path d="M44.4236 24.2962C43.7205 26.9276 42.3244 29.2879 40.4563 31.156C37.6742 33.9281 33.8475 35.6456 29.6191 35.6456C22.5283 35.6456 16.5623 30.8346 14.8147 24.2861C19.1636 21.7651 24.2257 20.3188 29.6191 20.3188C35.0126 20.3188 40.0646 21.7651 44.4236 24.2962Z" fill="#25258C"/>
<path d="M44.9457 20.3184C44.9457 21.6944 44.7649 23.0302 44.4234 24.2957C40.0644 21.7647 35.0124 20.3184 29.6189 20.3184C24.2255 20.3184 19.1634 21.7647 14.8145 24.2856C14.473 23.0201 14.2922 21.6944 14.2922 20.3184C14.2922 16.09 16.0097 12.2633 18.7818 9.49125C21.5538 6.71918 25.3805 5.00171 29.6189 5.00171C33.8474 5.00171 37.674 6.71918 40.4561 9.49125C43.2282 12.2633 44.9457 16.09 44.9457 20.3184Z" fill="#00A9EA"/>
<path d="M53.0006 59.2276H6.22705C6.22705 47.0546 16.1 37.1816 28.273 37.1816H30.9547C43.1277 37.1816 53.0006 47.0546 53.0006 59.2276Z" fill="#FF4200"/>
</svg>
