<svg width="33" height="21" viewBox="0 0 33 21" fill="none" xmlns="http://www.w3.org/2000/svg">
<path d="M16.2901 15.28C18.8803 15.28 20.9801 13.1802 20.9801 10.59C20.9801 7.99981 18.8803 5.90002 16.2901 5.90002C13.6999 5.90002 11.6001 7.99981 11.6001 10.59C11.6001 13.1802 13.6999 15.28 16.2901 15.28Z" fill="#CCCCCC" stroke="#999999" stroke-width="2" stroke-miterlimit="10" stroke-linecap="round"/>
<path d="M7.40997 15.44C4.95997 14.13 2.83997 12.63 1.55997 11.65C0.809968 11.08 0.819968 10.11 1.57997 9.54001C4.37997 7.46001 10.99 3.01001 16.29 3.01001C17.22 3.01001 18.19 3.15001 19.18 3.39001" stroke="#999999" stroke-width="2" stroke-miterlimit="10" stroke-linecap="round"/>
<path d="M24.74 5.57996C27.34 6.92996 29.63 8.51996 31 9.53996C31.76 10.11 31.77 11.07 31.02 11.65C28.28 13.73 21.82 18.16 16.29 18.16C15.2 18.16 14.08 17.99 12.96 17.7" stroke="#999999" stroke-width="2" stroke-miterlimit="10" stroke-linecap="round"/>
<path d="M14.3 10.28C15.1285 10.28 15.8 9.60846 15.8 8.78003C15.8 7.9516 15.1285 7.28003 14.3 7.28003C13.4716 7.28003 12.8 7.9516 12.8 8.78003C12.8 9.60846 13.4716 10.28 14.3 10.28Z" fill="white"/>
<path d="M7 20L26 1" stroke="#999999" stroke-width="2" stroke-miterlimit="10" stroke-linecap="round"/>
</svg>
