<svg width="33" height="18" viewBox="0 0 33 18" fill="none" xmlns="http://www.w3.org/2000/svg">
<path d="M16.2899 12.95C18.6979 12.95 20.6499 10.9979 20.6499 8.58998C20.6499 6.18202 18.6979 4.22998 16.2899 4.22998C13.882 4.22998 11.9299 6.18202 11.9299 8.58998C11.9299 10.9979 13.882 12.95 16.2899 12.95Z" fill="#CCCCCC" stroke="#999999" stroke-width="2" stroke-miterlimit="10" stroke-linecap="round"/>
<path d="M31 7.54001C31.76 8.11001 31.77 9.07001 31.02 9.65001C28.28 11.73 21.82 16.16 16.29 16.16C10.77 16.16 4.29997 11.73 1.55997 9.65001C0.809968 9.08001 0.819968 8.11001 1.57997 7.54001C4.37997 5.46001 10.99 1.01001 16.29 1.01001C21.59 1.01001 28.2 5.46001 31 7.54001Z" stroke="#999999" stroke-width="2" stroke-miterlimit="10" stroke-linecap="round"/>
<path d="M15.3 8.28003C16.1285 8.28003 16.8 7.60846 16.8 6.78003C16.8 5.9516 16.1285 5.28003 15.3 5.28003C14.4716 5.28003 13.8 5.9516 13.8 6.78003C13.8 7.60846 14.4716 8.28003 15.3 8.28003Z" fill="white"/>
</svg>
