<svg width="36" height="36" viewBox="0 0 36 36" fill="none" xmlns="http://www.w3.org/2000/svg">
<path d="M14.9642 9.1431V6.77494C14.9642 5.2349 16.2137 3.99997 17.7392 3.99997C19.2792 3.99997 20.5142 5.24943 20.5142 6.77494V9.1431" stroke="#00A9EA" stroke-width="2" stroke-miterlimit="10" stroke-linecap="round" stroke-linejoin="round"/>
<path d="M7.56905 27.5508V18.8337C7.56905 13.2111 12.1165 8.66362 17.7391 8.66362C23.3617 8.66362 27.9091 13.2111 27.9091 18.8337V27.5508" stroke="#FF4200" stroke-width="2" stroke-miterlimit="10" stroke-linecap="round" stroke-linejoin="round"/>
<path d="M12.9883 27.5508V29.1054C12.9883 31.7206 15.1094 33.8563 17.7391 33.8563C20.3543 33.8563 22.49 31.7351 22.49 29.1054V27.5508" stroke="#25258C" stroke-width="2" stroke-miterlimit="10" stroke-linecap="round" stroke-linejoin="round"/>
<path d="M6 27.5508H29.4783" stroke="#00A9EA" stroke-width="2" stroke-miterlimit="10" stroke-linecap="round" stroke-linejoin="round"/>
<path d="M7.56904 27.5509V18.8337C7.56904 13.2111 12.1165 8.66365 17.7391 8.66365C23.3617 8.66365 27.9091 13.2111 27.9091 18.8337V27.5509M12.9883 27.5509V29.1054C12.9883 31.7206 15.1094 33.8563 17.7391 33.8563C20.3543 33.8563 22.49 31.7351 22.49 29.1054V27.5509M14.9643 9.14313V6.77497C14.9643 5.23493 16.2137 4 17.7392 4C19.2793 4 20.5142 5.24946 20.5142 6.77497V9.14313M6 27.5509H29.4783" stroke="white" stroke-opacity="0.6" stroke-width="2" stroke-miterlimit="10" stroke-linecap="round" stroke-linejoin="round"/>
</svg>
