<svg width="42" height="42" viewBox="0 0 42 42" fill="none" xmlns="http://www.w3.org/2000/svg">
<path d="M42 0H0V42H42V0Z" fill="#E6E7E8"/>
<path d="M37.77 18.61C37.77 26.3 31.53 32.54 23.84 32.54C20.84 32.54 18.05 31.59 15.78 29.96C12.23 27.44 9.90997 23.3 9.90997 18.61C9.90997 10.92 16.15 4.67999 23.84 4.67999C31.1 4.67999 37.07 10.24 37.7 17.34C37.75 17.75 37.77 18.17 37.77 18.61Z" fill="#FC781F"/>
<path d="M6.34 24.41C5.01 19.37 6.06 13.77 9.66 9.45996" stroke="#00A9EA" stroke-width="4" stroke-miterlimit="10" stroke-linecap="round" stroke-linejoin="round"/>
<path d="M36.21 29.65C35.93 30.07 35.63 30.47 35.29 30.86C29.38 37.94 18.85 38.88 11.77 32.97C9.01 30.66 7.18 27.65 6.34 24.4" stroke="#25258C" stroke-width="4" stroke-miterlimit="10" stroke-linecap="round"/>
<path d="M37.77 18.61C37.77 26.3 31.53 32.54 23.84 32.54C20.84 32.54 18.05 31.59 15.78 29.96C15.13 28.43 14.77 26.75 14.77 24.98C14.77 17.94 20.47 12.24 27.5 12.24C31.67 12.24 35.38 14.24 37.7 17.34C37.75 17.75 37.77 18.17 37.77 18.61Z" fill="#FF4200"/>
<path d="M23.19 8.65997V19.52H31.05" stroke="white" stroke-width="3" stroke-miterlimit="10" stroke-linecap="round" stroke-linejoin="round"/>
</svg>
