<svg width="43" height="42" viewBox="0 0 43 42" fill="none" xmlns="http://www.w3.org/2000/svg">
<path d="M42.88 0H0.880005V42H42.88V0Z" fill="#E6E7E8"/>
<path d="M14.81 31.96C13.28 30.38 11.95 28.52 10.97 26.72C9.99997 24.96 9.27999 23.12 8.79999 21.25" stroke="#00A9EA" stroke-width="4" stroke-miterlimit="10" stroke-linecap="round" stroke-linejoin="round"/>
<path d="M36.23 21C34.2 29.18 27.62 36.09 22.5 36.09C19.85 36.09 17.11 34.34 14.81 31.96" stroke="#25258C" stroke-width="4" stroke-miterlimit="10" stroke-linecap="round"/>
<path d="M33.83 13.85C33.83 22.93 26.43 31.24 22.5 31.24C20.25 31.24 16.29 28.07 13.7 23.32C12.2 20.59 11.16 17.32 11.16 13.85C11.16 7.58996 16.24 2.51996 22.5 2.51996C23.66 2.51996 24.79 2.69996 25.84 3.01996C30.47 4.44996 33.83 8.75996 33.83 13.85Z" fill="#FF4200"/>
<path d="M25.84 3.01996C25.93 6.25996 25.04 10.07 23.11 13.77C20.67 18.44 17.14 21.86 13.7 23.32C12.2 20.59 11.16 17.32 11.16 13.85C11.16 7.58996 16.24 2.51996 22.5 2.51996C23.66 2.51996 24.79 2.69996 25.84 3.01996Z" fill="#FC781F"/>
<path d="M27 13.85C27 16.34 24.98 18.35 22.5 18.35C20.01 18.35 18 16.33 18 13.85C18 11.36 20.02 9.34996 22.5 9.34996C24.98 9.34996 27 11.36 27 13.85Z" fill="white"/>
</svg>
