<svg width="42" height="42" viewBox="0 0 42 42" fill="none" xmlns="http://www.w3.org/2000/svg">
<path d="M42 0H0V42H42V0Z" fill="#E6E7E8"/>
<path d="M34.93 18.61C34.93 26.3 28.69 32.54 21 32.54C18.84 32.54 16.79 32.04 14.97 31.15C14.26 30.82 13.58 30.41 12.94 29.96C9.38999 27.44 7.06999 23.3 7.06999 18.61C7.06999 10.92 13.31 4.67999 21 4.67999C27.91 4.67999 33.64 9.71999 34.73 16.33C34.79 16.66 34.83 17 34.86 17.34C34.91 17.76 34.93 18.18 34.93 18.61Z" fill="#FC781F"/>
<path d="M11.33 34.23C7.07999 31.21 4.29999 26.25 4.29999 20.62" stroke="#00A9EA" stroke-width="4" stroke-miterlimit="10" stroke-linecap="round" stroke-linejoin="round"/>
<path d="M37.62 19.1C37.67 19.6 37.7 20.1 37.7 20.62C37.7 29.84 30.22 37.32 21 37.32C17.4 37.32 14.06 36.18 11.34 34.23" stroke="#25258C" stroke-width="4" stroke-miterlimit="10" stroke-linecap="round"/>
<path d="M34.93 18.61C34.93 26.3 28.69 32.54 21 32.54C18.84 32.54 16.79 32.04 14.97 31.15C14.45 29.75 14.16 28.24 14.16 26.67C14.16 19.55 19.92 13.78 27.04 13.78C29.92 13.78 32.58 14.73 34.73 16.33C34.79 16.66 34.83 17 34.86 17.34C34.91 17.76 34.93 18.18 34.93 18.61Z" fill="#FF4200"/>
<path d="M12.79 19.96C12.71 19.52 12.67 19.06 12.67 18.6C12.67 14.01 16.39 10.27 21 10.27C22.04 10.27 23.05 10.46 23.98 10.82" stroke="white" stroke-width="3" stroke-linecap="round" stroke-linejoin="round"/>
<path d="M23.57 11.31L24.76 11.17L24.04 10.21L23.57 11.31Z" fill="white"/>
<path d="M29.21 17.25C29.24 17.44 29.27 17.64 29.28 17.84C29.31 18.09 29.32 18.34 29.32 18.6C29.32 23.2 25.6 26.94 20.99 26.94C19.64 26.94 18.37 26.62 17.23 26.04" stroke="white" stroke-width="3" stroke-miterlimit="10" stroke-linecap="round" stroke-linejoin="round"/>
</svg>
