<svg width="42" height="42" viewBox="0 0 42 42" fill="none" xmlns="http://www.w3.org/2000/svg">
<path d="M42 0H0V42H42V0Z" fill="#E6E7E8"/>
<path d="M32.65 19C32.65 26.69 26.41 32.93 18.72 32.93C16.56 32.93 14.51 32.43 12.69 31.54C11.98 31.21 11.3 30.8 10.66 30.35C7.11 27.83 4.79001 23.69 4.79001 19C4.79001 11.31 11.03 5.07001 18.72 5.07001C25.63 5.07001 31.36 10.11 32.45 16.72C32.51 17.05 32.55 17.39 32.58 17.73C32.63 18.15 32.65 18.57 32.65 19Z" fill="#FC781F"/>
<path d="M29.68 5.89996C30.11 6.14996 30.53 6.42996 30.95 6.73996C38.38 12.2 39.99 22.65 34.53 30.08C32.4 32.98 29.5 35 26.32 36.04" stroke="#25258C" stroke-width="4" stroke-miterlimit="10" stroke-linecap="round"/>
<path d="M32.65 19C32.65 26.69 26.41 32.93 18.72 32.93C16.56 32.93 14.51 32.43 12.69 31.54C12.17 30.14 11.88 28.63 11.88 27.06C11.88 19.94 17.64 14.17 24.76 14.17C27.64 14.17 30.3 15.12 32.45 16.72C32.51 17.05 32.55 17.39 32.58 17.73C32.63 18.15 32.65 18.57 32.65 19Z" fill="#FF4200"/>
<path d="M17.91 21.5L15.48 23.64L15.49 26.57C15.49 26.76 15.42 26.94 15.28 27.07L14.78 27.57C14.42 27.93 13.82 27.81 13.63 27.34L12.61 24.91C12.41 24.44 12.04 24.07 11.57 23.87L9.14002 22.85C8.68002 22.66 8.56001 22.05 8.91001 21.7L9.41001 21.2C9.54001 21.07 9.72001 20.99 9.91001 20.99H12.84L14.98 18.56C15.18 18.33 15.11 17.98 14.85 17.84L10.47 15.53C10.05 15.31 9.92 14.76 10.21 14.37L10.71 13.69C10.88 13.47 11.15 13.35 11.43 13.38L18.71 14.3L20.32 12.47C21.32 11.33 22.75 10.66 24.27 10.61C25.16 10.59 25.88 11.31 25.86 12.2C25.82 13.72 25.14 15.16 24 16.16L22.17 17.77L23.1 25.05C23.14 25.33 23.02 25.6 22.79 25.77L22.11 26.27C21.73 26.55 21.18 26.43 20.96 26.01L18.65 21.62C18.49 21.36 18.14 21.3 17.91 21.5Z" fill="white"/>
</svg>
