<svg width="38" height="30" viewBox="0 0 38 30" fill="none" xmlns="http://www.w3.org/2000/svg">
<path d="M11.6 27.6199H9.48999C5.61999 27.6199 2.46999 24.74 2.46999 21.2V16.2599" stroke="#00A9EA" stroke-width="4" stroke-miterlimit="10" stroke-linecap="round" stroke-linejoin="round"/>
<path d="M35.26 21.2C35.26 24.74 32.11 27.62 28.24 27.62H11.6" stroke="#25258C" stroke-width="4" stroke-miterlimit="10" stroke-linecap="round"/>
<path d="M32.26 3.82997V19.18C32.26 21.07 30.46 22.6 28.24 22.6H9.47998C7.25998 22.6 5.45998 21.07 5.45998 19.18V3.82997C5.45998 1.93997 7.25998 0.409973 9.47998 0.409973H28.24C30.46 0.409973 32.26 1.93997 32.26 3.82997Z" fill="#FF4200"/>
<path d="M26.55 1.66998C26.55 9.62998 18.96 16.09 9.59998 16.09C8.17998 16.09 6.77998 15.94 5.45998 15.66V3.82997C5.45998 1.93997 7.25998 0.409973 9.47998 0.409973H26.47C26.52 0.829973 26.55 1.24998 26.55 1.66998Z" fill="#FC781F"/>
<path d="M26.55 7.27997L19.3 14.53C18.53 15.3 17.28 15.3 16.51 14.53L13.01 11.03" stroke="white" stroke-width="3" stroke-miterlimit="10" stroke-linecap="round" stroke-linejoin="round"/>
</svg>
