<svg width="33" height="37" viewBox="0 0 33 37" fill="none" xmlns="http://www.w3.org/2000/svg">
<path d="M8.81 29.96C7.28 28.38 5.94997 26.52 4.96997 24.72C3.99997 22.96 3.27999 21.12 2.79999 19.25" stroke="#00A9EA" stroke-width="4" stroke-miterlimit="10" stroke-linecap="round" stroke-linejoin="round"/>
<path d="M30.23 19C28.2 27.18 21.62 34.09 16.5 34.09C13.85 34.09 11.11 32.34 8.81 29.96" stroke="#25258C" stroke-width="4" stroke-miterlimit="10" stroke-linecap="round"/>
<path d="M27.83 11.85C27.83 20.93 20.43 29.24 16.5 29.24C14.25 29.24 10.29 26.07 7.69998 21.32C6.19998 18.59 5.15997 15.32 5.15997 11.85C5.15997 5.58996 10.24 0.519958 16.5 0.519958C17.66 0.519958 18.79 0.699959 19.84 1.01996C24.47 2.44996 27.83 6.75996 27.83 11.85Z" fill="#FF4200"/>
<path d="M19.84 1.01996C19.93 4.25996 19.04 8.06996 17.11 11.77C14.67 16.44 11.14 19.86 7.69998 21.32C6.19998 18.59 5.15997 15.32 5.15997 11.85C5.15997 5.58996 10.24 0.519958 16.5 0.519958C17.66 0.519958 18.79 0.699959 19.84 1.01996Z" fill="#FC781F"/>
<path d="M21 11.85C21 14.34 18.98 16.35 16.5 16.35C14.01 16.35 12 14.33 12 11.85C12 9.35996 14.02 7.34996 16.5 7.34996C18.98 7.34996 21 9.35996 21 11.85Z" fill="white"/>
</svg>
