<svg width="36" height="36" viewBox="0 0 36 36" fill="none" xmlns="http://www.w3.org/2000/svg">
<path d="M28.44 16C28.44 23.69 22.2 29.93 14.51 29.93C12.35 29.93 10.3 29.43 8.48 28.54C7.77 28.21 7.09 27.8 6.45 27.35C2.9 24.83 0.580002 20.69 0.580002 16C0.580002 8.31002 6.81999 2.07001 14.51 2.07001C21.42 2.07001 27.15 7.11 28.24 13.72C28.3 14.05 28.34 14.39 28.37 14.73C28.42 15.15 28.44 15.57 28.44 16Z" fill="#FC781F"/>
<path d="M25.47 2.89996C25.9 3.14996 26.32 3.42996 26.74 3.73996C34.17 9.19996 35.78 19.65 30.32 27.08C28.19 29.98 25.29 32 22.11 33.04" stroke="#25258C" stroke-width="4" stroke-miterlimit="10" stroke-linecap="round"/>
<path d="M28.44 16C28.44 23.69 22.2 29.93 14.51 29.93C12.35 29.93 10.3 29.43 8.48 28.54C7.96 27.14 7.67 25.63 7.67 24.06C7.67 16.94 13.43 11.17 20.55 11.17C23.43 11.17 26.09 12.12 28.24 13.72C28.3 14.05 28.34 14.39 28.37 14.73C28.42 15.15 28.44 15.57 28.44 16Z" fill="#FF4200"/>
<path d="M13.7 18.5L11.27 20.64L11.28 23.57C11.28 23.76 11.21 23.94 11.07 24.07L10.57 24.57C10.21 24.93 9.61 24.81 9.42 24.34L8.40002 21.91C8.20002 21.44 7.83001 21.07 7.36001 20.87L4.93001 19.85C4.47001 19.66 4.35 19.05 4.7 18.7L5.2 18.2C5.33 18.07 5.51 17.99 5.7 17.99H8.63L10.77 15.56C10.97 15.33 10.9 14.98 10.64 14.84L6.26 12.53C5.84 12.31 5.70999 11.76 5.99999 11.37L6.49999 10.69C6.66999 10.47 6.93999 10.35 7.21999 10.38L14.5 11.3L16.11 9.46995C17.11 8.32995 18.54 7.65996 20.06 7.60996C20.95 7.58996 21.67 8.30996 21.65 9.19996C21.61 10.72 20.93 12.16 19.79 13.16L17.96 14.77L18.89 22.05C18.93 22.33 18.81 22.6 18.58 22.77L17.9 23.27C17.52 23.55 16.97 23.43 16.75 23.01L14.44 18.62C14.28 18.36 13.93 18.3 13.7 18.5Z" fill="white"/>
</svg>
