<svg width="38" height="35" viewBox="0 0 38 35" fill="none" xmlns="http://www.w3.org/2000/svg">
<path d="M33.2 13.93C33.2 21.62 26.96 27.86 19.27 27.86C17.11 27.86 15.06 27.36 13.24 26.47C12.53 26.14 11.85 25.73 11.21 25.28C7.65999 22.76 5.34 18.62 5.34 13.93C5.34 6.24001 11.58 0 19.27 0C26.18 0 31.91 5.03999 33 11.65C33.06 11.98 33.1 12.32 33.13 12.66C33.18 13.08 33.2 13.5 33.2 13.93Z" fill="#FC781F"/>
<path d="M9.59999 29.23C5.34999 26.21 2.56999 21.25 2.56999 15.62" stroke="#00A9EA" stroke-width="4" stroke-miterlimit="10" stroke-linecap="round" stroke-linejoin="round"/>
<path d="M35.89 14.1C35.94 14.6 35.97 15.1 35.97 15.62C35.97 24.84 28.49 32.32 19.27 32.32C15.67 32.32 12.33 31.18 9.61 29.23" stroke="#25258C" stroke-width="4" stroke-miterlimit="10" stroke-linecap="round"/>
<path d="M33.2 13.61C33.2 21.3 26.96 27.54 19.27 27.54C17.11 27.54 15.06 27.04 13.24 26.15C12.72 24.75 12.43 23.24 12.43 21.67C12.43 14.55 18.19 8.77997 25.31 8.77997C28.19 8.77997 30.85 9.72996 33 11.33C33.06 11.66 33.1 12 33.13 12.34C33.18 12.76 33.2 13.18 33.2 13.61Z" fill="#FF4200"/>
<path d="M11.06 14.96C10.98 14.52 10.94 14.06 10.94 13.6C10.94 9.00996 14.66 5.26996 19.27 5.26996C20.31 5.26996 21.32 5.45996 22.25 5.81996" stroke="white" stroke-width="3" stroke-linecap="round" stroke-linejoin="round"/>
<path d="M21.84 6.30997L23.03 6.16997L22.31 5.20996L21.84 6.30997Z" fill="white"/>
<path d="M27.48 12.25C27.51 12.44 27.54 12.64 27.55 12.84C27.58 13.09 27.59 13.34 27.59 13.6C27.59 18.2 23.87 21.94 19.26 21.94C17.91 21.94 16.64 21.62 15.5 21.04" stroke="white" stroke-width="3" stroke-miterlimit="10" stroke-linecap="round" stroke-linejoin="round"/>
<path d="M27.81 11.77L24.93 15.04L29.2 15.9L27.81 11.77Z" stroke="white" stroke-width="3" stroke-miterlimit="10" stroke-linecap="round" stroke-linejoin="round"/>
<path d="M10.99 15.13L13.87 11.86L9.59999 11L10.99 15.13Z" stroke="white" stroke-width="3" stroke-miterlimit="10" stroke-linecap="round" stroke-linejoin="round"/>
</svg>
