<svg width="36" height="35" viewBox="0 0 36 35" fill="none" xmlns="http://www.w3.org/2000/svg">
<path d="M34.77 14.61C34.77 22.3 28.53 28.54 20.84 28.54C17.84 28.54 15.05 27.59 12.78 25.96C9.22999 23.44 6.90999 19.3 6.90999 14.61C6.90999 6.92 13.15 0.679993 20.84 0.679993C28.1 0.679993 34.07 6.24 34.7 13.34C34.75 13.75 34.77 14.17 34.77 14.61Z" fill="#FC781F"/>
<path d="M3.34 20.41C2.01 15.37 3.06 9.76996 6.66 5.45996" stroke="#00A9EA" stroke-width="4" stroke-miterlimit="10" stroke-linecap="round" stroke-linejoin="round"/>
<path d="M33.21 25.65C32.93 26.07 32.63 26.47 32.29 26.86C26.38 33.94 15.85 34.88 8.77 28.97C6.01 26.66 4.18 23.65 3.34 20.4" stroke="#25258C" stroke-width="4" stroke-miterlimit="10" stroke-linecap="round"/>
<path d="M34.77 14.61C34.77 22.3 28.53 28.54 20.84 28.54C17.84 28.54 15.05 27.59 12.78 25.96C12.13 24.43 11.77 22.75 11.77 20.98C11.77 13.94 17.47 8.23999 24.5 8.23999C28.67 8.23999 32.38 10.24 34.7 13.34C34.75 13.75 34.77 14.17 34.77 14.61Z" fill="#FF4200"/>
<path d="M20.19 4.65997V15.52H28.05" stroke="white" stroke-width="3" stroke-miterlimit="10" stroke-linecap="round" stroke-linejoin="round"/>
</svg>
