<svg width="152" height="53" viewBox="0 0 152 53" fill="none" xmlns="http://www.w3.org/2000/svg">
<path d="M29.7865 16.578V42.1836C29.7865 44.4924 27.9144 46.3437 25.6264 46.3437H0L29.7865 16.578Z" fill="#25258C"/>
<path d="M41.6844 4.68018L33.7386 12.626H3.9729L9.88028 6.71864C11.1907 5.4082 12.9588 4.68018 14.7892 4.68018H41.6844Z" fill="#FF4200"/>
<path d="M41.6845 4.68018V31.5754C41.6845 33.4266 40.9565 35.1947 39.646 36.4843L33.7386 42.3917V12.6052L41.6845 4.68018Z" fill="#00A9EA"/>
<path d="M29.7865 16.578L0 46.3645V20.7589C0 18.4501 1.87206 16.5988 4.16013 16.5988H29.7865V16.578Z" fill="#FF4200"/>
<path d="M52.2095 20.8215V4.61777H55.9952V6.61463C56.4529 5.86581 57.0769 5.28339 57.8673 4.86738C58.6577 4.47217 59.6146 4.26416 60.7378 4.26416C61.8402 4.26416 62.7971 4.49297 63.6083 4.95058C64.4195 5.4082 65.0227 6.05301 65.4595 6.88504C65.9587 6.01141 66.666 5.36659 67.5812 4.92978C68.4964 4.49297 69.5573 4.28496 70.7637 4.28496C72.6566 4.28496 74.1126 4.80498 75.1526 5.86581C76.1927 6.92664 76.7127 8.54909 76.7127 10.754V20.8215H72.7398V11.3364C72.7398 10.0883 72.4901 9.17311 72.0117 8.56989C71.5333 7.96667 70.8261 7.67546 69.8693 7.67546C68.746 7.67546 67.8724 8.09148 67.29 8.9235C66.6868 9.75553 66.3956 10.9204 66.3956 12.4388V20.8215H62.4226V11.3364C62.4226 10.0883 62.173 9.17311 61.6946 8.56989C61.2162 7.96667 60.509 7.67546 59.5522 7.67546C58.4081 7.67546 57.5345 8.09148 56.9729 8.9235C56.3905 9.75553 56.1201 10.9204 56.1201 12.4388V20.8215H52.2095Z" fill="black"/>
<path d="M84.8458 21.1543C83.7017 21.1543 82.6617 20.9671 81.7673 20.5927C80.8521 20.2182 80.1448 19.6774 79.6456 18.9494C79.1464 18.2214 78.8968 17.327 78.8968 16.2869C78.8968 15.2053 79.1464 14.3317 79.6456 13.6452C80.1448 12.9588 80.8728 12.4388 81.7881 12.0644C82.7033 11.69 83.7225 11.4196 84.8458 11.2948L90.3163 10.6084C90.1707 9.54752 89.7547 8.7779 89.0267 8.29948C88.2987 7.82107 87.4458 7.57146 86.4266 7.57146C85.6778 7.57146 84.8874 7.71706 84.0553 8.00827C83.2441 8.29948 82.3289 8.7571 81.3513 9.40192L80.0408 6.46903C80.9977 5.76181 82.0377 5.22099 83.1609 4.82578C84.2842 4.45137 85.4282 4.26416 86.593 4.26416C89.1307 4.26416 91.0444 4.82578 92.3548 5.92821C93.6652 7.05144 94.3101 8.71549 94.3101 10.9412V20.8007H90.5243V18.7206C89.9003 19.5734 89.1307 20.1974 88.1947 20.5719C87.2794 20.9671 86.1562 21.1543 84.8458 21.1543ZM85.969 17.9926C86.905 17.9926 87.7163 17.8054 88.3611 17.431C89.0059 17.0565 89.5051 16.5781 89.8587 15.9541C90.2123 15.3301 90.3787 14.6853 90.3787 13.9989V13.4164L86.1146 13.9781C85.033 14.1029 84.2217 14.3109 83.6809 14.6437C83.1401 14.9765 82.8697 15.4757 82.8697 16.0997C82.8697 16.7237 83.1401 17.1813 83.6809 17.5142C84.2009 17.8262 84.9706 17.9926 85.969 17.9926Z" fill="black"/>
<path d="M103.192 21.1542C101.965 21.1542 100.8 20.967 99.6766 20.5926C98.5534 20.2182 97.4718 19.6982 96.4733 19.0117L97.9294 16.0372C98.9694 16.7029 99.9262 17.2021 100.821 17.5141C101.715 17.8261 102.547 17.9925 103.296 17.9925C104.336 17.9925 105.106 17.8469 105.605 17.5557C106.104 17.2645 106.354 16.8069 106.354 16.2037C106.354 15.7252 106.187 15.3508 105.854 15.0804C105.522 14.81 104.96 14.6228 104.149 14.4772L101.673 14.0196C100.113 13.7284 98.9486 13.2084 98.1582 12.4595C97.3677 11.7315 96.9933 10.7747 96.9933 9.58905C96.9933 8.61142 97.2222 7.6962 97.7006 6.88497C98.179 6.07375 98.8862 5.42893 99.8638 4.92971C100.841 4.4513 102.089 4.20169 103.608 4.20169C104.773 4.20169 105.896 4.3681 106.957 4.70091C108.018 5.03372 108.975 5.49133 109.827 6.05295L108.454 8.92343C107.706 8.46582 106.915 8.09141 106.125 7.7794C105.334 7.48819 104.544 7.32178 103.754 7.32178C102.88 7.32178 102.193 7.46739 101.694 7.7378C101.195 8.00821 100.945 8.44502 100.945 9.04824C100.945 9.44345 101.112 9.75546 101.424 10.0051C101.736 10.2547 102.256 10.4419 102.984 10.5667L105.459 11.0243C107.04 11.3155 108.246 11.8355 109.079 12.5843C109.911 13.3124 110.327 14.3732 110.327 15.7252C110.327 17.2853 109.723 18.5749 108.538 19.5942C107.331 20.655 105.563 21.1542 103.192 21.1542Z" fill="black"/>
<path d="M119.645 21.0294C117.794 21.0294 116.442 20.6134 115.589 19.8022C114.757 18.991 114.341 17.7013 114.341 15.9541V7.88344H110.867V4.61774H114.341V0H118.231V4.61774H122.37V7.88344H118.231V15.5381C118.231 16.2661 118.418 16.8277 118.792 17.2021C119.167 17.5765 119.728 17.7637 120.477 17.7637C120.748 17.7637 121.08 17.7429 121.455 17.7221C121.829 17.7013 122.141 17.6597 122.37 17.6181V20.7174C122.017 20.8006 121.6 20.8838 121.122 20.9462C120.602 20.9878 120.124 21.0294 119.645 21.0294Z" fill="black"/>
<path d="M132.25 21.1543C130.586 21.1543 129.109 20.8423 127.778 20.1974C126.447 19.5526 125.386 18.6166 124.617 17.3478C123.826 16.0997 123.452 14.5605 123.452 12.7092C123.452 10.9828 123.805 9.48512 124.533 8.23708C125.261 6.96824 126.26 5.99061 127.508 5.30419C128.777 4.61777 130.191 4.26416 131.751 4.26416C133.353 4.26416 134.767 4.57617 135.953 5.17939C137.139 5.78261 138.075 6.61463 138.719 7.67546C139.364 8.7363 139.697 9.94273 139.697 11.3156C139.697 11.7108 139.655 12.1476 139.551 12.626C139.447 13.1044 139.323 13.5204 139.156 13.8324H127.404C127.529 14.7061 127.799 15.4549 128.257 16.0581C128.714 16.6613 129.318 17.1189 130.046 17.431C130.774 17.743 131.647 17.8886 132.666 17.8886C133.686 17.8886 134.601 17.743 135.412 17.431C136.223 17.1189 137.014 16.7029 137.783 16.1829L139.031 19.0118C138.116 19.719 137.097 20.2598 135.974 20.6343C134.809 20.9879 133.582 21.1543 132.25 21.1543ZM127.383 11.0036H135.662C135.682 10.962 135.703 10.9204 135.703 10.858C135.724 10.8164 135.724 10.7332 135.724 10.65C135.724 10.0051 135.578 9.44352 135.266 8.9651C134.975 8.48669 134.538 8.11228 133.977 7.84187C133.415 7.57146 132.687 7.44666 131.814 7.44666C131.086 7.44666 130.399 7.59226 129.796 7.88347C129.193 8.17468 128.673 8.59069 128.257 9.13151C127.882 9.65152 127.57 10.2755 127.383 11.0036Z" fill="black"/>
<path d="M141.84 20.8214V4.61774H145.625V7.30102C146.062 6.28179 146.665 5.55376 147.414 5.09615C148.163 4.63854 149.016 4.40973 149.973 4.40973C150.264 4.40973 150.555 4.43053 150.825 4.45133C151.096 4.49293 151.283 4.53453 151.429 4.59693V8.36185C151.117 8.29945 150.784 8.23705 150.472 8.19544C150.16 8.15384 149.848 8.13304 149.536 8.13304C148.475 8.13304 147.601 8.54905 146.873 9.38108C146.166 10.2131 145.812 11.4195 145.812 12.9796V20.8006H141.84V20.8214Z" fill="black"/>
<path d="M61.4866 46.7181C60.1762 46.7181 59.0529 46.4685 58.1377 45.9901C57.2225 45.5117 56.5153 44.8461 55.9952 44.0348V46.3853H52.2095V23.359H56.1825V32.2825C56.6817 31.5337 57.3889 30.9304 58.2833 30.4936C59.1777 30.0568 60.2386 29.8488 61.4866 29.8488C62.9635 29.8488 64.2739 30.1816 65.4387 30.868C66.6036 31.5545 67.5188 32.5113 68.2052 33.7801C68.8916 35.049 69.2452 36.5466 69.2452 38.2939C69.2452 40.0411 68.8916 41.5388 68.2052 42.8076C67.5188 44.0764 66.5828 45.0333 65.4387 45.7197C64.2739 46.3853 62.9635 46.7181 61.4866 46.7181ZM60.5922 43.3068C61.5074 43.3068 62.3186 43.0988 63.0051 42.7036C63.6915 42.3084 64.2323 41.726 64.6067 40.9563C64.9811 40.2075 65.1683 39.2923 65.1683 38.2731C65.1683 37.2538 64.9811 36.3386 64.5859 35.6106C64.1907 34.8618 63.6499 34.2793 62.9427 33.8633C62.2354 33.4473 61.445 33.2393 60.5714 33.2393C59.677 33.2393 58.8865 33.4473 58.1793 33.8633C57.4721 34.2793 56.9313 34.8618 56.5569 35.6106C56.1825 36.3594 55.9952 37.2538 55.9952 38.2731C55.9952 39.2923 56.1825 40.2075 56.5569 40.9563C56.9313 41.7052 57.4721 42.2876 58.1793 42.7036C58.8865 43.1196 59.6978 43.3068 60.5922 43.3068Z" fill="black"/>
<path d="M76.6503 46.7181C75.5062 46.7181 74.4662 46.5309 73.5718 46.1565C72.6565 45.7821 71.9493 45.2413 71.4501 44.5132C70.9509 43.7852 70.7013 42.8908 70.7013 41.8508C70.7013 40.7691 70.9509 39.8955 71.4501 39.2091C71.9493 38.5227 72.6774 38.0027 73.5926 37.6282C74.5078 37.2538 75.527 36.9834 76.6503 36.8586L82.1208 36.1722C81.9752 35.1114 81.5592 34.3417 80.8312 33.8633C80.1032 33.3849 79.2295 33.1353 78.2311 33.1353C77.4823 33.1353 76.6919 33.2809 75.8598 33.5721C75.0486 33.8633 74.1334 34.3209 73.1558 34.9658L71.8453 32.0329C72.8022 31.3256 73.8422 30.7848 74.9654 30.3896C76.0887 30.0152 77.2327 29.828 78.3975 29.828C80.9352 29.828 82.8489 30.3896 84.1593 31.4921C85.4697 32.6153 86.1146 34.2793 86.1146 36.505V46.3645H82.3288V44.2636C81.7048 45.1165 80.9352 45.7405 79.9992 46.1149C79.0839 46.5309 77.9607 46.7181 76.6503 46.7181ZM77.7527 43.5564C78.6887 43.5564 79.5 43.3692 80.1448 42.9948C80.7896 42.6204 81.3096 42.142 81.6424 41.518C81.996 40.8939 82.1624 40.2491 82.1624 39.5627V38.9803L77.8983 39.5211C76.8167 39.6459 76.0054 39.8539 75.4646 40.1867C74.9238 40.5195 74.6534 41.0187 74.6534 41.6428C74.6534 42.2668 74.9238 42.7244 75.4646 43.0572C76.0054 43.39 76.7751 43.5564 77.7527 43.5564Z" fill="black"/>
<path d="M96.5358 53C95.1629 53 93.8733 52.792 92.6669 52.376C91.4812 51.96 90.3164 51.3152 89.214 50.4416L90.5244 47.5503C91.5852 48.3407 92.5837 48.8815 93.5613 49.1935C94.5181 49.5055 95.4541 49.6511 96.3278 49.6511C97.9294 49.6511 99.1983 49.2351 100.134 48.4031C101.07 47.5711 101.528 46.323 101.528 44.7006V43.3901C101.008 44.0766 100.28 44.6382 99.3647 45.0542C98.4494 45.4702 97.4094 45.699 96.203 45.699C94.8301 45.699 93.5405 45.387 92.3549 44.763C91.1692 44.139 90.2332 43.2445 89.5052 42.0589C88.7979 40.8733 88.4443 39.438 88.4443 37.774C88.4443 36.0683 88.7979 34.6331 89.5052 33.4682C90.2124 32.3034 91.1692 31.409 92.3549 30.785C93.5405 30.1609 94.8093 29.8489 96.203 29.8489C97.4926 29.8489 98.595 30.0985 99.5103 30.577C100.425 31.0554 101.133 31.6794 101.653 32.4282V30.1817H105.418V44.035C105.418 45.9694 105.064 47.5919 104.357 48.9231C103.65 50.2544 102.63 51.2736 101.299 51.96C99.9887 52.6464 98.4078 53 96.5358 53ZM97.0974 42.4125C97.9502 42.4125 98.7198 42.2253 99.4063 41.8509C100.093 41.4765 100.634 40.9565 101.05 40.2909C101.445 39.6044 101.653 38.7724 101.653 37.7532C101.653 36.7339 101.445 35.9019 101.05 35.2155C100.654 34.5291 100.093 34.0091 99.4063 33.6555C98.7198 33.281 97.9502 33.0938 97.0974 33.0938C96.2446 33.0938 95.475 33.281 94.7677 33.6555C94.0605 34.0299 93.4989 34.5499 93.1037 35.2155C92.6877 35.9019 92.4797 36.7339 92.4797 37.7532C92.4797 38.7724 92.6877 39.6044 93.1037 40.2909C93.5197 40.9773 94.0813 41.4973 94.7677 41.8509C95.475 42.2253 96.2446 42.4125 97.0974 42.4125Z" fill="black"/>
<path d="M113.738 46.7181C112.594 46.7181 111.554 46.5309 110.659 46.1565C109.744 45.7821 109.037 45.2413 108.538 44.5132C108.038 43.7852 107.789 42.8908 107.789 41.8508C107.789 40.7691 108.038 39.8955 108.538 39.2091C109.037 38.5227 109.765 38.0027 110.68 37.6282C111.595 37.2538 112.615 36.9834 113.759 36.8586L119.229 36.1722C119.084 35.1114 118.668 34.3417 117.94 33.8633C117.212 33.3849 116.359 33.1353 115.34 33.1353C114.591 33.1353 113.8 33.2809 112.968 33.5721C112.157 33.8633 111.242 34.3209 110.264 34.9658L108.954 32.0329C109.911 31.3256 110.951 30.7848 112.074 30.3896C113.197 30.0152 114.341 29.828 115.506 29.828C118.044 29.828 119.957 30.3896 121.268 31.4921C122.578 32.6153 123.223 34.2793 123.223 36.505V46.3645H119.437V44.2636C118.813 45.1165 118.044 45.7405 117.108 46.1149C116.172 46.5309 115.048 46.7181 113.738 46.7181ZM114.84 43.5564C115.776 43.5564 116.588 43.3692 117.232 42.9948C117.877 42.6204 118.376 42.142 118.73 41.518C119.084 40.8939 119.25 40.2491 119.25 39.5627V38.9803L114.986 39.5211C113.904 39.6459 113.093 39.8539 112.552 40.1867C112.011 40.5195 111.741 41.0187 111.741 41.6428C111.741 42.2668 112.011 42.7244 112.552 43.0572C113.093 43.39 113.863 43.5564 114.84 43.5564Z" fill="black"/>
<path d="M132.292 46.7182C131.065 46.7182 129.9 46.531 128.777 46.1566C127.654 45.7822 126.572 45.2622 125.573 44.5757L127.03 41.6012C128.07 42.2669 129.026 42.7661 129.921 43.0781C130.815 43.3901 131.647 43.5565 132.396 43.5565C133.436 43.5565 134.206 43.4109 134.705 43.1197C135.204 42.8285 135.454 42.3709 135.454 41.7676C135.454 41.2892 135.287 40.9148 134.955 40.6444C134.622 40.374 134.06 40.1868 133.249 40.0412L130.774 39.5836C129.214 39.2924 128.049 38.7724 127.258 38.0235C126.468 37.2955 126.094 36.3387 126.094 35.153C126.094 34.1754 126.322 33.2602 126.801 32.449C127.279 31.6377 127.986 30.9929 128.964 30.4937C129.942 30.0153 131.19 29.7657 132.708 29.7657C133.873 29.7657 134.996 29.9321 136.057 30.2649C137.118 30.5977 138.075 31.0553 138.927 31.6169L137.555 34.4874C136.806 34.0298 136.015 33.6554 135.225 33.3434C134.435 33.0522 133.644 32.8858 132.854 32.8858C131.98 32.8858 131.294 33.0314 130.794 33.3018C130.295 33.5722 130.046 34.009 130.046 34.6122C130.046 35.0074 130.212 35.3195 130.524 35.5691C130.836 35.8187 131.356 36.0059 132.084 36.1307L134.559 36.5883C136.14 36.8795 137.347 37.3995 138.179 38.1483C139.011 38.8764 139.427 39.9372 139.427 41.2892C139.427 42.8493 138.823 44.1389 137.638 45.1582C136.431 46.219 134.643 46.7182 132.292 46.7182Z" fill="black"/>
<path d="M143.732 27.2488C143.025 27.2488 142.463 27.0408 142.047 26.6248C141.631 26.2088 141.423 25.6679 141.423 25.0023C141.423 24.3575 141.631 23.8375 142.047 23.4423C142.463 23.0471 143.025 22.8391 143.732 22.8391C144.419 22.8391 144.98 23.0471 145.417 23.4423C145.854 23.8375 146.062 24.3783 146.062 25.0439C146.062 25.6887 145.833 26.2088 145.417 26.6248C144.98 27.0408 144.419 27.2488 143.732 27.2488ZM141.756 46.3854V30.1817H145.729V46.3854H141.756Z" fill="black"/>
</svg>
