<svg width="184" height="70" viewBox="0 0 184 70" fill="none" xmlns="http://www.w3.org/2000/svg">
<path d="M49.1175 24.6414V54.3318C49.1175 56.9992 46.9527 59.164 44.2853 59.164H14.5948L49.1175 24.6414Z" fill="#25258C"/>
<path d="M62.9346 10.8301L53.727 20.0376H19.1986L26.0472 13.1891C27.5608 11.6812 29.6057 10.8301 31.7419 10.8301H62.9346Z" fill="#FF4200"/>
<path d="M62.9346 10.8301V42.017C62.9346 44.1533 62.0835 46.2038 60.5756 47.7118L53.7271 54.566V20.0377L62.9346 10.8301Z" fill="#00A9EA"/>
<path d="M49.1175 24.6414L14.5948 59.1698V29.4736C14.5948 26.8062 16.7597 24.6414 19.4271 24.6414H49.1175Z" fill="#FF4200"/>
<path d="M73.9346 29.8164V15.0455H77.3903V16.8675C77.8072 16.1764 78.3784 15.6452 79.1038 15.2796C79.8292 14.9141 80.7032 14.7313 81.7313 14.7313C82.7366 14.7313 83.6048 14.9426 84.3416 15.3596C85.0728 15.7766 85.6382 16.3649 86.0381 17.1189C86.5007 16.3249 87.1462 15.7252 87.9687 15.3253C88.7969 14.9255 89.7679 14.7256 90.876 14.7256C92.5953 14.7256 93.9319 15.2054 94.8858 16.1707C95.8397 17.136 96.3138 18.6211 96.3138 20.6374V29.8164H92.6981V21.1743C92.6981 20.0434 92.4754 19.2037 92.0356 18.6611C91.5957 18.1185 90.9446 17.8443 90.0878 17.8443C89.0597 17.8443 88.2771 18.2213 87.7288 18.9752C87.1862 19.7292 86.912 20.7973 86.912 22.1796V29.8164H83.2964V21.1743C83.2964 20.0434 83.0736 19.2037 82.6338 18.6611C82.194 18.1185 81.5428 17.8443 80.686 17.8443C79.635 17.8443 78.8525 18.2213 78.327 18.9752C77.8015 19.7292 77.5388 20.7973 77.5388 22.1796V29.8164H73.9346Z" fill="white"/>
<path d="M103.705 30.1306C102.654 30.1306 101.717 29.9649 100.889 29.6279C100.061 29.2909 99.4153 28.794 98.9584 28.1371C98.4957 27.4745 98.2672 26.6634 98.2672 25.6981C98.2672 24.7157 98.4957 23.9103 98.9584 23.2934C99.421 22.6765 100.066 22.191 100.906 21.8483C101.746 21.4999 102.677 21.2657 103.705 21.14L108.703 20.5117C108.577 19.5464 108.183 18.8439 107.526 18.404C106.869 17.9642 106.075 17.7415 105.156 17.7415C104.465 17.7415 103.745 17.8728 103.002 18.1356C102.26 18.3983 101.437 18.821 100.535 19.4093L99.3411 16.7362C100.221 16.085 101.169 15.5881 102.186 15.2454C103.202 14.8969 104.248 14.7256 105.316 14.7256C107.623 14.7256 109.371 15.2339 110.565 16.2507C111.759 17.2674 112.358 18.7925 112.358 20.8259V29.8164H108.903V27.8972C108.337 28.674 107.629 29.2395 106.778 29.5936C105.921 29.9535 104.899 30.1306 103.705 30.1306ZM104.716 27.2403C105.573 27.2403 106.304 27.0747 106.904 26.7377C107.498 26.4007 107.955 25.9495 108.269 25.384C108.583 24.8185 108.743 24.2188 108.743 23.5904V23.0535L104.847 23.5562C103.865 23.659 103.122 23.8646 102.631 24.1673C102.14 24.4701 101.894 24.9156 101.894 25.5039C101.894 26.0694 102.14 26.4978 102.631 26.7948C103.117 27.0918 103.813 27.2403 104.716 27.2403Z" fill="white"/>
<path d="M120.429 30.1306C119.316 30.1306 118.247 29.9649 117.225 29.6279C116.197 29.2909 115.226 28.8111 114.301 28.1828L115.62 25.4811C116.562 26.0865 117.442 26.5378 118.259 26.8348C119.076 27.1261 119.83 27.2746 120.521 27.2746C121.463 27.2746 122.166 27.1432 122.628 26.8805C123.091 26.6178 123.32 26.2065 123.32 25.641C123.32 25.2012 123.165 24.8585 122.863 24.6186C122.56 24.3787 122.04 24.1959 121.309 24.0702L119.047 23.659C117.619 23.3848 116.551 22.9164 115.843 22.2424C115.129 21.5741 114.775 20.7002 114.775 19.6321C114.775 18.7296 114.992 17.9071 115.42 17.1646C115.848 16.422 116.511 15.828 117.402 15.3882C118.293 14.9484 119.43 14.7256 120.812 14.7256C121.88 14.7256 122.897 14.8798 123.862 15.1825C124.828 15.4853 125.696 15.9022 126.473 16.422L125.216 19.0324C124.525 18.6154 123.817 18.267 123.091 17.9928C122.366 17.7186 121.652 17.5815 120.938 17.5815C120.138 17.5815 119.515 17.7072 119.07 17.9585C118.619 18.2098 118.396 18.6097 118.396 19.1523C118.396 19.5064 118.544 19.7978 118.836 20.0148C119.127 20.2376 119.601 20.4089 120.252 20.5346L122.514 20.9458C123.959 21.22 125.062 21.6884 125.816 22.3624C126.57 23.0307 126.947 23.9846 126.947 25.224C126.947 26.652 126.404 27.823 125.313 28.7426C124.216 29.6736 122.588 30.1306 120.429 30.1306Z" fill="white"/>
<path d="M135.429 30.0049C133.732 30.0049 132.499 29.6336 131.733 28.8911C130.968 28.1485 130.585 26.9776 130.585 25.384V18.0271H127.409V15.0455H130.585V10.8301H134.138V15.0455H137.908V18.0328H134.138V25.0127C134.138 25.681 134.304 26.1894 134.641 26.5206C134.978 26.8577 135.492 27.0233 136.183 27.0233C136.434 27.0233 136.731 27.0119 137.08 26.989C137.422 26.9662 137.702 26.9376 137.913 26.8976V29.725C137.599 29.8107 137.217 29.8792 136.765 29.9306C136.308 29.9821 135.869 30.0049 135.429 30.0049Z" fill="white"/>
<path d="M146.933 30.1306C145.425 30.1306 144.059 29.8393 142.849 29.2509C141.632 28.6626 140.667 27.8001 139.958 26.6577C139.244 25.5154 138.89 24.1045 138.89 22.4309C138.89 20.8602 139.222 19.495 139.878 18.3469C140.541 17.1931 141.443 16.3021 142.597 15.6738C143.751 15.0455 145.036 14.7313 146.464 14.7313C147.932 14.7313 149.212 15.0112 150.297 15.5652C151.388 16.1193 152.227 16.879 152.827 17.8443C153.427 18.8096 153.724 19.9063 153.724 21.1458C153.724 21.4999 153.678 21.8997 153.581 22.3395C153.49 22.7794 153.364 23.1449 153.221 23.4419H142.5C142.603 24.2416 142.866 24.9156 143.288 25.4697C143.705 26.0237 144.254 26.4464 144.922 26.7263C145.59 27.0119 146.39 27.149 147.31 27.149C148.229 27.149 149.063 27.0062 149.811 26.7263C150.554 26.4407 151.274 26.0637 151.965 25.5782L153.096 28.1543C152.256 28.8054 151.325 29.2966 150.297 29.6336C149.269 29.9649 148.149 30.1306 146.933 30.1306ZM142.5 20.8602H150.046C150.068 20.8202 150.08 20.7745 150.091 20.7345C150.103 20.6945 150.108 20.6317 150.108 20.546C150.108 19.9577 149.971 19.4436 149.697 19.0038C149.423 18.564 149.035 18.2213 148.52 17.9814C148.006 17.7415 147.35 17.6215 146.556 17.6215C145.887 17.6215 145.27 17.7529 144.716 18.0156C144.162 18.2784 143.694 18.6554 143.317 19.1466C142.94 19.6378 142.666 20.209 142.5 20.8602Z" fill="white"/>
<path d="M155.672 29.8164V15.0455H159.127V17.4959C159.527 16.5762 160.07 15.9022 160.761 15.4853C161.452 15.0683 162.229 14.857 163.086 14.857C163.36 14.857 163.617 14.8741 163.857 14.9027C164.097 14.9312 164.28 14.9826 164.405 15.0455V18.4726C164.114 18.4098 163.817 18.3584 163.526 18.3127C163.234 18.2727 162.949 18.2498 162.675 18.2498C161.709 18.2498 160.904 18.6325 160.253 19.3979C159.602 20.1633 159.276 21.26 159.276 22.6823V29.8164H155.672Z" fill="white"/>
<path d="M82.3939 53.4465C81.2001 53.4465 80.1834 53.2238 79.3437 52.7839C78.5041 52.3441 77.8529 51.7444 77.396 50.9904V53.1267H73.9403V32.1297H77.5559V40.2692C78.0186 39.578 78.6583 39.0354 79.4751 38.6356C80.2919 38.2357 81.2686 38.0358 82.3996 38.0358C83.7419 38.0358 84.9414 38.3443 85.9981 38.9612C87.0548 39.578 87.9002 40.4634 88.5285 41.6172C89.1568 42.771 89.4709 44.1418 89.4709 45.7355C89.4709 47.3291 89.1568 48.6999 88.5285 49.8537C87.9002 51.0075 87.0548 51.8929 85.9981 52.5098C84.9357 53.1381 83.7362 53.4465 82.3939 53.4465ZM81.5771 50.3335C82.4167 50.3335 83.1479 50.1508 83.7762 49.7852C84.4045 49.4196 84.89 48.8884 85.2384 48.1973C85.5868 47.5061 85.7582 46.6893 85.7582 45.7469C85.7582 44.8044 85.5811 43.9933 85.2213 43.3079C84.8671 42.6282 84.3645 42.097 83.7305 41.72C83.0907 41.343 82.371 41.1545 81.5771 41.1545C80.7603 41.1545 80.0292 41.343 79.3894 41.72C78.7497 42.097 78.2585 42.6282 77.91 43.3079C77.5616 43.9876 77.3903 44.7987 77.3903 45.7469C77.3903 46.6893 77.5616 47.5061 77.91 48.1973C78.2585 48.8884 78.7497 49.4196 79.3894 49.7852C80.0292 50.1508 80.7603 50.3335 81.5771 50.3335Z" fill="white"/>
<path d="M96.2224 53.4465C95.1714 53.4465 94.2346 53.2809 93.4064 52.9439C92.5782 52.6069 91.9327 52.1099 91.4758 51.4531C91.0131 50.7905 90.7847 49.9794 90.7847 49.0141C90.7847 48.0316 91.0131 47.2263 91.4758 46.6094C91.9385 45.9925 92.5839 45.507 93.4235 45.1643C94.2632 44.8158 95.1942 44.5817 96.2224 44.456L101.22 43.8277C101.095 42.8624 100.7 42.1598 100.044 41.72C99.381 41.2802 98.5928 41.0574 97.6675 41.0574C96.9763 41.0574 96.2566 41.1888 95.5141 41.4515C94.7716 41.7143 93.949 42.137 93.0466 42.7253L91.8528 40.0521C92.7324 39.401 93.6806 38.904 94.6973 38.5613C95.714 38.2129 96.7593 38.0415 97.8274 38.0415C100.135 38.0415 101.883 38.5499 103.077 39.5666C104.27 40.5833 104.87 42.1084 104.87 44.1418V53.1324H101.414V51.2132C100.849 51.99 100.141 52.5555 99.2954 52.9096C98.4386 53.2694 97.4219 53.4465 96.2224 53.4465ZM97.2334 50.5563C98.0902 50.5563 98.8213 50.3907 99.421 50.0536C100.021 49.7166 100.472 49.2654 100.786 48.6999C101.1 48.1345 101.26 47.5347 101.26 46.9064V46.3695L97.3648 46.8721C96.3766 46.9749 95.6398 47.1806 95.1485 47.4833C94.6573 47.786 94.4117 48.2316 94.4117 48.8199C94.4117 49.3854 94.6573 49.8137 95.1485 50.1108C95.6341 50.4078 96.3309 50.5563 97.2334 50.5563Z" fill="white"/>
<path d="M114.363 59.1698C113.107 59.1698 111.93 58.9813 110.845 58.6044C109.754 58.2274 108.709 57.639 107.703 56.8451L108.897 54.2062C109.862 54.9202 110.782 55.4171 111.662 55.697C112.541 55.9769 113.381 56.1197 114.175 56.1197C115.643 56.1197 116.802 55.737 117.648 54.9716C118.499 54.2062 118.921 53.081 118.921 51.5901V50.3964C118.442 51.0247 117.785 51.533 116.957 51.9214C116.128 52.3098 115.169 52.5041 114.083 52.5041C112.827 52.5041 111.656 52.2242 110.576 51.653C109.497 51.0875 108.634 50.265 107.983 49.1854C107.332 48.1059 107.006 46.8036 107.006 45.2728C107.006 43.7249 107.332 42.4111 107.983 41.343C108.634 40.2749 109.497 39.4581 110.576 38.8926C111.656 38.3271 112.827 38.0415 114.083 38.0415C115.254 38.0415 116.265 38.2643 117.099 38.7041C117.939 39.1439 118.59 39.7094 119.047 40.4006V38.3557H122.474V50.9961C122.474 52.7554 122.149 54.2462 121.498 55.4571C120.846 56.6737 119.921 57.5933 118.716 58.2217C117.511 58.8557 116.06 59.1698 114.363 59.1698ZM114.866 49.5167C115.643 49.5167 116.345 49.3511 116.974 49.0141C117.602 48.6771 118.099 48.203 118.464 47.5861C118.83 46.9692 119.013 46.1981 119.013 45.2728C119.013 44.3475 118.83 43.5821 118.464 42.9595C118.099 42.3426 117.602 41.8628 116.974 41.5315C116.345 41.1945 115.643 41.0289 114.866 41.0289C114.089 41.0289 113.381 41.1945 112.741 41.5315C112.101 41.8685 111.593 42.3426 111.216 42.9595C110.839 43.5764 110.651 44.3475 110.651 45.2728C110.651 46.1981 110.839 46.9635 111.216 47.5861C111.593 48.203 112.101 48.6828 112.741 49.0141C113.381 49.3511 114.089 49.5167 114.866 49.5167Z" fill="white"/>
<path d="M130.048 53.4465C128.997 53.4465 128.06 53.2809 127.232 52.9439C126.404 52.6069 125.759 52.1099 125.302 51.4531C124.839 50.7905 124.61 49.9794 124.61 49.0141C124.61 48.0316 124.839 47.2263 125.302 46.6094C125.764 45.9925 126.41 45.507 127.249 45.1643C128.089 44.8158 129.02 44.5817 130.048 44.456L135.046 43.8277C134.92 42.8624 134.526 42.1598 133.869 41.72C133.207 41.2802 132.419 41.0574 131.493 41.0574C130.802 41.0574 130.082 41.1888 129.34 41.4515C128.597 41.7143 127.775 42.137 126.872 42.7253L125.679 40.0521C126.558 39.401 127.506 38.904 128.523 38.5613C129.54 38.2129 130.579 38.0415 131.653 38.0415C133.961 38.0415 135.709 38.5499 136.902 39.5666C138.096 40.5833 138.696 42.1084 138.696 44.1418V53.1324H135.24V51.2132C134.675 51.99 133.967 52.5555 133.115 52.9096C132.264 53.2694 131.248 53.4465 130.048 53.4465ZM131.059 50.5563C131.916 50.5563 132.647 50.3907 133.247 50.0536C133.847 49.7166 134.298 49.2654 134.612 48.6999C134.926 48.1345 135.086 47.5347 135.086 46.9064V46.3695L131.191 46.8721C130.208 46.9749 129.466 47.1806 128.974 47.4833C128.483 47.786 128.238 48.2316 128.238 48.8199C128.238 49.3854 128.483 49.8137 128.974 50.1108C129.46 50.4078 130.157 50.5563 131.059 50.5563Z" fill="white"/>
<path d="M146.961 53.4465C145.847 53.4465 144.779 53.2809 143.757 52.9439C142.729 52.6069 141.758 52.1271 140.832 51.4988L142.152 48.797C143.094 49.4025 143.974 49.8537 144.791 50.1507C145.607 50.4421 146.361 50.5906 147.053 50.5906C147.995 50.5906 148.698 50.4592 149.16 50.1964C149.623 49.9337 149.851 49.5224 149.851 48.957C149.851 48.5172 149.697 48.1744 149.394 47.9345C149.092 47.6946 148.572 47.5119 147.841 47.3862L145.579 46.9749C144.151 46.7008 143.083 46.2324 142.374 45.5584C141.66 44.8901 141.306 44.0162 141.306 42.9481C141.306 42.0456 141.523 41.2231 141.952 40.4805C142.38 39.738 143.043 39.1439 143.934 38.7041C144.825 38.2643 145.962 38.0415 147.344 38.0415C148.412 38.0415 149.429 38.1958 150.394 38.4985C151.359 38.8012 152.227 39.2182 153.004 39.738L151.748 42.3483C151.057 41.9313 150.348 41.5829 149.623 41.3087C148.897 41.0346 148.183 40.8975 147.469 40.8975C146.67 40.8975 146.047 41.0231 145.602 41.2745C145.15 41.5258 144.928 41.9256 144.928 42.4683C144.928 42.8224 145.076 43.1137 145.368 43.3308C145.659 43.5478 146.133 43.7249 146.784 43.8505L149.046 44.2618C150.491 44.536 151.593 45.0043 152.347 45.6783C153.101 46.3466 153.478 47.3005 153.478 48.54C153.478 49.968 152.936 51.1389 151.845 52.0585C150.748 52.9839 149.12 53.4465 146.961 53.4465Z" fill="white"/>
<path d="M157.402 35.6825C156.751 35.6825 156.237 35.494 155.86 35.1171C155.483 34.7401 155.295 34.2488 155.295 33.6377C155.295 33.0493 155.483 32.5753 155.86 32.2097C156.237 31.8441 156.751 31.6614 157.402 31.6614C158.031 31.6614 158.545 31.8441 158.945 32.2097C159.345 32.5753 159.544 33.0665 159.544 33.6719C159.544 34.2603 159.345 34.7401 158.945 35.1171C158.545 35.494 158.031 35.6825 157.402 35.6825ZM155.609 53.1324V38.3557H159.225V53.1324H155.609Z" fill="white"/>
</svg>
