<svg width="120" height="40" viewBox="0 0 120 40" fill="none" xmlns="http://www.w3.org/2000/svg">
<path d="M25.21 12.7859V33.4635C25.21 35.3212 23.7023 36.8289 21.8446 36.8289H1.16699L25.21 12.7859Z" fill="#25258C"/>
<path d="M34.8328 3.16714L28.4202 9.57966H4.37329L9.1429 4.81005C10.1971 3.75987 11.6212 3.16714 13.109 3.16714H34.8328Z" fill="#FF4200"/>
<path d="M34.8329 3.16714V24.887C34.8329 26.3747 34.2402 27.8028 33.19 28.853L28.4204 33.6266V9.57966L34.8329 3.16714Z" fill="#00A9EA"/>
<path d="M25.21 12.7859L1.16699 36.8329V16.1513C1.16699 14.2936 2.67465 12.7859 4.53237 12.7859H25.21Z" fill="#FF4200"/>
<path d="M45.833 16.3541V5.96491H48.2394V7.24648C48.5298 6.76037 48.9275 6.38674 49.4327 6.12962C49.9378 5.8725 50.5464 5.74394 51.2623 5.74394C51.9624 5.74394 52.567 5.89259 53.0801 6.18587C53.5892 6.47914 53.983 6.89295 54.2614 7.42325C54.5836 6.86482 55.033 6.44299 55.6058 6.16176C56.1825 5.88054 56.8587 5.73993 57.6303 5.73993C58.8276 5.73993 59.7583 6.0774 60.4226 6.75635C61.0868 7.43531 61.4169 8.47985 61.4169 9.89803V16.3541H58.8992V10.2757C58.8992 9.48021 58.7441 8.88964 58.4378 8.50798C58.1315 8.12631 57.6781 7.93348 57.0814 7.93348C56.3655 7.93348 55.8206 8.19863 55.4387 8.72894C55.0609 9.25925 54.8699 10.0105 54.8699 10.9827V16.3541H52.3522V10.2757C52.3522 9.48021 52.197 8.88964 51.8908 8.50798C51.5845 8.12631 51.1311 7.93348 50.5344 7.93348C49.8026 7.93348 49.2577 8.19863 48.8917 8.72894C48.5258 9.25925 48.3428 10.0105 48.3428 10.9827V16.3541H45.833Z" fill="black"/>
<path d="M66.5639 16.5751C65.832 16.5751 65.1797 16.4586 64.6029 16.2216C64.0262 15.9845 63.5767 15.635 63.2585 15.173C62.9364 14.707 62.7773 14.1365 62.7773 13.4575C62.7773 12.7665 62.9364 12.2 63.2585 11.7662C63.5807 11.3323 64.0302 10.9908 64.6149 10.7497C65.1996 10.5047 65.8479 10.34 66.5639 10.2516L70.0442 9.80964C69.9567 9.13069 69.6822 8.63654 69.2248 8.32719C68.7674 8.01784 68.2145 7.86116 67.5742 7.86116C67.0929 7.86116 66.5917 7.95356 66.0746 8.13837C65.5576 8.32317 64.9848 8.62047 64.3563 9.03427L63.525 7.15408C64.1376 6.69609 64.7978 6.34657 65.5058 6.10552C66.2138 5.86045 66.9417 5.73993 67.6855 5.73993C69.2924 5.73993 70.5096 6.09748 71.3409 6.8126C72.1722 7.52771 72.5898 8.60038 72.5898 10.0306V16.3541H70.1834V15.0043C69.7896 15.5506 69.2964 15.9484 68.7038 16.1974C68.1071 16.4505 67.3952 16.5751 66.5639 16.5751ZM67.2679 14.5422C67.8645 14.5422 68.3736 14.4257 68.7913 14.1887C69.2049 13.9517 69.5231 13.6343 69.7419 13.2366C69.9607 12.8388 70.072 12.417 70.072 11.9751V11.5974L67.3594 11.951C66.6752 12.0233 66.1582 12.1679 65.8161 12.3808C65.474 12.5938 65.303 12.9071 65.303 13.3209C65.303 13.7187 65.474 14.02 65.8161 14.2289C66.1542 14.4378 66.6394 14.5422 67.2679 14.5422Z" fill="black"/>
<path d="M78.2101 16.5751C77.4344 16.5751 76.6906 16.4586 75.9787 16.2216C75.2627 15.9845 74.5865 15.6471 73.9422 15.2051L74.861 13.3049C75.5173 13.7307 76.1298 14.0481 76.6986 14.257C77.2674 14.4619 77.7924 14.5663 78.2737 14.5663C78.93 14.5663 79.4192 14.4739 79.7414 14.2891C80.0636 14.1043 80.2227 13.8151 80.2227 13.4173C80.2227 13.108 80.1153 12.867 79.9045 12.6982C79.6937 12.5295 79.3317 12.4009 78.8226 12.3125L77.2475 12.0233C76.2531 11.8304 75.5093 11.501 75.0161 11.0269C74.5189 10.5569 74.2723 9.94222 74.2723 9.19095C74.2723 8.55619 74.4235 7.97767 74.7218 7.45539C75.0201 6.93312 75.4815 6.5153 76.102 6.20596C76.7225 5.89661 77.514 5.73993 78.4765 5.73993C79.2203 5.73993 79.9283 5.8484 80.6005 6.06133C81.2728 6.27425 81.8773 6.56753 82.4183 6.93312L81.5432 8.76911C81.0619 8.47584 80.5687 8.23077 80.0636 8.03793C79.5584 7.84509 79.0612 7.74867 78.5641 7.74867C78.0072 7.74867 77.5737 7.83706 77.2634 8.01382C76.9492 8.19059 76.7941 8.47182 76.7941 8.85348C76.7941 9.10256 76.8975 9.30746 77.1003 9.46012C77.3032 9.6168 77.6333 9.73733 78.0868 9.82571L79.6619 10.115C80.6682 10.3078 81.4358 10.6372 81.9609 11.1113C82.4859 11.5814 82.7484 12.2523 82.7484 13.1241C82.7484 14.1284 82.3705 14.952 81.6108 15.5988C80.8472 16.2537 79.7136 16.5751 78.2101 16.5751Z" fill="black"/>
<path d="M88.655 16.4867C87.4737 16.4867 86.6146 16.2256 86.0816 15.7033C85.5486 15.181 85.2821 14.3574 85.2821 13.2366V8.06204H83.0706V5.96491H85.2821V3H87.7561V5.96491H90.3813V8.06605H87.7561V12.9754C87.7561 13.4455 87.8715 13.803 88.1061 14.036C88.3408 14.2731 88.6988 14.3896 89.1801 14.3896C89.3551 14.3896 89.5619 14.3815 89.8045 14.3655C90.0432 14.3494 90.2381 14.3293 90.3853 14.3012V16.2899C90.1665 16.3501 89.9 16.3983 89.5858 16.4345C89.2676 16.4706 88.9613 16.4867 88.655 16.4867Z" fill="black"/>
<path d="M96.6658 16.5751C95.6157 16.5751 94.6651 16.3702 93.8218 15.9564C92.9746 15.5426 92.3024 14.936 91.8092 14.1325C91.312 13.329 91.0654 12.3366 91.0654 11.1595C91.0654 10.0547 91.2961 9.09453 91.7535 8.28701C92.2149 7.47548 92.8434 6.84875 93.6468 6.40683C94.4503 5.96491 95.3452 5.74394 96.3396 5.74394C97.3618 5.74394 98.2528 5.9408 99.0085 6.3305C99.7682 6.72019 100.353 7.25452 100.771 7.93348C101.188 8.61243 101.395 9.38379 101.395 10.2556C101.395 10.5047 101.363 10.7859 101.296 11.0952C101.232 11.4046 101.144 11.6617 101.045 11.8706H93.5792C93.6508 12.4331 93.8338 12.9071 94.1281 13.2968C94.4185 13.6865 94.8003 13.9838 95.2657 14.1807C95.7311 14.3815 96.2879 14.478 96.9283 14.478C97.5687 14.478 98.1494 14.3775 98.6704 14.1807C99.1875 13.9798 99.6887 13.7146 100.17 13.3732L100.958 15.185C100.373 15.643 99.7245 15.9885 99.0085 16.2256C98.2926 16.4586 97.513 16.5751 96.6658 16.5751ZM93.5792 10.0547H98.8335C98.8494 10.0266 98.8574 9.99445 98.8653 9.96632C98.8733 9.9382 98.8773 9.89401 98.8773 9.83375C98.8773 9.41995 98.7818 9.05837 98.5909 8.74903C98.4 8.43968 98.1295 8.19863 97.7715 8.0299C97.4135 7.86116 96.9561 7.77679 96.4033 7.77679C95.9379 7.77679 95.5083 7.8692 95.1225 8.054C94.7367 8.2388 94.4105 8.50396 94.148 8.84946C93.8855 9.19497 93.6946 9.59672 93.5792 10.0547Z" fill="black"/>
<path d="M102.751 16.3541V5.96491H105.158V7.68841C105.436 7.04159 105.814 6.56753 106.295 6.27425C106.777 5.98098 107.318 5.83233 107.914 5.83233C108.105 5.83233 108.284 5.84438 108.451 5.86447C108.618 5.88456 108.746 5.92071 108.833 5.96491V8.3754C108.63 8.33121 108.423 8.29505 108.22 8.26291C108.018 8.23479 107.819 8.21872 107.628 8.21872C106.956 8.21872 106.395 8.48789 105.941 9.02623C105.488 9.56458 105.261 10.3359 105.261 11.3363V16.3541H102.751Z" fill="black"/>
<path d="M51.7237 32.9745C50.8924 32.9745 50.1844 32.8178 49.5997 32.5084C49.015 32.1991 48.5616 31.7773 48.2434 31.247V32.7495H45.837V17.9812H48.3548V23.7061C48.6769 23.22 49.1224 22.8384 49.6912 22.5571C50.26 22.2759 50.9401 22.1353 51.7277 22.1353C52.6624 22.1353 53.4977 22.3522 54.2335 22.7861C54.9694 23.22 55.5581 23.8427 55.9956 24.6543C56.4331 25.4658 56.6519 26.43 56.6519 27.5509C56.6519 28.6717 56.4331 29.6359 55.9956 30.4475C55.5581 31.259 54.9694 31.8817 54.2335 32.3156C53.4937 32.7575 52.6584 32.9745 51.7237 32.9745ZM51.1549 30.7849C51.7396 30.7849 52.2488 30.6564 52.6863 30.3993C53.1238 30.1421 53.4619 29.7685 53.7045 29.2824C53.9472 28.7963 54.0665 28.2218 54.0665 27.5589C54.0665 26.896 53.9432 26.3255 53.6926 25.8434C53.446 25.3654 53.096 24.9917 52.6545 24.7266C52.209 24.4614 51.7078 24.3288 51.1549 24.3288C50.5861 24.3288 50.077 24.4614 49.6315 24.7266C49.1861 24.9917 48.844 25.3654 48.6014 25.8434C48.3587 26.3215 48.2394 26.892 48.2394 27.5589C48.2394 28.2218 48.3587 28.7963 48.6014 29.2824C48.844 29.7685 49.1861 30.1421 49.6315 30.3993C50.077 30.6564 50.5861 30.7849 51.1549 30.7849Z" fill="black"/>
<path d="M61.3533 32.9745C60.6214 32.9745 59.9691 32.858 59.3924 32.6209C58.8156 32.3839 58.3662 32.0344 58.048 31.5724C57.7258 31.1063 57.5667 30.5359 57.5667 29.8569C57.5667 29.1659 57.7258 28.5994 58.048 28.1655C58.3702 27.7317 58.8196 27.3902 59.4043 27.1491C59.989 26.9041 60.6374 26.7393 61.3533 26.651L64.8336 26.209C64.7461 25.5301 64.4717 25.0359 64.0143 24.7266C63.5529 24.4172 63.004 24.2605 62.3596 24.2605C61.8783 24.2605 61.3772 24.3529 60.8601 24.5378C60.343 24.7226 59.7702 25.0199 59.1418 25.4337L58.3105 23.5535C58.923 23.0955 59.5833 22.746 60.2913 22.5049C60.9993 22.2598 61.7272 22.1393 62.471 22.1393C64.0779 22.1393 65.295 22.4969 66.1263 23.212C66.9576 23.9271 67.3753 24.9998 67.3753 26.43V32.7535H64.9689V31.4036C64.5751 31.95 64.0819 32.3477 63.4932 32.5968C62.8966 32.8499 62.1886 32.9745 61.3533 32.9745ZM62.0573 30.9416C62.654 30.9416 63.1631 30.8251 63.5807 30.5881C63.9984 30.3511 64.3126 30.0337 64.5313 29.6359C64.7501 29.2382 64.8615 28.8164 64.8615 28.3745V27.9968L62.1488 28.3503C61.4607 28.4227 60.9476 28.5673 60.6055 28.7802C60.2635 28.9931 60.0924 29.3065 60.0924 29.7203C60.0924 30.118 60.2635 30.4194 60.6055 30.6283C60.9436 30.8372 61.4289 30.9416 62.0573 30.9416Z" fill="black"/>
<path d="M73.9859 37C73.1109 37 72.2915 36.8674 71.5358 36.6023C70.7761 36.3371 70.0482 35.9233 69.3481 35.3649L70.1794 33.5088C70.8516 34.011 71.492 34.3605 72.1046 34.5574C72.7171 34.7542 73.3018 34.8547 73.8547 34.8547C74.8769 34.8547 75.6843 34.5855 76.273 34.0471C76.8657 33.5088 77.16 32.7174 77.16 31.6688V30.8291C76.8259 31.2711 76.3685 31.6286 75.7917 31.9018C75.215 32.175 74.5468 32.3116 73.791 32.3116C72.916 32.3116 72.1006 32.1147 71.3488 31.713C70.5971 31.3153 69.9965 30.7367 69.543 29.9774C69.0896 29.2181 68.8629 28.3021 68.8629 27.2255C68.8629 26.1367 69.0896 25.2127 69.543 24.4614C69.9965 23.7102 70.5971 23.1357 71.3488 22.7379C72.1006 22.3402 72.916 22.1393 73.791 22.1393C74.6064 22.1393 75.3104 22.296 75.8912 22.6053C76.4759 22.9147 76.9293 23.3124 77.2475 23.7985V22.3603H79.634V31.251C79.634 32.4884 79.4073 33.5369 78.9539 34.3886C78.5004 35.2444 77.8561 35.8912 77.0168 36.3331C76.1775 36.779 75.1672 37 73.9859 37ZM74.3359 30.2104C74.8769 30.2104 75.3661 30.0939 75.8037 29.8569C76.2412 29.6199 76.5872 29.2864 76.8418 28.8525C77.0963 28.4186 77.2236 27.8763 77.2236 27.2255C77.2236 26.5746 77.0963 26.0363 76.8418 25.5984C76.5872 25.1645 76.2412 24.827 75.8037 24.594C75.3661 24.357 74.8769 24.2405 74.3359 24.2405C73.795 24.2405 73.3018 24.357 72.8563 24.594C72.4108 24.831 72.0568 25.1645 71.7943 25.5984C71.5318 26.0323 71.4005 26.5746 71.4005 27.2255C71.4005 27.8763 71.5318 28.4146 71.7943 28.8525C72.0568 29.2864 72.4108 29.6239 72.8563 29.8569C73.3018 30.0939 73.795 30.2104 74.3359 30.2104Z" fill="black"/>
<path d="M84.9082 32.9745C84.1763 32.9745 83.524 32.858 82.9473 32.6209C82.3705 32.3839 81.9211 32.0344 81.6029 31.5724C81.2807 31.1063 81.1216 30.5359 81.1216 29.8569C81.1216 29.1659 81.2807 28.5994 81.6029 28.1655C81.9251 27.7317 82.3745 27.3902 82.9592 27.1491C83.5439 26.9041 84.1923 26.7393 84.9082 26.651L88.3885 26.209C88.301 25.5301 88.0266 25.0359 87.5692 24.7266C87.1078 24.4172 86.5589 24.2605 85.9145 24.2605C85.4332 24.2605 84.9321 24.3529 84.415 24.5378C83.8979 24.7226 83.3251 25.0199 82.6967 25.4337L81.8654 23.5535C82.4779 23.0955 83.1382 22.746 83.8462 22.5049C84.5542 22.2598 85.2781 22.1393 86.0259 22.1393C87.6328 22.1393 88.8499 22.4969 89.6812 23.212C90.5125 23.9271 90.9302 24.9998 90.9302 26.43V32.7535H88.5238V31.4036C88.13 31.95 87.6368 32.3477 87.0441 32.5968C86.4515 32.8499 85.7435 32.9745 84.9082 32.9745ZM85.6122 30.9416C86.2089 30.9416 86.718 30.8251 87.1356 30.5881C87.5533 30.3511 87.8675 30.0337 88.0862 29.6359C88.305 29.2382 88.4164 28.8164 88.4164 28.3745V27.9968L85.7037 28.3503C85.0196 28.4227 84.5025 28.5673 84.1604 28.7802C83.8184 28.9931 83.6473 29.3065 83.6473 29.7203C83.6473 30.118 83.8184 30.4194 84.1604 30.6283C84.4985 30.8372 84.9838 30.9416 85.6122 30.9416Z" fill="black"/>
<path d="M96.6857 32.9745C95.91 32.9745 95.1662 32.858 94.4543 32.6209C93.7383 32.3839 93.0621 32.0464 92.4178 31.6045L93.3366 29.7042C93.9929 30.1301 94.6054 30.4475 95.1742 30.6564C95.743 30.8613 96.268 30.9657 96.7493 30.9657C97.4056 30.9657 97.8948 30.8733 98.217 30.6885C98.5392 30.5037 98.6983 30.2145 98.6983 29.8167C98.6983 29.5074 98.5909 29.2663 98.3801 29.0976C98.1693 28.9289 97.8073 28.8003 97.2982 28.7119L95.7231 28.4227C94.7287 28.2298 93.9849 27.9004 93.4917 27.4263C92.9945 26.9563 92.7479 26.3416 92.7479 25.5903C92.7479 24.9556 92.8991 24.3771 93.1974 23.8548C93.4957 23.3325 93.9571 22.9147 94.5776 22.6053C95.1981 22.296 95.9896 22.1393 96.9522 22.1393C97.6959 22.1393 98.4039 22.2478 99.0761 22.4607C99.7484 22.6736 100.353 22.9669 100.894 23.3325L100.019 25.1685C99.5375 24.8752 99.0443 24.6302 98.5392 24.4373C98.034 24.2445 97.5368 24.1481 97.0397 24.1481C96.4828 24.1481 96.0493 24.2364 95.739 24.4132C95.4248 24.59 95.2697 24.8712 95.2697 25.2529C95.2697 25.502 95.3731 25.7068 95.5759 25.8595C95.7788 26.0122 96.1089 26.1367 96.5624 26.2251L98.1375 26.5144C99.1438 26.7072 99.9114 27.0366 100.436 27.5107C100.961 27.9807 101.224 28.6517 101.224 29.5235C101.224 30.5278 100.846 31.3514 100.086 31.9982C99.3228 32.6491 98.1892 32.9745 96.6857 32.9745Z" fill="black"/>
<path d="M103.957 20.4801C103.503 20.4801 103.145 20.3475 102.883 20.0824C102.62 19.8172 102.489 19.4717 102.489 19.0418C102.489 18.628 102.62 18.2946 102.883 18.0375C103.145 17.7803 103.503 17.6518 103.957 17.6518C104.394 17.6518 104.752 17.7803 105.031 18.0375C105.309 18.2946 105.448 18.6401 105.448 19.0659C105.448 19.4797 105.309 19.8172 105.031 20.0824C104.752 20.3475 104.394 20.4801 103.957 20.4801ZM102.708 32.7535V22.3603H105.225V32.7535H102.708Z" fill="black"/>
</svg>
