<svg width="53" height="53" viewBox="0 0 53 53" fill="none" xmlns="http://www.w3.org/2000/svg">
<rect width="53" height="53" rx="26.5" fill="#FFB1B1"/>
<path d="M27.8642 39.4402L27.4063 39.9617C26.6303 40.8521 25.3455 40.8521 24.5696 39.9617L14.0116 27.9536C11.5312 25.117 11.3149 20.8047 13.5283 17.7137C13.5537 17.6755 13.5792 17.6501 13.6046 17.6119C16.5557 13.605 23.1576 14.3682 25.2692 18.8076V18.8076C25.5438 19.4485 26.4534 19.4468 26.732 18.8076V18.8076C28.8436 14.3682 35.4455 13.6177 38.3967 17.6119C38.4221 17.6501 38.4475 17.6755 38.473 17.7137C40.6863 20.8047 40.4701 25.117 37.9769 27.9536M37.9642 27.9536L31.8966 34.8608C30.9807 35.9039 29.238 35.8912 28.3476 34.8226L23.4375 28.9967" stroke="white" stroke-width="3" stroke-miterlimit="10" stroke-linecap="round"/>
</svg>
