<svg width="18" height="18" viewBox="0 0 21 20" fill="none" xmlns="http://www.w3.org/2000/svg">
<path d="M11.8751 17.3012L11.5814 17.6358C11.0836 18.207 10.2594 18.207 9.76163 17.6358L2.98861 9.93251C1.39736 8.11277 1.25863 5.34644 2.67852 3.36349C2.69484 3.33901 2.71116 3.32269 2.72748 3.29821C4.62066 0.727721 8.85584 1.21734 10.2104 4.06527V4.06527C10.3967 4.46063 10.96 4.45937 11.1489 4.06527V4.06527C12.5035 1.21734 16.7386 0.735881 18.6318 3.29821C18.6481 3.32269 18.6645 3.33901 18.6808 3.36349C20.1007 5.34644 19.9619 8.11277 18.3625 9.93251M18.3544 9.93251L14.462 14.3635C13.8744 15.0327 12.7565 15.0245 12.1853 14.3391L9.0354 10.6017" stroke="#B3B3B3" stroke-width="2" stroke-miterlimit="10" stroke-linecap="round"/>
</svg>
