<svg width="28" height="25" viewBox="0 0 28 25" fill="none" xmlns="http://www.w3.org/2000/svg">
<path d="M15.2366 22.9327L14.8256 23.4007C14.1293 24.1998 12.9763 24.1998 12.28 23.4007L2.80526 12.6246C0.579263 10.079 0.385202 6.20919 2.37147 3.43526C2.3943 3.40101 2.41713 3.37818 2.43996 3.34393C5.08832 -0.2519 11.0129 0.433021 12.9078 4.41698L13.5585 5.79823" stroke="#FF4200" stroke-width="2" stroke-miterlimit="10" stroke-linecap="round"/>
<path d="M24.3004 12.6246L18.8553 18.8231C18.0334 19.7592 16.4695 19.7478 15.6704 18.7889L11.2641 13.5607" stroke="#00A9EA" stroke-width="2" stroke-miterlimit="10" stroke-linecap="round"/>
<path d="M13.5585 5.79823L14.2206 4.41698C16.1155 0.433021 22.0401 -0.240484 24.6885 3.34393C24.7113 3.37818 24.7341 3.40101 24.757 3.43526C26.7432 6.20919 26.5492 10.079 24.3118 12.6246" stroke="#25258C" stroke-width="2" stroke-miterlimit="10" stroke-linecap="round"/>
</svg>
