<svg width="263" height="157" viewBox="0 0 263 157" fill="none" xmlns="http://www.w3.org/2000/svg">
<path d="M33.6587 25.76V13.95C33.6587 9.16999 37.5287 5.29999 42.3087 5.29999H67.6187C72.3987 5.29999 76.2687 9.16999 76.2687 13.95V25.76" stroke="black" stroke-width="5.121" stroke-miterlimit="10" stroke-linecap="round"/>
<path d="M198.889 5.29999H217.809" stroke="#FF4200" stroke-width="10.242" stroke-miterlimit="10" stroke-linecap="round"/>
<path d="M45.4988 5.29999H64.4188" stroke="black" stroke-width="10.242" stroke-miterlimit="10" stroke-linecap="round"/>
<path d="M94.7986 71.74C94.7986 71.74 113.509 67.95 121.349 85.39" stroke="black" stroke-width="10.242" stroke-miterlimit="10" stroke-linecap="round"/>
<path d="M31.8287 156.17C37.0312 156.17 41.2487 149.351 41.2487 140.94C41.2487 132.529 37.0312 125.71 31.8287 125.71C26.6262 125.71 22.4087 132.529 22.4087 140.94C22.4087 149.351 26.6262 156.17 31.8287 156.17Z" fill="black"/>
<path d="M103.349 35.98V124.87C103.349 131.55 97.9486 136.96 91.2786 136.96H18.6386C11.9786 136.96 6.5686 131.56 6.5686 124.87V35.98C6.5686 29.32 11.9686 23.91 18.6386 23.91H91.2786C97.9486 23.92 103.349 29.32 103.349 35.98Z" fill="#E82303"/>
<path d="M94.8086 32.38V114.39C94.8086 120.54 89.8186 125.53 83.6686 125.53H16.6686C12.1886 125.53 8.3486 122.89 6.5686 119.08V35.98C6.5686 29.32 11.9686 23.91 18.6386 23.91H90.9286C93.2886 25.97 94.8086 28.98 94.8086 32.38Z" fill="#FF4200"/>
<path d="M84.5186 156.17C89.7212 156.17 93.9386 149.351 93.9386 140.94C93.9386 132.529 89.7212 125.71 84.5186 125.71C79.3161 125.71 75.0986 132.529 75.0986 140.94C75.0986 149.351 79.3161 156.17 84.5186 156.17Z" fill="black"/>
<path d="M16.5386 84.93C16.5386 84.93 -3.17144 82.97 11.3186 67.63" stroke="black" stroke-width="10.242" stroke-miterlimit="10" stroke-linecap="round"/>
<path d="M34.7386 57.7C34.7386 57.7 42.4486 54.3 49.1386 56.67C49.1386 56.67 49.3586 45.26 43.4786 43.27C37.6086 41.28 32.6886 48.03 34.7386 57.7Z" fill="black"/>
<path d="M52.5386 70.48C52.5386 70.48 53.8886 75.34 57.8286 76.13C61.7686 76.93 63.2186 74.12 63.2186 74.12" stroke="black" stroke-width="2.5605" stroke-miterlimit="10" stroke-linecap="round"/>
<path d="M65.2786 56.67C65.2786 56.67 74.2986 48.74 81.9186 57.13" stroke="black" stroke-width="2.5605" stroke-miterlimit="10" stroke-linecap="round"/>
<path d="M40.9087 47.8C40.9087 48.41 40.7887 49 40.5587 49.47C40.2687 49.44 39.9387 49.4 39.6187 49.4C38.8787 49.4 38.1487 49.5 37.4387 49.71C37.1187 49.2 36.9387 48.55 36.9387 47.8C36.9387 46.2 37.8187 44.9 38.9087 44.9C40.0287 44.9 40.9087 46.2 40.9087 47.8Z" fill="white"/>
<path d="M15.2586 49.71C15.2586 49.71 17.1586 55.49 14.3586 58.91" stroke="black" stroke-width="5.9153" stroke-miterlimit="10" stroke-linecap="round"/>
<path d="M21.3986 63.96C21.3986 63.96 20.1886 60.33 14.0986 64.77" stroke="black" stroke-width="13.8024" stroke-miterlimit="10" stroke-linecap="round"/>
<path d="M43.0786 106.96V100.98H44.4786V101.72C44.6486 101.44 44.8786 101.23 45.1686 101.08C45.4586 100.93 45.8186 100.86 46.2286 100.86C46.6386 100.86 46.9886 100.94 47.2886 101.11C47.5886 101.28 47.8186 101.52 47.9786 101.82C48.1686 101.5 48.4286 101.26 48.7586 101.09C49.0986 100.93 49.4886 100.85 49.9386 100.85C50.6386 100.85 51.1786 101.05 51.5586 101.44C51.9486 101.83 52.1386 102.43 52.1386 103.25V106.97H50.6786V103.47C50.6786 103.01 50.5886 102.67 50.4086 102.45C50.2286 102.23 49.9686 102.12 49.6186 102.12C49.1986 102.12 48.8886 102.27 48.6686 102.58C48.4486 102.89 48.3386 103.32 48.3386 103.88V106.97H46.8786V103.47C46.8786 103.01 46.7886 102.67 46.6086 102.45C46.4286 102.23 46.1686 102.12 45.8186 102.12C45.3986 102.12 45.0786 102.27 44.8686 102.58C44.6586 102.89 44.5486 103.32 44.5486 103.88V106.97H43.0786V106.96Z" fill="white"/>
<path d="M55.1386 107.08C54.7186 107.08 54.3386 107.01 53.9986 106.88C53.6586 106.74 53.3986 106.54 53.2186 106.28C53.0286 106.01 52.9386 105.68 52.9386 105.29C52.9386 104.89 53.0286 104.57 53.2186 104.32C53.4086 104.07 53.6686 103.87 54.0086 103.73C54.3486 103.59 54.7286 103.49 55.1386 103.44L57.1586 103.19C57.1086 102.8 56.9486 102.52 56.6786 102.34C56.4086 102.16 56.0886 102.07 55.7186 102.07C55.4386 102.07 55.1486 102.12 54.8486 102.23C54.5486 102.34 54.2186 102.51 53.8486 102.75L53.3686 101.67C53.7286 101.41 54.1086 101.21 54.5186 101.07C54.9286 100.93 55.3486 100.86 55.7886 100.86C56.7186 100.86 57.4286 101.07 57.9186 101.48C58.3986 101.89 58.6486 102.51 58.6486 103.33V106.97H57.2486V106.18C57.0186 106.49 56.7286 106.72 56.3886 106.87C56.0386 107.01 55.6186 107.08 55.1386 107.08ZM55.5486 105.91C55.8986 105.91 56.1886 105.84 56.4286 105.71C56.6686 105.57 56.8586 105.39 56.9786 105.16C57.1086 104.93 57.1686 104.69 57.1686 104.43V104.21L55.5886 104.41C55.1886 104.45 54.8886 104.54 54.6886 104.66C54.4886 104.78 54.3886 104.96 54.3886 105.2C54.3886 105.43 54.4886 105.6 54.6886 105.72C54.8986 105.85 55.1786 105.91 55.5486 105.91Z" fill="white"/>
<path d="M61.9086 107.08C61.4586 107.08 61.0286 107.01 60.6086 106.88C60.1886 106.74 59.7986 106.55 59.4286 106.29L59.9586 105.2C60.3386 105.45 60.6986 105.63 61.0286 105.75C61.3586 105.87 61.6686 105.93 61.9486 105.93C62.3286 105.93 62.6186 105.88 62.7986 105.77C62.9886 105.66 63.0786 105.5 63.0786 105.27C63.0786 105.09 63.0186 104.95 62.8986 104.86C62.7786 104.76 62.5686 104.69 62.2686 104.64L61.3486 104.47C60.7686 104.36 60.3386 104.17 60.0486 103.9C59.7586 103.63 59.6186 103.28 59.6186 102.84C59.6186 102.48 59.7086 102.14 59.8786 101.84C60.0486 101.54 60.3186 101.3 60.6786 101.12C61.0386 100.94 61.4986 100.85 62.0586 100.85C62.4886 100.85 62.8986 100.91 63.2886 101.03C63.6786 101.15 64.0286 101.32 64.3486 101.53L63.8386 102.59C63.5586 102.42 63.2686 102.28 62.9786 102.17C62.6886 102.06 62.3986 102 62.1086 102C61.7886 102 61.5286 102.05 61.3486 102.15C61.1686 102.25 61.0786 102.41 61.0786 102.63C61.0786 102.77 61.1386 102.89 61.2586 102.98C61.3786 103.07 61.5686 103.14 61.8286 103.19L62.7486 103.36C63.3386 103.47 63.7786 103.66 64.0886 103.93C64.3986 104.2 64.5486 104.59 64.5486 105.09C64.5486 105.67 64.3286 106.14 63.8886 106.52C63.4386 106.9 62.7886 107.08 61.9086 107.08Z" fill="white"/>
<path d="M67.9786 107.03C67.2886 107.03 66.7886 106.88 66.4786 106.58C66.1686 106.28 66.0186 105.81 66.0186 105.16V102.18H64.7286V100.97H66.0186V99.26H67.4586V100.97H68.9886V102.18H67.4586V105.01C67.4586 105.28 67.5286 105.49 67.6586 105.62C67.7986 105.76 67.9986 105.82 68.2786 105.82C68.3786 105.82 68.4986 105.82 68.6386 105.81C68.7786 105.8 68.8886 105.79 68.9786 105.77V106.92C68.8486 106.95 68.6986 106.98 68.5186 107C68.3386 107.02 68.1586 107.03 67.9786 107.03Z" fill="white"/>
<path d="M72.6386 107.08C72.0286 107.08 71.4786 106.96 70.9886 106.72C70.4986 106.48 70.1086 106.13 69.8186 105.67C69.5286 105.21 69.3886 104.64 69.3886 103.96C69.3886 103.32 69.5186 102.77 69.7886 102.31C70.0586 101.84 70.4186 101.48 70.8886 101.23C71.3586 100.98 71.8786 100.85 72.4586 100.85C73.0486 100.85 73.5686 100.96 74.0086 101.19C74.4486 101.41 74.7886 101.72 75.0286 102.11C75.2686 102.5 75.3886 102.95 75.3886 103.45C75.3886 103.59 75.3686 103.76 75.3286 103.93C75.2886 104.11 75.2386 104.26 75.1786 104.38H70.8386C70.8786 104.7 70.9886 104.98 71.1586 105.2C71.3286 105.42 71.5486 105.59 71.8186 105.71C72.0886 105.82 72.4086 105.88 72.7886 105.88C73.1586 105.88 73.4986 105.82 73.7986 105.71C74.0986 105.6 74.3886 105.44 74.6686 105.25L75.1286 106.29C74.7886 106.55 74.4086 106.75 73.9986 106.89C73.5886 107.02 73.1286 107.08 72.6386 107.08ZM70.8486 103.33H73.8986C73.9086 103.31 73.9086 103.3 73.9186 103.28C73.9186 103.26 73.9286 103.24 73.9286 103.2C73.9286 102.96 73.8686 102.75 73.7586 102.58C73.6486 102.4 73.4886 102.26 73.2786 102.17C73.0686 102.07 72.8086 102.02 72.4786 102.02C72.2086 102.02 71.9586 102.07 71.7386 102.18C71.5086 102.29 71.3286 102.44 71.1686 102.64C71.0286 102.83 70.9186 103.07 70.8486 103.33Z" fill="white"/>
<path d="M76.1786 106.96V100.98H77.5786V101.97C77.7386 101.6 77.9586 101.33 78.2386 101.16C78.5186 100.99 78.8286 100.91 79.1786 100.91C79.2886 100.91 79.3886 100.92 79.4886 100.93C79.5886 100.94 79.6586 100.96 79.7086 100.99V102.38C79.5886 102.35 79.4686 102.33 79.3486 102.32C79.2286 102.3 79.1186 102.29 79.0086 102.29C78.6186 102.29 78.2886 102.44 78.0286 102.75C77.7686 103.06 77.6386 103.5 77.6386 104.08V106.97H76.1786V106.96Z" fill="white"/>
<path d="M46.5086 116.52C46.0286 116.52 45.6086 116.43 45.2786 116.25C44.9386 116.07 44.6786 115.83 44.4886 115.52V116.39H43.0886V107.89H44.5486V111.19C44.7386 110.91 44.9986 110.69 45.3286 110.53C45.6586 110.37 46.0586 110.29 46.5086 110.29C47.0486 110.29 47.5386 110.42 47.9686 110.67C48.3986 110.92 48.7386 111.28 48.9886 111.75C49.2386 112.22 49.3686 112.77 49.3686 113.42C49.3686 114.06 49.2386 114.62 48.9886 115.09C48.7386 115.56 48.3886 115.92 47.9686 116.17C47.5386 116.4 47.0486 116.52 46.5086 116.52ZM46.1786 115.26C46.5186 115.26 46.8186 115.19 47.0686 115.04C47.3186 114.89 47.5186 114.68 47.6586 114.4C47.7986 114.12 47.8686 113.79 47.8686 113.41C47.8686 113.03 47.7986 112.7 47.6486 112.42C47.5086 112.14 47.2986 111.93 47.0486 111.78C46.7886 111.63 46.4986 111.55 46.1786 111.55C45.8486 111.55 45.5486 111.63 45.2986 111.78C45.0386 111.93 44.8386 112.15 44.6986 112.42C44.5586 112.7 44.4886 113.02 44.4886 113.41C44.4886 113.8 44.5586 114.12 44.6986 114.4C44.8386 114.68 45.0386 114.89 45.2986 115.04C45.5486 115.19 45.8486 115.26 46.1786 115.26Z" fill="white"/>
<path d="M52.1086 116.52C51.6886 116.52 51.3086 116.45 50.9686 116.32C50.6286 116.18 50.3686 115.98 50.1886 115.72C49.9986 115.45 49.9086 115.12 49.9086 114.73C49.9086 114.33 49.9986 114.01 50.1886 113.76C50.3786 113.51 50.6386 113.31 50.9786 113.17C51.3186 113.03 51.6986 112.93 52.1086 112.88L54.1286 112.63C54.0786 112.24 53.9186 111.96 53.6486 111.78C53.3786 111.6 53.0586 111.51 52.6886 111.51C52.4086 111.51 52.1186 111.56 51.8186 111.67C51.5186 111.78 51.1886 111.95 50.8186 112.19L50.3386 111.11C50.6986 110.85 51.0786 110.65 51.4886 110.51C51.8986 110.37 52.3186 110.3 52.7586 110.3C53.6886 110.3 54.3986 110.51 54.8886 110.92C55.3686 111.33 55.6186 111.95 55.6186 112.77V116.41H54.2186V115.63C53.9886 115.94 53.6986 116.17 53.3586 116.32C53.0086 116.45 52.5886 116.52 52.1086 116.52ZM52.5186 115.35C52.8686 115.35 53.1586 115.28 53.3986 115.15C53.6386 115.01 53.8286 114.83 53.9486 114.6C54.0786 114.37 54.1386 114.13 54.1386 113.87V113.65L52.5586 113.85C52.1586 113.89 51.8586 113.98 51.6586 114.1C51.4586 114.22 51.3586 114.4 51.3586 114.64C51.3586 114.87 51.4586 115.04 51.6586 115.16C51.8686 115.29 52.1486 115.35 52.5186 115.35Z" fill="white"/>
<path d="M59.4486 118.84C58.9386 118.84 58.4686 118.76 58.0186 118.61C57.5786 118.46 57.1486 118.22 56.7486 117.9L57.2286 116.83C57.6186 117.12 57.9886 117.32 58.3486 117.43C58.7086 117.54 59.0486 117.6 59.3686 117.6C59.9586 117.6 60.4286 117.45 60.7786 117.14C61.1186 116.83 61.2986 116.37 61.2986 115.77V115.29C61.0986 115.54 60.8386 115.75 60.4986 115.91C60.1586 116.07 59.7786 116.15 59.3386 116.15C58.8286 116.15 58.3586 116.04 57.9186 115.81C57.4786 115.58 57.1286 115.25 56.8686 114.81C56.6086 114.37 56.4786 113.84 56.4786 113.23C56.4786 112.6 56.6086 112.07 56.8686 111.64C57.1286 111.21 57.4786 110.88 57.9186 110.65C58.3586 110.42 58.8286 110.31 59.3386 110.31C59.8186 110.31 60.2186 110.4 60.5586 110.58C60.8986 110.76 61.1586 110.99 61.3486 111.27V110.44H62.7386V115.56C62.7386 116.27 62.6086 116.88 62.3486 117.37C62.0886 117.86 61.7086 118.24 61.2186 118.49C60.7286 118.71 60.1386 118.84 59.4486 118.84ZM59.6586 114.93C59.9686 114.93 60.2586 114.86 60.5086 114.73C60.7586 114.59 60.9686 114.4 61.1086 114.15C61.2586 113.9 61.3286 113.59 61.3286 113.21C61.3286 112.83 61.2586 112.52 61.1086 112.27C60.9586 112.02 60.7586 111.83 60.5086 111.69C60.2586 111.55 59.9686 111.49 59.6586 111.49C59.3486 111.49 59.0586 111.56 58.7986 111.69C58.5386 111.83 58.3386 112.02 58.1786 112.27C58.0286 112.52 57.9486 112.83 57.9486 113.21C57.9486 113.59 58.0286 113.9 58.1786 114.15C58.3286 114.4 58.5386 114.59 58.7986 114.73C59.0586 114.86 59.3386 114.93 59.6586 114.93Z" fill="white"/>
<path d="M65.8086 116.52C65.3886 116.52 65.0086 116.45 64.6686 116.32C64.3286 116.18 64.0686 115.98 63.8886 115.72C63.6986 115.45 63.6086 115.12 63.6086 114.73C63.6086 114.33 63.6986 114.01 63.8886 113.76C64.0786 113.51 64.3386 113.31 64.6786 113.17C65.0186 113.03 65.3986 112.93 65.8086 112.88L67.8286 112.63C67.7786 112.24 67.6186 111.96 67.3486 111.78C67.0786 111.6 66.7586 111.51 66.3886 111.51C66.1086 111.51 65.8186 111.56 65.5186 111.67C65.2186 111.78 64.8886 111.95 64.5186 112.19L64.0386 111.11C64.3986 110.85 64.7786 110.65 65.1886 110.51C65.5986 110.37 66.0186 110.3 66.4586 110.3C67.3886 110.3 68.0986 110.51 68.5886 110.92C69.0686 111.33 69.3186 111.95 69.3186 112.77V116.41H67.9186V115.63C67.6886 115.94 67.3986 116.17 67.0586 116.32C66.6986 116.45 66.2886 116.52 65.8086 116.52ZM66.2086 115.35C66.5586 115.35 66.8486 115.28 67.0886 115.15C67.3286 115.01 67.5186 114.83 67.6386 114.6C67.7686 114.37 67.8286 114.13 67.8286 113.87V113.65L66.2486 113.85C65.8486 113.89 65.5486 113.98 65.3486 114.1C65.1486 114.22 65.0486 114.4 65.0486 114.64C65.0486 114.87 65.1486 115.04 65.3486 115.16C65.5686 115.29 65.8486 115.35 66.2086 115.35Z" fill="white"/>
<path d="M72.6486 116.52C72.1986 116.52 71.7686 116.45 71.3486 116.32C70.9286 116.18 70.5386 115.99 70.1686 115.73L70.6986 114.64C71.0786 114.89 71.4386 115.07 71.7686 115.19C72.0986 115.31 72.4086 115.37 72.6886 115.37C73.0686 115.37 73.3586 115.32 73.5386 115.21C73.7286 115.1 73.8186 114.94 73.8186 114.71C73.8186 114.53 73.7586 114.39 73.6386 114.3C73.5186 114.2 73.3086 114.13 73.0086 114.08L72.0886 113.91C71.5086 113.8 71.0786 113.61 70.7886 113.34C70.4986 113.07 70.3586 112.72 70.3586 112.28C70.3586 111.92 70.4486 111.58 70.6186 111.28C70.7886 110.98 71.0586 110.74 71.4186 110.56C71.7786 110.38 72.2386 110.29 72.7986 110.29C73.2286 110.29 73.6386 110.35 74.0286 110.47C74.4186 110.59 74.7686 110.76 75.0886 110.97L74.5786 112.03C74.2986 111.86 74.0086 111.72 73.7186 111.61C73.4286 111.5 73.1386 111.44 72.8486 111.44C72.5286 111.44 72.2686 111.49 72.0886 111.59C71.9086 111.69 71.8186 111.85 71.8186 112.07C71.8186 112.21 71.8786 112.33 71.9986 112.42C72.1186 112.51 72.3086 112.58 72.5686 112.63L73.4886 112.8C74.0786 112.91 74.5186 113.1 74.8286 113.37C75.1386 113.64 75.2886 114.03 75.2886 114.53C75.2886 115.11 75.0686 115.58 74.6286 115.96C74.1886 116.34 73.5286 116.52 72.6486 116.52Z" fill="white"/>
<path d="M76.8786 109.33C76.6186 109.33 76.4086 109.25 76.2586 109.1C76.1086 108.95 76.0286 108.75 76.0286 108.5C76.0286 108.26 76.1086 108.07 76.2586 107.92C76.4086 107.77 76.6186 107.7 76.8786 107.7C77.1286 107.7 77.3386 107.77 77.4986 107.92C77.6586 108.07 77.7386 108.27 77.7386 108.51C77.7386 108.75 77.6586 108.94 77.4986 109.1C77.3386 109.26 77.1386 109.33 76.8786 109.33ZM76.1586 116.4V110.42H77.6186V116.4H76.1586Z" fill="white"/>
<path d="M39.1886 100.99V110.92C39.1886 111.6 38.9186 112.26 38.4386 112.74L36.2586 114.92V103.93H25.2786L27.4586 101.74C27.9386 101.26 28.5886 100.99 29.2686 100.99H39.1886Z" fill="white"/>
<path d="M25.3486 105.4C24.4986 105.4 23.8086 106.08 23.8086 106.93V116.4H33.2586C34.1086 116.4 34.7986 115.71 34.7986 114.86V105.41H25.3486V105.4ZM34.0386 114.85C34.0386 115.27 33.6886 115.61 33.2586 115.61H24.5786L34.0286 106.16V114.85H34.0386Z" fill="white"/>
<path d="M236.519 155.87C241.721 155.87 245.939 149.051 245.939 140.64C245.939 132.229 241.721 125.41 236.519 125.41C231.316 125.41 227.099 132.229 227.099 140.64C227.099 149.051 231.316 155.87 236.519 155.87Z" fill="#FF4200"/>
<path d="M186.559 25.46V13.65C186.559 8.87 190.429 5 195.209 5H220.519C225.299 5 229.169 8.87 229.169 13.65V25.46" stroke="#FF4200" stroke-width="5.121" stroke-miterlimit="10" stroke-linecap="round"/>
<path d="M183.829 155.87C189.031 155.87 193.249 149.051 193.249 140.64C193.249 132.229 189.031 125.41 183.829 125.41C178.626 125.41 174.409 132.229 174.409 140.64C174.409 149.051 178.626 155.87 183.829 155.87Z" fill="#FF4200"/>
<path d="M243.279 136.65H170.649C163.979 136.65 158.579 131.24 158.579 124.58V35.69C158.579 29.02 163.989 23.62 170.649 23.62H243.279C249.949 23.62 255.349 29.03 255.349 35.69V124.58C255.349 131.25 249.949 136.65 243.279 136.65Z" fill="#231F20"/>
<path d="M246.809 32.08V114.09C246.809 120.24 241.819 125.23 235.669 125.23H168.669C164.189 125.23 160.349 122.59 158.569 118.78V35.69C158.569 29.03 163.969 23.62 170.639 23.62H242.929C245.299 25.67 246.809 28.69 246.809 32.08Z" fill="black"/>
<path d="M189.139 57.47C187.389 57.47 185.969 56.05 185.969 54.3V45.97C185.969 44.22 187.389 42.8 189.139 42.8C190.889 42.8 192.309 44.22 192.309 45.97V54.3C192.319 56.05 190.899 57.47 189.139 57.47Z" fill="white"/>
<path d="M222.609 57.47C220.859 57.47 219.439 56.05 219.439 54.3V45.97C219.439 44.22 220.859 42.8 222.609 42.8C224.359 42.8 225.779 44.22 225.779 45.97V54.3C225.779 56.05 224.359 57.47 222.609 57.47Z" fill="white"/>
<path d="M247.349 77.83C247.349 77.83 260.419 81.34 256.999 93.89C253.579 106.44 240.549 106.02 240.549 106.02" stroke="#FF4200" stroke-width="10.242" stroke-miterlimit="10" stroke-linecap="round"/>
<path d="M154.369 74.42C154.369 74.42 152.799 87.82 163.359 89.62C173.929 91.42 177.819 79.28 177.819 79.28" stroke="#FF4200" stroke-width="10.242" stroke-miterlimit="10" stroke-linecap="round"/>
<path d="M219.929 69.15C220.219 69.15 220.459 69.39 220.459 69.68V73.09C220.459 79.53 215.219 84.77 208.779 84.77H203.779C197.339 84.77 192.099 79.53 192.099 73.09V69.68C192.099 69.39 192.339 69.15 192.629 69.15H219.929ZM219.929 67.18H192.629C191.249 67.18 190.129 68.3 190.129 69.68V73.09C190.129 80.63 196.239 86.74 203.779 86.74H208.779C216.319 86.74 222.429 80.63 222.429 73.09V69.68C222.429 68.3 221.309 67.18 219.929 67.18Z" fill="white"/>
<path d="M195.169 106.96V100.98H196.569V101.72C196.739 101.44 196.969 101.23 197.259 101.08C197.549 100.93 197.909 100.86 198.319 100.86C198.729 100.86 199.079 100.94 199.379 101.11C199.679 101.28 199.909 101.52 200.069 101.82C200.259 101.5 200.519 101.26 200.849 101.09C201.189 100.93 201.579 100.85 202.029 100.85C202.729 100.85 203.269 101.05 203.649 101.44C204.039 101.83 204.229 102.43 204.229 103.25V106.97H202.769V103.47C202.769 103.01 202.679 102.67 202.499 102.45C202.319 102.23 202.059 102.12 201.709 102.12C201.289 102.12 200.979 102.27 200.759 102.58C200.539 102.89 200.429 103.32 200.429 103.88V106.97H198.969V103.47C198.969 103.01 198.879 102.67 198.699 102.45C198.519 102.23 198.259 102.12 197.909 102.12C197.489 102.12 197.169 102.27 196.959 102.58C196.749 102.89 196.639 103.32 196.639 103.88V106.97H195.169V106.96Z" fill="white"/>
<path d="M207.229 107.08C206.809 107.08 206.429 107.01 206.089 106.88C205.749 106.74 205.489 106.54 205.309 106.28C205.119 106.01 205.029 105.68 205.029 105.29C205.029 104.89 205.119 104.57 205.309 104.32C205.499 104.07 205.759 103.87 206.099 103.73C206.439 103.59 206.819 103.49 207.229 103.44L209.249 103.19C209.199 102.8 209.039 102.52 208.769 102.34C208.499 102.16 208.179 102.07 207.809 102.07C207.529 102.07 207.239 102.12 206.939 102.23C206.639 102.34 206.309 102.51 205.939 102.75L205.459 101.67C205.819 101.41 206.199 101.21 206.609 101.07C207.019 100.93 207.439 100.86 207.879 100.86C208.809 100.86 209.519 101.07 210.009 101.48C210.489 101.89 210.739 102.51 210.739 103.33V106.97H209.339V106.18C209.109 106.49 208.819 106.72 208.479 106.87C208.119 107.01 207.709 107.08 207.229 107.08ZM207.629 105.91C207.979 105.91 208.269 105.84 208.509 105.71C208.749 105.57 208.939 105.39 209.059 105.16C209.189 104.93 209.249 104.69 209.249 104.43V104.21L207.669 104.41C207.269 104.45 206.969 104.54 206.769 104.66C206.569 104.78 206.469 104.96 206.469 105.2C206.469 105.43 206.569 105.6 206.769 105.72C206.989 105.85 207.269 105.91 207.629 105.91Z" fill="white"/>
<path d="M213.999 107.08C213.549 107.08 213.119 107.01 212.699 106.88C212.279 106.74 211.889 106.55 211.519 106.29L212.049 105.2C212.429 105.45 212.789 105.63 213.119 105.75C213.449 105.87 213.759 105.93 214.039 105.93C214.419 105.93 214.709 105.88 214.889 105.77C215.079 105.66 215.169 105.5 215.169 105.27C215.169 105.09 215.109 104.95 214.989 104.86C214.869 104.76 214.659 104.69 214.359 104.64L213.439 104.47C212.859 104.36 212.429 104.17 212.139 103.9C211.849 103.63 211.709 103.28 211.709 102.84C211.709 102.48 211.799 102.14 211.969 101.84C212.139 101.54 212.409 101.3 212.769 101.12C213.129 100.94 213.589 100.85 214.149 100.85C214.579 100.85 214.989 100.91 215.379 101.03C215.769 101.15 216.119 101.32 216.439 101.53L215.929 102.59C215.649 102.42 215.359 102.28 215.069 102.17C214.779 102.06 214.489 102 214.199 102C213.879 102 213.619 102.05 213.439 102.15C213.259 102.25 213.169 102.41 213.169 102.63C213.169 102.77 213.229 102.89 213.349 102.98C213.469 103.07 213.659 103.14 213.919 103.19L214.839 103.36C215.429 103.47 215.869 103.66 216.179 103.93C216.489 104.2 216.639 104.59 216.639 105.09C216.639 105.67 216.419 106.14 215.979 106.52C215.529 106.9 214.869 107.08 213.999 107.08Z" fill="white"/>
<path d="M220.069 107.03C219.379 107.03 218.879 106.88 218.569 106.58C218.259 106.28 218.109 105.81 218.109 105.16V102.18H216.819V100.97H218.109V99.26H219.549V100.97H221.079V102.18H219.549V105.01C219.549 105.28 219.619 105.49 219.749 105.62C219.889 105.76 220.089 105.82 220.369 105.82C220.469 105.82 220.589 105.82 220.729 105.81C220.869 105.8 220.979 105.79 221.069 105.77V106.92C220.939 106.95 220.789 106.98 220.609 107C220.429 107.02 220.249 107.03 220.069 107.03Z" fill="white"/>
<path d="M224.729 107.08C224.119 107.08 223.569 106.96 223.079 106.72C222.589 106.48 222.199 106.13 221.909 105.67C221.619 105.21 221.479 104.64 221.479 103.96C221.479 103.32 221.609 102.77 221.879 102.31C222.149 101.84 222.509 101.48 222.979 101.23C223.449 100.98 223.969 100.85 224.549 100.85C225.139 100.85 225.659 100.96 226.099 101.19C226.539 101.41 226.879 101.72 227.119 102.11C227.359 102.5 227.479 102.95 227.479 103.45C227.479 103.59 227.459 103.76 227.419 103.93C227.379 104.11 227.329 104.26 227.269 104.38H222.929C222.969 104.7 223.079 104.98 223.249 105.2C223.419 105.42 223.639 105.59 223.909 105.71C224.179 105.82 224.499 105.88 224.879 105.88C225.259 105.88 225.589 105.82 225.889 105.71C226.189 105.6 226.479 105.44 226.759 105.25L227.219 106.29C226.879 106.55 226.499 106.75 226.089 106.89C225.679 107.02 225.219 107.08 224.729 107.08ZM222.939 103.33H225.989C225.999 103.31 225.999 103.3 226.009 103.28C226.009 103.26 226.019 103.24 226.019 103.2C226.019 102.96 225.959 102.75 225.849 102.58C225.739 102.4 225.579 102.26 225.369 102.17C225.159 102.07 224.899 102.02 224.569 102.02C224.299 102.02 224.049 102.07 223.829 102.18C223.599 102.29 223.419 102.44 223.259 102.64C223.109 102.83 222.999 103.07 222.939 103.33Z" fill="white"/>
<path d="M228.269 106.96V100.98H229.669V101.97C229.829 101.6 230.049 101.33 230.329 101.16C230.609 100.99 230.919 100.91 231.269 100.91C231.379 100.91 231.479 100.92 231.579 100.93C231.679 100.94 231.749 100.96 231.799 100.99V102.38C231.679 102.35 231.559 102.33 231.439 102.32C231.319 102.3 231.209 102.29 231.099 102.29C230.709 102.29 230.379 102.44 230.119 102.75C229.859 103.06 229.729 103.5 229.729 104.08V106.97H228.269V106.96Z" fill="white"/>
<path d="M198.599 116.52C198.119 116.52 197.699 116.43 197.369 116.25C197.029 116.07 196.769 115.83 196.579 115.52V116.39H195.179V107.89H196.639V111.19C196.829 110.91 197.089 110.69 197.419 110.53C197.749 110.37 198.149 110.29 198.599 110.29C199.139 110.29 199.629 110.42 200.059 110.67C200.489 110.92 200.829 111.28 201.079 111.75C201.329 112.22 201.459 112.77 201.459 113.42C201.459 114.06 201.329 114.62 201.079 115.09C200.829 115.56 200.479 115.92 200.059 116.17C199.629 116.4 199.139 116.52 198.599 116.52ZM198.269 115.26C198.609 115.26 198.909 115.19 199.159 115.04C199.409 114.89 199.609 114.68 199.749 114.4C199.889 114.12 199.959 113.79 199.959 113.41C199.959 113.03 199.889 112.7 199.739 112.42C199.599 112.14 199.389 111.93 199.139 111.78C198.879 111.63 198.589 111.55 198.269 111.55C197.939 111.55 197.639 111.63 197.389 111.78C197.129 111.93 196.929 112.15 196.789 112.42C196.649 112.7 196.579 113.02 196.579 113.41C196.579 113.8 196.649 114.12 196.789 114.4C196.929 114.68 197.129 114.89 197.389 115.04C197.639 115.19 197.939 115.26 198.269 115.26Z" fill="white"/>
<path d="M204.199 116.52C203.779 116.52 203.399 116.45 203.059 116.32C202.719 116.18 202.459 115.98 202.279 115.72C202.089 115.45 201.999 115.12 201.999 114.73C201.999 114.33 202.089 114.01 202.279 113.76C202.469 113.51 202.729 113.31 203.069 113.17C203.409 113.03 203.789 112.93 204.199 112.88L206.219 112.63C206.169 112.24 206.009 111.96 205.739 111.78C205.469 111.6 205.149 111.51 204.779 111.51C204.499 111.51 204.209 111.56 203.909 111.67C203.609 111.78 203.279 111.95 202.909 112.19L202.429 111.11C202.789 110.85 203.169 110.65 203.579 110.51C203.989 110.37 204.409 110.3 204.849 110.3C205.779 110.3 206.489 110.51 206.979 110.92C207.459 111.33 207.709 111.95 207.709 112.77V116.41H206.309V115.63C206.079 115.94 205.789 116.17 205.449 116.32C205.099 116.45 204.679 116.52 204.199 116.52ZM204.609 115.35C204.959 115.35 205.249 115.28 205.489 115.15C205.729 115.01 205.919 114.83 206.039 114.6C206.169 114.37 206.229 114.13 206.229 113.87V113.65L204.649 113.85C204.249 113.89 203.949 113.98 203.749 114.1C203.549 114.22 203.449 114.4 203.449 114.64C203.449 114.87 203.549 115.04 203.749 115.16C203.959 115.29 204.239 115.35 204.609 115.35Z" fill="white"/>
<path d="M211.539 118.84C211.029 118.84 210.559 118.76 210.109 118.61C209.669 118.46 209.239 118.22 208.839 117.9L209.319 116.83C209.709 117.12 210.079 117.32 210.439 117.43C210.799 117.54 211.139 117.6 211.459 117.6C212.049 117.6 212.519 117.45 212.869 117.14C213.209 116.83 213.389 116.37 213.389 115.77V115.29C213.189 115.54 212.929 115.75 212.589 115.91C212.249 116.07 211.869 116.15 211.429 116.15C210.919 116.15 210.449 116.04 210.009 115.81C209.569 115.58 209.219 115.25 208.959 114.81C208.699 114.37 208.569 113.84 208.569 113.23C208.569 112.6 208.699 112.07 208.959 111.64C209.219 111.21 209.569 110.88 210.009 110.65C210.449 110.42 210.919 110.31 211.429 110.31C211.909 110.31 212.309 110.4 212.649 110.58C212.989 110.76 213.249 110.99 213.439 111.27V110.44H214.829V115.56C214.829 116.27 214.699 116.88 214.439 117.37C214.179 117.86 213.799 118.24 213.309 118.49C212.819 118.71 212.229 118.84 211.539 118.84ZM211.749 114.93C212.059 114.93 212.349 114.86 212.599 114.73C212.849 114.59 213.059 114.4 213.199 114.15C213.349 113.9 213.419 113.59 213.419 113.21C213.419 112.83 213.349 112.52 213.199 112.27C213.049 112.02 212.849 111.83 212.599 111.69C212.349 111.55 212.059 111.49 211.749 111.49C211.439 111.49 211.149 111.56 210.889 111.69C210.629 111.83 210.429 112.02 210.269 112.27C210.119 112.52 210.039 112.83 210.039 113.21C210.039 113.59 210.119 113.9 210.269 114.15C210.419 114.4 210.629 114.59 210.889 114.73C211.149 114.86 211.429 114.93 211.749 114.93Z" fill="white"/>
<path d="M217.889 116.52C217.469 116.52 217.089 116.45 216.749 116.32C216.409 116.18 216.149 115.98 215.969 115.72C215.779 115.45 215.689 115.12 215.689 114.73C215.689 114.33 215.779 114.01 215.969 113.76C216.159 113.51 216.419 113.31 216.759 113.17C217.099 113.03 217.479 112.93 217.889 112.88L219.909 112.63C219.859 112.24 219.699 111.96 219.429 111.78C219.159 111.6 218.839 111.51 218.469 111.51C218.189 111.51 217.899 111.56 217.599 111.67C217.299 111.78 216.969 111.95 216.599 112.19L216.119 111.11C216.479 110.85 216.859 110.65 217.269 110.51C217.679 110.37 218.099 110.3 218.539 110.3C219.469 110.3 220.179 110.51 220.669 110.92C221.149 111.33 221.399 111.95 221.399 112.77V116.41H219.999V115.63C219.769 115.94 219.479 116.17 219.139 116.32C218.789 116.45 218.379 116.52 217.889 116.52ZM218.299 115.35C218.649 115.35 218.939 115.28 219.179 115.15C219.419 115.01 219.609 114.83 219.729 114.6C219.859 114.37 219.919 114.13 219.919 113.87V113.65L218.339 113.85C217.939 113.89 217.639 113.98 217.439 114.1C217.239 114.22 217.139 114.4 217.139 114.64C217.139 114.87 217.239 115.04 217.439 115.16C217.649 115.29 217.939 115.35 218.299 115.35Z" fill="white"/>
<path d="M224.739 116.52C224.289 116.52 223.859 116.45 223.439 116.32C223.019 116.18 222.629 115.99 222.259 115.73L222.789 114.64C223.169 114.89 223.529 115.07 223.859 115.19C224.189 115.31 224.499 115.37 224.779 115.37C225.159 115.37 225.449 115.32 225.629 115.21C225.819 115.1 225.909 114.94 225.909 114.71C225.909 114.53 225.849 114.39 225.729 114.3C225.609 114.2 225.399 114.13 225.099 114.08L224.179 113.91C223.599 113.8 223.169 113.61 222.879 113.34C222.589 113.07 222.449 112.72 222.449 112.28C222.449 111.92 222.539 111.58 222.709 111.28C222.879 110.98 223.149 110.74 223.509 110.56C223.869 110.38 224.329 110.29 224.889 110.29C225.319 110.29 225.729 110.35 226.119 110.47C226.509 110.59 226.859 110.76 227.179 110.97L226.669 112.03C226.389 111.86 226.099 111.72 225.809 111.61C225.519 111.5 225.229 111.44 224.939 111.44C224.619 111.44 224.359 111.49 224.179 111.59C223.999 111.69 223.909 111.85 223.909 112.07C223.909 112.21 223.969 112.33 224.089 112.42C224.209 112.51 224.399 112.58 224.659 112.63L225.579 112.8C226.169 112.91 226.609 113.1 226.919 113.37C227.229 113.64 227.379 114.03 227.379 114.53C227.379 115.11 227.159 115.58 226.719 115.96C226.269 116.34 225.619 116.52 224.739 116.52Z" fill="white"/>
<path d="M228.969 109.33C228.709 109.33 228.499 109.25 228.349 109.1C228.199 108.95 228.119 108.75 228.119 108.5C228.119 108.26 228.199 108.07 228.349 107.92C228.499 107.77 228.709 107.7 228.969 107.7C229.219 107.7 229.429 107.77 229.589 107.92C229.749 108.07 229.829 108.27 229.829 108.51C229.829 108.75 229.749 108.94 229.589 109.1C229.429 109.26 229.219 109.33 228.969 109.33ZM228.239 116.4V110.42H229.699V116.4H228.239Z" fill="white"/>
<path d="M191.279 100.99V110.92C191.279 111.6 191.009 112.26 190.529 112.74L188.349 114.92V103.93H177.359L179.539 101.74C180.019 101.26 180.669 100.99 181.349 100.99H191.279Z" fill="white"/>
<path d="M177.429 105.4C176.579 105.4 175.889 106.08 175.889 106.93V116.4H185.339C186.189 116.4 186.879 115.71 186.879 114.86V105.41H177.429V105.4ZM186.119 114.85C186.119 115.27 185.769 115.61 185.339 115.61H176.659L186.109 106.16V114.85H186.119Z" fill="white"/>
</svg>
