<svg width="27" height="27" viewBox="0 0 27 27" fill="none" xmlns="http://www.w3.org/2000/svg">
<path d="M9 18.5L18.5 9M24.6562 15.5599L23.6978 16.518C23.1501 17.0654 22.8489 17.8045 22.8489 18.571V19.9397C22.8489 21.5411 21.5482 22.8413 19.9463 22.8413H18.5771C17.8103 22.8413 17.071 23.1424 16.5233 23.6899L15.5649 24.648C14.4285 25.784 12.5938 25.784 11.4574 24.648L10.4989 23.6899C9.95126 23.1424 9.2119 22.8413 8.44516 22.8413H7.07598C5.47404 22.8413 4.17332 21.5411 4.17332 19.9397V18.5847C4.17332 17.8182 3.8721 17.0791 3.32443 16.5316L2.35231 15.5599C1.2159 14.4239 1.2159 12.5898 2.35231 11.4538L3.32443 10.482C3.8721 9.93456 4.17332 9.19547 4.17332 8.429V7.074C4.17332 5.47263 5.47404 4.17237 7.07598 4.17237H8.43147C9.19821 4.17237 9.93756 3.87126 10.4852 3.32378L11.4574 2.35201C12.5938 1.216 14.4285 1.216 15.5649 2.35201L16.537 3.32378C17.0847 3.87126 17.824 4.17237 18.5908 4.17237H19.96C21.5619 4.17237 22.8626 5.47263 22.8626 7.074V8.44269C22.8626 9.20915 23.1638 9.94825 23.7115 10.4957L24.6699 11.4538C25.779 12.5898 25.779 14.4239 24.6562 15.5599ZM10.5 10.5C10.5 11.0523 10.0523 11.5 9.5 11.5C8.94772 11.5 8.5 11.0523 8.5 10.5C8.5 9.94772 8.94772 9.5 9.5 9.5C10.0523 9.5 10.5 9.94772 10.5 10.5ZM17.5 17.5C17.5 18.0523 17.0523 18.5 16.5 18.5C15.9477 18.5 15.5 18.0523 15.5 17.5C15.5 16.9477 15.9477 16.5 16.5 16.5C17.0523 16.5 17.5 16.9477 17.5 17.5Z" stroke="#FF4200" stroke-width="2" stroke-miterlimit="10" stroke-linecap="round"/>
</svg>
