<svg width="53" height="53" viewBox="0 0 53 53" fill="none" xmlns="http://www.w3.org/2000/svg">
<rect width="53" height="53" rx="26.5" fill="#F4F4F4"/>
<path d="M36.7313 34.3969H21.7886C20.8299 34.3969 20.0082 33.7122 19.8104 32.784L17.5736 21.5997C17.3301 20.352 18.2736 19.1955 19.5517 19.1955H38.9834C40.2616 19.1955 41.205 20.352 40.9616 21.5997L38.7247 32.784C38.5269 33.7274 37.7052 34.3969 36.7313 34.3969Z" stroke="#25258C" stroke-width="3" stroke-miterlimit="10" stroke-linecap="round" stroke-linejoin="round"/>
<path d="M36.7313 34.3969H21.7886C20.8299 34.3969 20.0082 33.7122 19.8104 32.784L17.5736 21.5997C17.3301 20.352 18.2736 19.1955 19.5517 19.1955H38.9834C40.2616 19.1955 41.205 20.352 40.9616 21.5997L38.7247 32.784C38.5269 33.7274 37.7052 34.3969 36.7313 34.3969Z" stroke="#25258C" stroke-width="3" stroke-miterlimit="10" stroke-linecap="round" stroke-linejoin="round"/>
<path d="M21.7886 34.3969C20.8299 34.3969 20.0082 33.7122 19.8104 32.784L17.5736 21.5997C17.3301 20.352 18.2736 19.1955 19.5517 19.1955H32" stroke="#FF4200" stroke-width="3" stroke-miterlimit="10" stroke-linecap="round" stroke-linejoin="round"/>
<path d="M24.695 38.9619C25.5354 38.9619 26.2166 38.2806 26.2166 37.4402C26.2166 36.5999 25.5354 35.9186 24.695 35.9186C23.8546 35.9186 23.1733 36.5999 23.1733 37.4402C23.1733 38.2806 23.8546 38.9619 24.695 38.9619Z" stroke="#00A9EA" stroke-width="3" stroke-miterlimit="10" stroke-linecap="round" stroke-linejoin="round"/>
<path d="M35.3466 38.9619C36.187 38.9619 36.8683 38.2806 36.8683 37.4402C36.8683 36.5999 36.187 35.9186 35.3466 35.9186C34.5062 35.9186 33.825 36.5999 33.825 37.4402C33.825 38.2806 34.5062 38.9619 35.3466 38.9619Z" stroke="#00A9EA" stroke-width="3" stroke-miterlimit="10" stroke-linecap="round" stroke-linejoin="round"/>
<path d="M17.9236 29.2689L15.6106 17.7043C15.4128 16.7152 14.5303 16 13.526 16H11" stroke="#FF4200" stroke-width="3" stroke-miterlimit="10" stroke-linecap="round" stroke-linejoin="round"/>
</svg>
