<svg width="32" height="32" viewBox="0 0 36 36" fill="none" xmlns="http://www.w3.org/2000/svg">
<path d="M10.0421 22.0541L7.83482 11.0177C7.64604 10.0738 6.81832 9.39133 5.84537 9.39133H3.43478M27.9907 26.9479H13.716C12.8011 26.9479 12.0169 26.2944 11.8282 25.4086L9.69348 14.7353C9.46114 13.5445 10.3615 12.4409 11.5813 12.4409H30.1253C31.3451 12.4409 32.2455 13.5445 32.0131 14.7353L29.8785 25.4086C29.7042 26.2944 28.9201 26.9479 27.9907 26.9479ZM17.9563 29.8522C17.9563 30.6542 17.3061 31.3044 16.5041 31.3044C15.7021 31.3044 15.052 30.6542 15.052 29.8522C15.052 29.0502 15.7021 28.4001 16.5041 28.4001C17.3061 28.4001 17.9563 29.0502 17.9563 29.8522ZM28.1214 29.8522C28.1214 30.6542 27.4712 31.3044 26.6692 31.3044C25.8672 31.3044 25.2171 30.6542 25.2171 29.8522C25.2171 29.0502 25.8672 28.4001 26.6692 28.4001C27.4712 28.4001 28.1214 29.0502 28.1214 29.8522Z" stroke="#B3B3B3" stroke-width="1.7" stroke-miterlimit="10" stroke-linecap="round" stroke-linejoin="round"/>
</svg>
