<svg width="32" height="32" viewBox="0 0 36 36" fill="none" xmlns="http://www.w3.org/2000/svg">
<path d="M27.6863 26.9479H13.4116C12.4968 26.9479 11.7126 26.2944 11.5238 25.4086L9.38913 14.7352C9.15679 13.5445 10.0571 12.4408 11.2769 12.4408H29.821C31.0408 12.4408 31.9411 13.5445 31.7088 14.7352L29.5741 25.4086C29.3999 26.2944 28.6157 26.9479 27.6863 26.9479Z" stroke="#FF4200" stroke-width="3" stroke-miterlimit="10" stroke-linecap="round" stroke-linejoin="round"/>
<path d="M16.1998 31.3044C17.0018 31.3044 17.6519 30.6542 17.6519 29.8522C17.6519 29.0502 17.0018 28.4 16.1998 28.4C15.3978 28.4 14.7476 29.0502 14.7476 29.8522C14.7476 30.6542 15.3978 31.3044 16.1998 31.3044Z" stroke="#00A9EA" stroke-width="3" stroke-miterlimit="10" stroke-linecap="round" stroke-linejoin="round"/>
<path d="M9.73775 22.0541L7.53047 11.0177C7.34169 10.0738 6.51396 9.3913 5.54102 9.3913H3.13043" stroke="#FF4200" stroke-width="3" stroke-miterlimit="10" stroke-linecap="round" stroke-linejoin="round"/>
<path d="M21.9999 26.9479H27.6863C28.6157 26.9479 29.3999 26.2944 29.5741 25.4086L31.7088 14.7352C31.9412 13.5445 31.0408 12.4408 29.821 12.4408" stroke="#25258C" stroke-width="3" stroke-miterlimit="10" stroke-linecap="round" stroke-linejoin="round"/>
<path d="M26.3649 31.3043C27.1669 31.3043 27.8171 30.6542 27.8171 29.8522C27.8171 29.0502 27.1669 28.4 26.3649 28.4C25.5629 28.4 24.9128 29.0502 24.9128 29.8522C24.9128 30.6542 25.5629 31.3043 26.3649 31.3043Z" stroke="#00A9EA" stroke-width="3" stroke-miterlimit="10" stroke-linecap="round" stroke-linejoin="round"/>
</svg>
