<svg width="36" height="36" viewBox="0 0 36 36" fill="none" xmlns="http://www.w3.org/2000/svg">
<path d="M27.5559 26.9479H13.2812C12.3663 26.9479 11.5822 26.2944 11.3934 25.4086L9.2587 14.7352C9.02635 13.5445 9.92669 12.4408 11.1465 12.4408H29.6905C30.9104 12.4408 31.8107 13.5445 31.5784 14.7352L29.4437 25.4086C29.2694 26.2944 28.4853 26.9479 27.5559 26.9479Z" stroke="#FF4200" stroke-width="2" stroke-miterlimit="10" stroke-linecap="round" stroke-linejoin="round"/>
<path d="M16.0693 31.3044C16.8713 31.3044 17.5215 30.6542 17.5215 29.8522C17.5215 29.0502 16.8713 28.4 16.0693 28.4C15.2673 28.4 14.6172 29.0502 14.6172 29.8522C14.6172 30.6542 15.2673 31.3044 16.0693 31.3044Z" stroke="#00A9EA" stroke-width="2" stroke-miterlimit="10" stroke-linecap="round" stroke-linejoin="round"/>
<path d="M9.60732 22.0541L7.40003 11.0177C7.21125 10.0738 6.38353 9.3913 5.41059 9.3913H3" stroke="#FF4200" stroke-width="2" stroke-miterlimit="10" stroke-linecap="round" stroke-linejoin="round"/>
<path d="M21.8695 26.9479H27.5559C28.4853 26.9479 29.2694 26.2944 29.4437 25.4086L31.5784 14.7352C31.8107 13.5445 30.9104 12.4408 29.6906 12.4408" stroke="#25258C" stroke-width="2" stroke-miterlimit="10" stroke-linecap="round" stroke-linejoin="round"/>
<path d="M26.2345 31.3043C27.0365 31.3043 27.6867 30.6542 27.6867 29.8522C27.6867 29.0502 27.0365 28.4 26.2345 28.4C25.4325 28.4 24.7823 29.0502 24.7823 29.8522C24.7823 30.6542 25.4325 31.3043 26.2345 31.3043Z" stroke="#00A9EA" stroke-width="2" stroke-miterlimit="10" stroke-linecap="round" stroke-linejoin="round"/>
<path d="M9.60732 22.0541L7.40003 11.0177C7.21125 10.0738 6.38353 9.39133 5.41059 9.39133H3M27.5559 26.9479H13.2812C12.3663 26.9479 11.5822 26.2944 11.3934 25.4086L9.2587 14.7353C9.02635 13.5445 9.9267 12.4409 11.1465 12.4409H29.6905C30.9104 12.4409 31.8107 13.5445 31.5784 14.7353L29.4437 25.4086C29.2694 26.2944 28.4853 26.9479 27.5559 26.9479ZM17.5215 29.8522C17.5215 30.6542 16.8713 31.3044 16.0693 31.3044C15.2673 31.3044 14.6172 30.6542 14.6172 29.8522C14.6172 29.0502 15.2673 28.4001 16.0693 28.4001C16.8713 28.4001 17.5215 29.0502 17.5215 29.8522ZM27.6866 29.8522C27.6866 30.6542 27.0365 31.3044 26.2345 31.3044C25.4324 31.3044 24.7823 30.6542 24.7823 29.8522C24.7823 29.0502 25.4324 28.4001 26.2345 28.4001C27.0365 28.4001 27.6866 29.0502 27.6866 29.8522Z" stroke="white" stroke-opacity="0.6" stroke-width="2" stroke-miterlimit="10" stroke-linecap="round" stroke-linejoin="round"/>
</svg>
