<svg width="36" height="36" viewBox="0 0 36 36" fill="none" xmlns="http://www.w3.org/2000/svg">
<path d="M5.07394 12.3577L16.5497 20.6387C17.7967 21.5355 19.4922 21.4934 20.6832 20.5406L30.8839 12.3577M28.4038 10.9565H7.59611C5.99875 10.9565 4.69565 12.2456 4.69565 13.857C4.69565 14.9953 4.69565 16.0282 4.69565 17C4.69565 20.6343 4.69565 23.4157 4.69565 27.6727C4.69565 29.2701 5.98474 30.5732 7.59611 30.5732H28.4178C30.0151 30.5732 31.3182 29.2701 31.3042 27.6587V13.857M28.4038 10.9565C30.0151 10.9565 31.3042 12.2596 31.3042 13.857M28.4038 10.9565H18.5M31.3042 13.857L31.3042 20" stroke="#25258C" stroke-width="2" stroke-miterlimit="10" stroke-linecap="round" stroke-linejoin="round"/>
<circle cx="26" cy="10" r="10" fill="#FF4200"/>
</svg>
