<svg width="32" height="32" viewBox="0 0 36 36" fill="none" xmlns="http://www.w3.org/2000/svg">
<path d="M5.07394 12.3577L16.5497 20.6387C17.7967 21.5355 19.4922 21.4934 20.6832 20.5406L30.8838 12.3577" stroke="#00A9EA" stroke-width="3" stroke-miterlimit="10" stroke-linecap="round" stroke-linejoin="round"/>
<path d="M28.4178 30.5732H7.59611C5.98474 30.5732 4.69565 29.2701 4.69565 27.6727C4.69565 23.4157 4.69565 20.6343 4.69565 17C4.69565 16.0282 4.69565 14.9953 4.69565 13.857C4.69565 12.2456 5.99875 10.9565 7.59611 10.9565H28.4038C30.0151 10.9565 31.3042 12.2596 31.3042 13.857V27.6587C31.3182 29.2701 30.0151 30.5732 28.4178 30.5732Z" stroke="#FF4200" stroke-width="3" stroke-miterlimit="10" stroke-linecap="round" stroke-linejoin="round"/>
<path d="M18.5 10.9565H28.4037C30.0151 10.9565 31.3042 12.2596 31.3042 13.857V20" stroke="#25258C" stroke-width="3" stroke-miterlimit="10" stroke-linecap="round" stroke-linejoin="round"/>
</svg>
