<svg width="28" height="28" viewBox="0 0 28 28" fill="none" xmlns="http://www.w3.org/2000/svg">
<path d="M0 14C0 6.26801 6.26801 0 14 0V0C21.732 0 28 6.26801 28 14V14C28 21.732 21.732 28 14 28V28C6.26801 28 0 21.732 0 14V14Z" fill="white"/>
<path d="M15.177 22.6786L14.8833 23.0132C14.3855 23.5844 13.5613 23.5844 13.0635 23.0132L6.29049 15.3099C4.69924 13.4901 4.56051 10.7238 5.9804 8.74085C5.99672 8.71637 6.01304 8.70004 6.02936 8.67556C7.92254 6.10508 12.1577 6.59469 13.5123 9.44263V9.44263C13.6885 9.85378 14.272 9.85266 14.4507 9.44263V9.44263C15.8053 6.59469 20.0405 6.11324 21.9337 8.67556C21.95 8.70005 21.9663 8.71637 21.9827 8.74085C23.4026 10.7238 23.2638 13.4901 21.6644 15.3099M21.6563 15.3099L17.7639 19.7409C17.1763 20.41 16.0584 20.4019 15.4871 19.7164L12.3373 15.979" stroke="#B3B3B3" stroke-width="2" stroke-miterlimit="10" stroke-linecap="round"/>
</svg>
