<svg width="28" height="28" viewBox="0 0 28 28" fill="none" xmlns="http://www.w3.org/2000/svg">
<rect width="28" height="28" rx="14" fill="#F4F4F4"/>
<path d="M15.1757 22.6766L14.882 23.0111C14.3843 23.5823 13.5602 23.5823 13.0625 23.0111L6.29033 15.3088C4.69927 13.4893 4.56057 10.7233 5.98028 8.74063C5.99659 8.71615 6.01291 8.69983 6.02923 8.67535C7.92218 6.10519 12.1568 6.59475 13.5113 9.44232L13.9763 10.4296" stroke="#FF4200" stroke-width="2" stroke-miterlimit="10" stroke-linecap="round"/>
<path d="M21.6542 15.3088L17.7623 19.7393C17.1748 20.4083 16.057 20.4002 15.4858 19.7148L12.3364 15.9779" stroke="#00A9EA" stroke-width="2" stroke-miterlimit="10" stroke-linecap="round"/>
<path d="M13.9763 10.4296L14.4496 9.44232C15.804 6.59474 20.0386 6.11335 21.9316 8.67535C21.9479 8.69983 21.9642 8.71615 21.9805 8.74063C23.4002 10.7233 23.2615 13.4893 21.6623 15.3088" stroke="#25258C" stroke-width="2" stroke-miterlimit="10" stroke-linecap="round"/>
</svg>
